<mxfile host="app.diagrams.net" modified="2023-12-06T19:39:04.768Z" agent="Mozilla/5.0 (Windows NT 10.0; Win64; x64) AppleWebKit/537.36 (KHTML, like Gecko) Chrome/119.0.0.0 Safari/537.36 Edg/119.0.0.0" etag="-6jD3ZOBct9F3Z91Hj5K" version="22.1.7" type="google">
  <diagram name="Page-1" id="lpzJj0fjnjSWHQhD5RYx">
    <mxGraphModel grid="1" page="1" gridSize="10" guides="1" tooltips="1" connect="1" arrows="1" fold="1" pageScale="1" pageWidth="850" pageHeight="1100" math="0" shadow="0">
      <root>
        <mxCell id="0" />
        <mxCell id="1" parent="0" />
        <mxCell id="U3aALWCIoYY-u2YIZw2X-5" style="edgeStyle=orthogonalEdgeStyle;rounded=0;orthogonalLoop=1;jettySize=auto;html=1;entryX=0.5;entryY=1;entryDx=0;entryDy=0;" edge="1" parent="1" source="U3aALWCIoYY-u2YIZw2X-2" target="U3aALWCIoYY-u2YIZw2X-4">
          <mxGeometry relative="1" as="geometry" />
        </mxCell>
        <mxCell id="U3aALWCIoYY-u2YIZw2X-2" value="" style="shape=image;verticalLabelPosition=bottom;labelBackgroundColor=default;verticalAlign=top;aspect=fixed;imageAspect=0;image=https://production-media.paperswithcode.com/datasets/Screenshot_2021-05-10_at_10.15.08.png;perimeterSpacing=0;imageBorder=default;" vertex="1" parent="1">
          <mxGeometry x="-840" y="275" width="254.32" height="60" as="geometry" />
        </mxCell>
        <mxCell id="MkLNhm7JsX2LDt27ea73-42" style="edgeStyle=orthogonalEdgeStyle;rounded=0;orthogonalLoop=1;jettySize=auto;html=1;entryX=0.5;entryY=1;entryDx=0;entryDy=0;" edge="1" parent="1" source="U3aALWCIoYY-u2YIZw2X-4" target="U3aALWCIoYY-u2YIZw2X-6">
          <mxGeometry relative="1" as="geometry" />
        </mxCell>
        <mxCell id="U3aALWCIoYY-u2YIZw2X-4" value="Swin Processor" style="rounded=1;whiteSpace=wrap;html=1;perimeterSpacing=0;fillColor=#6a00ff;strokeColor=#3700CC;fontColor=#ffffff;" vertex="1" parent="1">
          <mxGeometry x="-772.84" y="135" width="120" height="60" as="geometry" />
        </mxCell>
        <mxCell id="U3aALWCIoYY-u2YIZw2X-6" value="" style="rounded=1;whiteSpace=wrap;html=1;fillColor=#d0cee2;strokeColor=#56517e;" vertex="1" parent="1">
          <mxGeometry x="-478" y="30" width="238" height="530" as="geometry" />
        </mxCell>
        <mxCell id="U3aALWCIoYY-u2YIZw2X-8" value="Image" style="text;html=1;align=center;verticalAlign=middle;resizable=0;points=[];autosize=1;strokeColor=none;fillColor=none;" vertex="1" parent="1">
          <mxGeometry x="-742.84" y="345" width="60" height="30" as="geometry" />
        </mxCell>
        <mxCell id="U3aALWCIoYY-u2YIZw2X-9" value="Pixels" style="text;html=1;align=center;verticalAlign=middle;resizable=0;points=[];autosize=1;strokeColor=none;fillColor=none;rotation=0;" vertex="1" parent="1">
          <mxGeometry x="-767.84" y="225" width="60" height="30" as="geometry" />
        </mxCell>
        <mxCell id="U3aALWCIoYY-u2YIZw2X-10" value="Patches" style="text;html=1;align=center;verticalAlign=middle;resizable=0;points=[];autosize=1;strokeColor=none;fillColor=none;" vertex="1" parent="1">
          <mxGeometry x="-441" y="420" width="70" height="30" as="geometry" />
        </mxCell>
        <mxCell id="U3aALWCIoYY-u2YIZw2X-12" value="&lt;font style=&quot;font-size: 18px;&quot;&gt;&lt;b&gt;Swin Encoder&lt;/b&gt;&lt;/font&gt;" style="text;html=1;align=center;verticalAlign=middle;resizable=0;points=[];autosize=1;strokeColor=none;fillColor=none;" vertex="1" parent="1">
          <mxGeometry x="-420.5" y="-96" width="140" height="40" as="geometry" />
        </mxCell>
        <mxCell id="U3aALWCIoYY-u2YIZw2X-13" value="&lt;span style=&quot;font-size: 18px;&quot;&gt;&lt;b&gt;TROCR Decoder&lt;/b&gt;&lt;/span&gt;" style="text;html=1;align=center;verticalAlign=middle;resizable=0;points=[];autosize=1;strokeColor=none;fillColor=none;" vertex="1" parent="1">
          <mxGeometry x="-110" y="-80" width="160" height="40" as="geometry" />
        </mxCell>
        <mxCell id="U3aALWCIoYY-u2YIZw2X-37" style="edgeStyle=orthogonalEdgeStyle;rounded=0;orthogonalLoop=1;jettySize=auto;html=1;exitX=0.5;exitY=0;exitDx=0;exitDy=0;entryX=0.5;entryY=1;entryDx=0;entryDy=0;" edge="1" parent="1">
          <mxGeometry relative="1" as="geometry">
            <mxPoint x="-367.5" y="380" as="sourcePoint" />
          </mxGeometry>
        </mxCell>
        <mxCell id="U3aALWCIoYY-u2YIZw2X-40" value="" style="group" connectable="0" vertex="1" parent="1">
          <mxGeometry x="-463" y="460" width="210" height="35" as="geometry" />
        </mxCell>
        <mxCell id="U3aALWCIoYY-u2YIZw2X-14" value="" style="rounded=0;whiteSpace=wrap;html=1;fillColor=#d80073;fontColor=#ffffff;strokeColor=#A50040;" vertex="1" parent="U3aALWCIoYY-u2YIZw2X-40">
          <mxGeometry y="5" width="210" height="30" as="geometry" />
        </mxCell>
        <mxCell id="U3aALWCIoYY-u2YIZw2X-15" value="&lt;span style=&quot;&quot;&gt;v&lt;sub&gt;1&lt;/sub&gt;&lt;/span&gt;" style="whiteSpace=wrap;html=1;aspect=fixed;fillColor=#1ba1e2;fontColor=#ffffff;strokeColor=#006EAF;" vertex="1" parent="U3aALWCIoYY-u2YIZw2X-40">
          <mxGeometry x="12.5" y="10" width="20" height="20" as="geometry" />
        </mxCell>
        <mxCell id="U3aALWCIoYY-u2YIZw2X-16" value="v&lt;span style=&quot;font-size: 10px;&quot;&gt;&lt;sub&gt;2&lt;/sub&gt;&lt;/span&gt;" style="whiteSpace=wrap;html=1;aspect=fixed;fillColor=#1ba1e2;fontColor=#ffffff;strokeColor=#006EAF;" vertex="1" parent="U3aALWCIoYY-u2YIZw2X-40">
          <mxGeometry x="47.5" y="10" width="20" height="20" as="geometry" />
        </mxCell>
        <mxCell id="U3aALWCIoYY-u2YIZw2X-18" value="v&lt;span style=&quot;font-size: 8.33333px;&quot;&gt;&lt;sub&gt;3&lt;/sub&gt;&lt;/span&gt;" style="whiteSpace=wrap;html=1;aspect=fixed;fillColor=#1ba1e2;fontColor=#ffffff;strokeColor=#006EAF;" vertex="1" parent="U3aALWCIoYY-u2YIZw2X-40">
          <mxGeometry x="80" y="10" width="20" height="20" as="geometry" />
        </mxCell>
        <mxCell id="U3aALWCIoYY-u2YIZw2X-19" value="v&lt;span style=&quot;font-size: 6.94444px;&quot;&gt;&lt;sub&gt;n&lt;/sub&gt;&lt;/span&gt;" style="whiteSpace=wrap;html=1;aspect=fixed;fillColor=#1ba1e2;fontColor=#ffffff;strokeColor=#006EAF;" vertex="1" parent="U3aALWCIoYY-u2YIZw2X-40">
          <mxGeometry x="182.5" y="10" width="20" height="20" as="geometry" />
        </mxCell>
        <mxCell id="U3aALWCIoYY-u2YIZw2X-20" value="..." style="text;html=1;strokeColor=none;fillColor=none;align=center;verticalAlign=middle;whiteSpace=wrap;rounded=0;" vertex="1" parent="U3aALWCIoYY-u2YIZw2X-40">
          <mxGeometry x="122.5" width="60" height="30" as="geometry" />
        </mxCell>
        <mxCell id="U3aALWCIoYY-u2YIZw2X-21" value="v&lt;span style=&quot;font-size: 6.94444px;&quot;&gt;&lt;sub&gt;4&lt;/sub&gt;&lt;/span&gt;" style="whiteSpace=wrap;html=1;aspect=fixed;fillColor=#1ba1e2;fontColor=#ffffff;strokeColor=#006EAF;" vertex="1" parent="U3aALWCIoYY-u2YIZw2X-40">
          <mxGeometry x="112.5" y="10" width="20" height="20" as="geometry" />
        </mxCell>
        <mxCell id="U3aALWCIoYY-u2YIZw2X-41" value="" style="group" connectable="0" vertex="1" parent="1">
          <mxGeometry x="-463" y="-46" width="210" height="35" as="geometry" />
        </mxCell>
        <mxCell id="U3aALWCIoYY-u2YIZw2X-42" value="" style="rounded=0;whiteSpace=wrap;html=1;fillColor=#d80073;fontColor=#ffffff;strokeColor=#A50040;" vertex="1" parent="U3aALWCIoYY-u2YIZw2X-41">
          <mxGeometry y="5" width="210" height="30" as="geometry" />
        </mxCell>
        <mxCell id="U3aALWCIoYY-u2YIZw2X-43" value="&lt;span style=&quot;font-size: 12px;&quot;&gt;f&lt;/span&gt;&lt;sub&gt;1&lt;/sub&gt;" style="whiteSpace=wrap;html=1;aspect=fixed;fillColor=#e51400;fontColor=#ffffff;strokeColor=#B20000;" vertex="1" parent="U3aALWCIoYY-u2YIZw2X-41">
          <mxGeometry x="12.5" y="10" width="20" height="20" as="geometry" />
        </mxCell>
        <mxCell id="U3aALWCIoYY-u2YIZw2X-44" value="f&lt;span style=&quot;font-size: 10px;&quot;&gt;&lt;sub&gt;2&lt;/sub&gt;&lt;/span&gt;" style="whiteSpace=wrap;html=1;aspect=fixed;fillColor=#e51400;fontColor=#ffffff;strokeColor=#B20000;" vertex="1" parent="U3aALWCIoYY-u2YIZw2X-41">
          <mxGeometry x="47.5" y="10" width="20" height="20" as="geometry" />
        </mxCell>
        <mxCell id="U3aALWCIoYY-u2YIZw2X-45" value="f&lt;span style=&quot;font-size: 8.33333px;&quot;&gt;&lt;sub&gt;3&lt;/sub&gt;&lt;/span&gt;" style="whiteSpace=wrap;html=1;aspect=fixed;fillColor=#e51400;fontColor=#ffffff;strokeColor=#B20000;" vertex="1" parent="U3aALWCIoYY-u2YIZw2X-41">
          <mxGeometry x="81" y="10" width="20" height="20" as="geometry" />
        </mxCell>
        <mxCell id="U3aALWCIoYY-u2YIZw2X-46" value="f&lt;span style=&quot;font-size: 6.94444px;&quot;&gt;&lt;sub&gt;n&lt;/sub&gt;&lt;/span&gt;" style="whiteSpace=wrap;html=1;aspect=fixed;fillColor=#e51400;fontColor=#ffffff;strokeColor=#B20000;" vertex="1" parent="U3aALWCIoYY-u2YIZw2X-41">
          <mxGeometry x="182.5" y="10" width="20" height="20" as="geometry" />
        </mxCell>
        <mxCell id="U3aALWCIoYY-u2YIZw2X-47" value="..." style="text;html=1;strokeColor=none;fillColor=none;align=center;verticalAlign=middle;whiteSpace=wrap;rounded=0;" vertex="1" parent="U3aALWCIoYY-u2YIZw2X-41">
          <mxGeometry x="122.5" width="60" height="30" as="geometry" />
        </mxCell>
        <mxCell id="U3aALWCIoYY-u2YIZw2X-48" value="f&lt;span style=&quot;font-size: 6.94444px;&quot;&gt;&lt;sub&gt;4&lt;/sub&gt;&lt;/span&gt;" style="whiteSpace=wrap;html=1;aspect=fixed;fillColor=#e51400;fontColor=#ffffff;strokeColor=#B20000;" vertex="1" parent="U3aALWCIoYY-u2YIZw2X-41">
          <mxGeometry x="112.5" y="10" width="20" height="20" as="geometry" />
        </mxCell>
        <mxCell id="U3aALWCIoYY-u2YIZw2X-63" value="Image Features" style="text;html=1;align=center;verticalAlign=middle;resizable=0;points=[];autosize=1;strokeColor=none;fillColor=none;" vertex="1" parent="1">
          <mxGeometry x="-573" y="-41" width="110" height="30" as="geometry" />
        </mxCell>
        <mxCell id="U3aALWCIoYY-u2YIZw2X-64" value="" style="rounded=1;whiteSpace=wrap;html=1;fillColor=#b1ddf0;strokeColor=#10739e;" vertex="1" parent="1">
          <mxGeometry x="-142.5" y="40" width="225" height="390" as="geometry" />
        </mxCell>
        <mxCell id="U3aALWCIoYY-u2YIZw2X-65" value="Masked Multihead Self Attention" style="rounded=1;whiteSpace=wrap;html=1;arcSize=8;fillColor=#fa6800;fontColor=#000000;strokeColor=#C73500;" vertex="1" parent="1">
          <mxGeometry x="-101.5" y="350" width="147" height="30" as="geometry" />
        </mxCell>
        <mxCell id="U3aALWCIoYY-u2YIZw2X-66" style="edgeStyle=orthogonalEdgeStyle;rounded=0;orthogonalLoop=1;jettySize=auto;html=1;exitX=0.5;exitY=0;exitDx=0;exitDy=0;entryX=0.5;entryY=1;entryDx=0;entryDy=0;" edge="1" parent="1" source="U3aALWCIoYY-u2YIZw2X-67" target="U3aALWCIoYY-u2YIZw2X-65">
          <mxGeometry relative="1" as="geometry" />
        </mxCell>
        <mxCell id="U3aALWCIoYY-u2YIZw2X-67" value="Positional Encoding" style="rounded=1;whiteSpace=wrap;html=1;arcSize=8;fillColor=#647687;strokeColor=#314354;fontColor=#ffffff;" vertex="1" parent="1">
          <mxGeometry x="-103.5" y="390" width="147" height="30" as="geometry" />
        </mxCell>
        <mxCell id="U3aALWCIoYY-u2YIZw2X-68" value="FC" style="rounded=1;whiteSpace=wrap;html=1;arcSize=8;fillColor=#e3c800;fontColor=#000000;strokeColor=#B09500;" vertex="1" parent="1">
          <mxGeometry x="-104.5" y="130" width="147" height="30" as="geometry" />
        </mxCell>
        <mxCell id="U3aALWCIoYY-u2YIZw2X-118" value="" style="edgeStyle=orthogonalEdgeStyle;rounded=0;orthogonalLoop=1;jettySize=auto;html=1;" edge="1" parent="1" source="U3aALWCIoYY-u2YIZw2X-71" target="U3aALWCIoYY-u2YIZw2X-114">
          <mxGeometry relative="1" as="geometry" />
        </mxCell>
        <mxCell id="U3aALWCIoYY-u2YIZw2X-119" style="edgeStyle=orthogonalEdgeStyle;rounded=0;orthogonalLoop=1;jettySize=auto;html=1;" edge="1" parent="1" source="U3aALWCIoYY-u2YIZw2X-71">
          <mxGeometry relative="1" as="geometry">
            <mxPoint x="-30" y="270" as="targetPoint" />
          </mxGeometry>
        </mxCell>
        <mxCell id="U3aALWCIoYY-u2YIZw2X-120" style="edgeStyle=orthogonalEdgeStyle;rounded=0;orthogonalLoop=1;jettySize=auto;html=1;entryX=1;entryY=0;entryDx=0;entryDy=0;" edge="1" parent="1" source="U3aALWCIoYY-u2YIZw2X-71" target="U3aALWCIoYY-u2YIZw2X-114">
          <mxGeometry relative="1" as="geometry">
            <Array as="points">
              <mxPoint x="60" y="310" />
              <mxPoint x="60" y="222" />
            </Array>
          </mxGeometry>
        </mxCell>
        <mxCell id="U3aALWCIoYY-u2YIZw2X-71" value="Layer Norm" style="rounded=1;whiteSpace=wrap;html=1;arcSize=8;fillColor=#6d8764;fontColor=#ffffff;strokeColor=#3A5431;" vertex="1" parent="1">
          <mxGeometry x="-103.5" y="290" width="147" height="30" as="geometry" />
        </mxCell>
        <mxCell id="U3aALWCIoYY-u2YIZw2X-124" style="edgeStyle=orthogonalEdgeStyle;rounded=0;orthogonalLoop=1;jettySize=auto;html=1;entryX=0.5;entryY=1;entryDx=0;entryDy=0;" edge="1" parent="1" source="U3aALWCIoYY-u2YIZw2X-72" target="U3aALWCIoYY-u2YIZw2X-123">
          <mxGeometry relative="1" as="geometry" />
        </mxCell>
        <mxCell id="U3aALWCIoYY-u2YIZw2X-72" value="Layer Norm" style="rounded=1;whiteSpace=wrap;html=1;arcSize=8;fillColor=#647687;fontColor=#ffffff;strokeColor=#314354;" vertex="1" parent="1">
          <mxGeometry x="-105.5" y="90" width="149" height="30" as="geometry" />
        </mxCell>
        <mxCell id="U3aALWCIoYY-u2YIZw2X-73" value="+" style="ellipse;whiteSpace=wrap;html=1;aspect=fixed;" vertex="1" parent="1">
          <mxGeometry x="-33" y="330" width="10" height="10" as="geometry" />
        </mxCell>
        <mxCell id="U3aALWCIoYY-u2YIZw2X-74" value="" style="endArrow=classic;html=1;rounded=0;entryX=0.5;entryY=1;entryDx=0;entryDy=0;exitX=0.5;exitY=0;exitDx=0;exitDy=0;" edge="1" parent="1" source="U3aALWCIoYY-u2YIZw2X-65" target="U3aALWCIoYY-u2YIZw2X-73">
          <mxGeometry width="50" height="50" relative="1" as="geometry">
            <mxPoint x="-52.5" y="350" as="sourcePoint" />
            <mxPoint x="-2.5" y="300" as="targetPoint" />
          </mxGeometry>
        </mxCell>
        <mxCell id="U3aALWCIoYY-u2YIZw2X-75" value="" style="endArrow=classic;html=1;rounded=0;entryX=0.5;entryY=1;entryDx=0;entryDy=0;exitX=0.5;exitY=0;exitDx=0;exitDy=0;" edge="1" parent="1" source="U3aALWCIoYY-u2YIZw2X-73" target="U3aALWCIoYY-u2YIZw2X-71">
          <mxGeometry width="50" height="50" relative="1" as="geometry">
            <mxPoint x="-52.5" y="350" as="sourcePoint" />
            <mxPoint x="-2.5" y="300" as="targetPoint" />
          </mxGeometry>
        </mxCell>
        <mxCell id="U3aALWCIoYY-u2YIZw2X-76" value="" style="endArrow=classic;html=1;rounded=0;exitX=-0.013;exitY=0.426;exitDx=0;exitDy=0;exitPerimeter=0;entryX=0;entryY=0.5;entryDx=0;entryDy=0;" edge="1" parent="1" source="U3aALWCIoYY-u2YIZw2X-67" target="U3aALWCIoYY-u2YIZw2X-73">
          <mxGeometry width="50" height="50" relative="1" as="geometry">
            <mxPoint x="-52.5" y="370" as="sourcePoint" />
            <mxPoint x="-112.5" y="420" as="targetPoint" />
            <Array as="points">
              <mxPoint x="-132.5" y="403" />
              <mxPoint x="-132.5" y="335" />
            </Array>
          </mxGeometry>
        </mxCell>
        <mxCell id="U3aALWCIoYY-u2YIZw2X-80" value="" style="group" connectable="0" vertex="1" parent="1">
          <mxGeometry x="-195" y="470" width="340" height="80" as="geometry" />
        </mxCell>
        <mxCell id="U3aALWCIoYY-u2YIZw2X-81" value="" style="rounded=0;whiteSpace=wrap;html=1;fillColor=#d80073;fontColor=#ffffff;strokeColor=#A50040;" vertex="1" parent="U3aALWCIoYY-u2YIZw2X-80">
          <mxGeometry y="5" width="340" height="30" as="geometry" />
        </mxCell>
        <mxCell id="U3aALWCIoYY-u2YIZw2X-88" value="&amp;lt;start&amp;gt;" style="rounded=0;whiteSpace=wrap;html=1;fillColor=#60a917;fontColor=#ffffff;strokeColor=#2D7600;" vertex="1" parent="U3aALWCIoYY-u2YIZw2X-80">
          <mxGeometry x="10" y="10" width="57.5" height="20" as="geometry" />
        </mxCell>
        <mxCell id="U3aALWCIoYY-u2YIZw2X-89" value="\frac" style="rounded=0;whiteSpace=wrap;html=1;fillColor=#60a917;fontColor=#ffffff;strokeColor=#2D7600;" vertex="1" parent="U3aALWCIoYY-u2YIZw2X-80">
          <mxGeometry x="76.25" y="10" width="57.5" height="20" as="geometry" />
        </mxCell>
        <mxCell id="U3aALWCIoYY-u2YIZw2X-90" value="{" style="rounded=0;whiteSpace=wrap;html=1;fillColor=#60a917;fontColor=#ffffff;strokeColor=#2D7600;" vertex="1" parent="U3aALWCIoYY-u2YIZw2X-80">
          <mxGeometry x="138" y="10" width="57.5" height="20" as="geometry" />
        </mxCell>
        <mxCell id="U3aALWCIoYY-u2YIZw2X-97" value="\pm" style="rounded=0;whiteSpace=wrap;html=1;fillColor=#60a917;fontColor=#ffffff;strokeColor=#2D7600;" vertex="1" parent="U3aALWCIoYY-u2YIZw2X-80">
          <mxGeometry x="272.5" y="10" width="57.5" height="20" as="geometry" />
        </mxCell>
        <mxCell id="U3aALWCIoYY-u2YIZw2X-99" value="(" style="rounded=0;whiteSpace=wrap;html=1;fillColor=#60a917;fontColor=#ffffff;strokeColor=#2D7600;" vertex="1" parent="U3aALWCIoYY-u2YIZw2X-80">
          <mxGeometry x="208" y="10" width="57.5" height="20" as="geometry" />
        </mxCell>
        <mxCell id="U3aALWCIoYY-u2YIZw2X-101" value="Previous Output" style="text;html=1;align=center;verticalAlign=middle;resizable=0;points=[];autosize=1;strokeColor=none;fillColor=none;" vertex="1" parent="U3aALWCIoYY-u2YIZw2X-80">
          <mxGeometry y="50" width="110" height="30" as="geometry" />
        </mxCell>
        <mxCell id="U3aALWCIoYY-u2YIZw2X-100" style="edgeStyle=orthogonalEdgeStyle;rounded=0;orthogonalLoop=1;jettySize=auto;html=1;entryX=0.5;entryY=1;entryDx=0;entryDy=0;" edge="1" parent="1" source="U3aALWCIoYY-u2YIZw2X-81" target="U3aALWCIoYY-u2YIZw2X-64">
          <mxGeometry relative="1" as="geometry" />
        </mxCell>
        <mxCell id="U3aALWCIoYY-u2YIZw2X-102" value="Layer Norm" style="rounded=1;whiteSpace=wrap;html=1;arcSize=8;fillColor=#6d8764;fontColor=#ffffff;strokeColor=#3A5431;" vertex="1" parent="1">
          <mxGeometry x="-104.5" y="180" width="147" height="30" as="geometry" />
        </mxCell>
        <mxCell id="U3aALWCIoYY-u2YIZw2X-106" value="Multi Head Attention" style="rounded=1;whiteSpace=wrap;html=1;arcSize=8;fillColor=#fa6800;fontColor=#000000;strokeColor=#C73500;" vertex="1" parent="1">
          <mxGeometry x="-104.5" y="240" width="147" height="30" as="geometry" />
        </mxCell>
        <mxCell id="U3aALWCIoYY-u2YIZw2X-109" style="edgeStyle=orthogonalEdgeStyle;rounded=0;orthogonalLoop=1;jettySize=auto;html=1;entryX=0;entryY=0.5;entryDx=0;entryDy=0;" edge="1" parent="1" source="U3aALWCIoYY-u2YIZw2X-42" target="U3aALWCIoYY-u2YIZw2X-106">
          <mxGeometry relative="1" as="geometry">
            <Array as="points">
              <mxPoint x="-200" y="-50" />
              <mxPoint x="-200" y="255" />
            </Array>
          </mxGeometry>
        </mxCell>
        <mxCell id="U3aALWCIoYY-u2YIZw2X-114" value="+" style="ellipse;whiteSpace=wrap;html=1;aspect=fixed;" vertex="1" parent="1">
          <mxGeometry x="-35" y="220" width="10" height="10" as="geometry" />
        </mxCell>
        <mxCell id="U3aALWCIoYY-u2YIZw2X-115" value="" style="endArrow=classic;html=1;rounded=0;entryX=0.5;entryY=1;entryDx=0;entryDy=0;exitX=0.5;exitY=0;exitDx=0;exitDy=0;" edge="1" parent="1" target="U3aALWCIoYY-u2YIZw2X-114">
          <mxGeometry width="50" height="50" relative="1" as="geometry">
            <mxPoint x="-30" y="240" as="sourcePoint" />
            <mxPoint x="-4.5" y="190" as="targetPoint" />
          </mxGeometry>
        </mxCell>
        <mxCell id="U3aALWCIoYY-u2YIZw2X-116" value="" style="endArrow=classic;html=1;rounded=0;entryX=0.5;entryY=1;entryDx=0;entryDy=0;exitX=0.5;exitY=0;exitDx=0;exitDy=0;" edge="1" parent="1" source="U3aALWCIoYY-u2YIZw2X-114">
          <mxGeometry width="50" height="50" relative="1" as="geometry">
            <mxPoint x="-54.5" y="240" as="sourcePoint" />
            <mxPoint x="-32" y="210" as="targetPoint" />
          </mxGeometry>
        </mxCell>
        <mxCell id="U3aALWCIoYY-u2YIZw2X-121" value="" style="endArrow=classic;html=1;rounded=0;entryX=0.5;entryY=1;entryDx=0;entryDy=0;exitX=0.5;exitY=0;exitDx=0;exitDy=0;" edge="1" parent="1" source="U3aALWCIoYY-u2YIZw2X-102" target="U3aALWCIoYY-u2YIZw2X-68">
          <mxGeometry width="50" height="50" relative="1" as="geometry">
            <mxPoint x="-150" y="310" as="sourcePoint" />
            <mxPoint x="-100" y="260" as="targetPoint" />
          </mxGeometry>
        </mxCell>
        <mxCell id="U3aALWCIoYY-u2YIZw2X-122" value="" style="endArrow=classic;html=1;rounded=0;entryX=0.5;entryY=1;entryDx=0;entryDy=0;" edge="1" parent="1" target="U3aALWCIoYY-u2YIZw2X-72">
          <mxGeometry width="50" height="50" relative="1" as="geometry">
            <mxPoint x="-27" y="130" as="sourcePoint" />
            <mxPoint x="-21" y="170" as="targetPoint" />
          </mxGeometry>
        </mxCell>
        <mxCell id="U3aALWCIoYY-u2YIZw2X-127" style="edgeStyle=orthogonalEdgeStyle;rounded=0;orthogonalLoop=1;jettySize=auto;html=1;entryX=0.5;entryY=1;entryDx=0;entryDy=0;" edge="1" parent="1" source="U3aALWCIoYY-u2YIZw2X-123" target="U3aALWCIoYY-u2YIZw2X-125">
          <mxGeometry relative="1" as="geometry" />
        </mxCell>
        <mxCell id="U3aALWCIoYY-u2YIZw2X-123" value="Softmax" style="rounded=1;whiteSpace=wrap;html=1;arcSize=8;fillColor=#0050ef;fontColor=#ffffff;strokeColor=#001DBC;" vertex="1" parent="1">
          <mxGeometry x="-105.5" y="45" width="149" height="30" as="geometry" />
        </mxCell>
        <mxCell id="U3aALWCIoYY-u2YIZw2X-125" value="1" style="rounded=0;whiteSpace=wrap;html=1;fillColor=#60a917;fontColor=#ffffff;strokeColor=#2D7600;" vertex="1" parent="1">
          <mxGeometry x="-59.38" y="-10" width="56.75" height="20" as="geometry" />
        </mxCell>
        <mxCell id="U3aALWCIoYY-u2YIZw2X-126" value="Next token in Latex String" style="text;html=1;align=center;verticalAlign=middle;resizable=0;points=[];autosize=1;strokeColor=none;fillColor=none;" vertex="1" parent="1">
          <mxGeometry x="10.75" y="-10" width="160" height="30" as="geometry" />
        </mxCell>
        <mxCell id="MkLNhm7JsX2LDt27ea73-2" value="" style="labelPosition=right;align=left;strokeWidth=1;shape=mxgraph.mockup.markup.curlyBrace;html=1;shadow=0;dashed=0;strokeColor=#000000;direction=north;rotation=-180;" vertex="1" parent="1">
          <mxGeometry x="67.5" y="135.07" width="87.5" height="270" as="geometry" />
        </mxCell>
        <mxCell id="MkLNhm7JsX2LDt27ea73-4" value="&lt;b&gt;&lt;font style=&quot;font-size: 18px;&quot;&gt;N&lt;/font&gt;&lt;/b&gt;" style="text;html=1;align=center;verticalAlign=middle;resizable=0;points=[];autosize=1;strokeColor=none;fillColor=none;" vertex="1" parent="1">
          <mxGeometry x="145" y="250" width="40" height="40" as="geometry" />
        </mxCell>
        <mxCell id="MkLNhm7JsX2LDt27ea73-9" style="edgeStyle=orthogonalEdgeStyle;rounded=0;orthogonalLoop=1;jettySize=auto;html=1;entryX=0.5;entryY=1;entryDx=0;entryDy=0;" edge="1" parent="1" source="MkLNhm7JsX2LDt27ea73-5" target="U3aALWCIoYY-u2YIZw2X-14">
          <mxGeometry relative="1" as="geometry" />
        </mxCell>
        <mxCell id="MkLNhm7JsX2LDt27ea73-5" value="Patch Partition" style="rounded=1;whiteSpace=wrap;html=1;arcSize=8;fillColor=#647687;fontColor=#ffffff;strokeColor=#314354;" vertex="1" parent="1">
          <mxGeometry x="-431.5" y="520" width="147" height="30" as="geometry" />
        </mxCell>
        <mxCell id="MkLNhm7JsX2LDt27ea73-17" style="edgeStyle=orthogonalEdgeStyle;rounded=0;orthogonalLoop=1;jettySize=auto;html=1;" edge="1" parent="1" source="MkLNhm7JsX2LDt27ea73-12" target="MkLNhm7JsX2LDt27ea73-16">
          <mxGeometry relative="1" as="geometry" />
        </mxCell>
        <mxCell id="MkLNhm7JsX2LDt27ea73-12" value="Linear Embedding" style="rounded=1;whiteSpace=wrap;html=1;arcSize=8;fillColor=#647687;strokeColor=#314354;fontColor=#ffffff;" vertex="1" parent="1">
          <mxGeometry x="-431.5" y="390" width="147" height="30" as="geometry" />
        </mxCell>
        <mxCell id="MkLNhm7JsX2LDt27ea73-13" style="edgeStyle=orthogonalEdgeStyle;rounded=0;orthogonalLoop=1;jettySize=auto;html=1;entryX=0.5;entryY=1;entryDx=0;entryDy=0;" edge="1" parent="1" source="U3aALWCIoYY-u2YIZw2X-20" target="MkLNhm7JsX2LDt27ea73-12">
          <mxGeometry relative="1" as="geometry">
            <Array as="points">
              <mxPoint x="-350" y="475" />
              <mxPoint x="-350" y="440" />
              <mxPoint x="-358" y="440" />
            </Array>
          </mxGeometry>
        </mxCell>
        <mxCell id="MkLNhm7JsX2LDt27ea73-33" style="edgeStyle=orthogonalEdgeStyle;rounded=0;orthogonalLoop=1;jettySize=auto;html=1;" edge="1" parent="1" source="MkLNhm7JsX2LDt27ea73-16" target="MkLNhm7JsX2LDt27ea73-18">
          <mxGeometry relative="1" as="geometry" />
        </mxCell>
        <mxCell id="MkLNhm7JsX2LDt27ea73-16" value="Swin Transformer Block" style="rounded=1;whiteSpace=wrap;html=1;arcSize=8;fillColor=#6d8764;fontColor=#ffffff;strokeColor=#3A5431;" vertex="1" parent="1">
          <mxGeometry x="-431.5" y="335" width="147" height="30" as="geometry" />
        </mxCell>
        <mxCell id="MkLNhm7JsX2LDt27ea73-20" style="edgeStyle=orthogonalEdgeStyle;rounded=0;orthogonalLoop=1;jettySize=auto;html=1;" edge="1" parent="1" source="MkLNhm7JsX2LDt27ea73-18" target="MkLNhm7JsX2LDt27ea73-19">
          <mxGeometry relative="1" as="geometry" />
        </mxCell>
        <mxCell id="MkLNhm7JsX2LDt27ea73-18" value="Patch Merging" style="rounded=1;whiteSpace=wrap;html=1;arcSize=8;fillColor=#647687;strokeColor=#314354;fontColor=#ffffff;" vertex="1" parent="1">
          <mxGeometry x="-431.5" y="280" width="147" height="30" as="geometry" />
        </mxCell>
        <mxCell id="MkLNhm7JsX2LDt27ea73-19" value="Swin Transformer Block" style="rounded=1;whiteSpace=wrap;html=1;arcSize=8;fillColor=#6d8764;fontColor=#ffffff;strokeColor=#3A5431;" vertex="1" parent="1">
          <mxGeometry x="-431.5" y="240" width="147" height="30" as="geometry" />
        </mxCell>
        <mxCell id="MkLNhm7JsX2LDt27ea73-21" style="edgeStyle=orthogonalEdgeStyle;rounded=0;orthogonalLoop=1;jettySize=auto;html=1;" edge="1" parent="1" source="MkLNhm7JsX2LDt27ea73-22" target="MkLNhm7JsX2LDt27ea73-23">
          <mxGeometry relative="1" as="geometry" />
        </mxCell>
        <mxCell id="MkLNhm7JsX2LDt27ea73-22" value="Patch Merging" style="rounded=1;whiteSpace=wrap;html=1;arcSize=8;fillColor=#647687;strokeColor=#314354;fontColor=#ffffff;" vertex="1" parent="1">
          <mxGeometry x="-431.5" y="201" width="147" height="30" as="geometry" />
        </mxCell>
        <mxCell id="MkLNhm7JsX2LDt27ea73-30" style="edgeStyle=orthogonalEdgeStyle;rounded=0;orthogonalLoop=1;jettySize=auto;html=1;" edge="1" parent="1" source="MkLNhm7JsX2LDt27ea73-23" target="MkLNhm7JsX2LDt27ea73-25">
          <mxGeometry relative="1" as="geometry" />
        </mxCell>
        <mxCell id="MkLNhm7JsX2LDt27ea73-23" value="Swin Transformer Block" style="rounded=1;whiteSpace=wrap;html=1;arcSize=8;fillColor=#6d8764;fontColor=#ffffff;strokeColor=#3A5431;" vertex="1" parent="1">
          <mxGeometry x="-430.5" y="160" width="147" height="30" as="geometry" />
        </mxCell>
        <mxCell id="MkLNhm7JsX2LDt27ea73-24" style="edgeStyle=orthogonalEdgeStyle;rounded=0;orthogonalLoop=1;jettySize=auto;html=1;" edge="1" parent="1" source="MkLNhm7JsX2LDt27ea73-25" target="MkLNhm7JsX2LDt27ea73-26">
          <mxGeometry relative="1" as="geometry" />
        </mxCell>
        <mxCell id="MkLNhm7JsX2LDt27ea73-25" value="Patch Merging" style="rounded=1;whiteSpace=wrap;html=1;arcSize=8;fillColor=#647687;strokeColor=#314354;fontColor=#ffffff;" vertex="1" parent="1">
          <mxGeometry x="-430.5" y="113" width="147" height="30" as="geometry" />
        </mxCell>
        <mxCell id="MkLNhm7JsX2LDt27ea73-31" style="edgeStyle=orthogonalEdgeStyle;rounded=0;orthogonalLoop=1;jettySize=auto;html=1;entryX=0.5;entryY=1;entryDx=0;entryDy=0;" edge="1" parent="1" source="MkLNhm7JsX2LDt27ea73-26" target="U3aALWCIoYY-u2YIZw2X-42">
          <mxGeometry relative="1" as="geometry" />
        </mxCell>
        <mxCell id="MkLNhm7JsX2LDt27ea73-26" value="Swin Transformer Block" style="rounded=1;whiteSpace=wrap;html=1;arcSize=8;fillColor=#6d8764;fontColor=#ffffff;strokeColor=#3A5431;" vertex="1" parent="1">
          <mxGeometry x="-430.5" y="73" width="147" height="30" as="geometry" />
        </mxCell>
        <mxCell id="MkLNhm7JsX2LDt27ea73-32" value="" style="labelPosition=right;align=left;strokeWidth=1;shape=mxgraph.mockup.markup.curlyBrace;html=1;shadow=0;dashed=0;strokeColor=#000000;direction=north;rotation=0;" vertex="1" parent="1">
          <mxGeometry x="-463" y="66.75" width="40" height="42.5" as="geometry" />
        </mxCell>
        <mxCell id="MkLNhm7JsX2LDt27ea73-34" value="2" style="text;html=1;align=center;verticalAlign=middle;resizable=0;points=[];autosize=1;strokeColor=none;fillColor=none;" vertex="1" parent="1">
          <mxGeometry x="-473" y="75" width="30" height="30" as="geometry" />
        </mxCell>
        <mxCell id="MkLNhm7JsX2LDt27ea73-36" value="" style="labelPosition=right;align=left;strokeWidth=1;shape=mxgraph.mockup.markup.curlyBrace;html=1;shadow=0;dashed=0;strokeColor=#000000;direction=north;rotation=0;" vertex="1" parent="1">
          <mxGeometry x="-465" y="147.5" width="40" height="42.5" as="geometry" />
        </mxCell>
        <mxCell id="MkLNhm7JsX2LDt27ea73-37" value="6" style="text;html=1;align=center;verticalAlign=middle;resizable=0;points=[];autosize=1;strokeColor=none;fillColor=none;" vertex="1" parent="1">
          <mxGeometry x="-475" y="155.75" width="30" height="30" as="geometry" />
        </mxCell>
        <mxCell id="MkLNhm7JsX2LDt27ea73-38" value="" style="labelPosition=right;align=left;strokeWidth=1;shape=mxgraph.mockup.markup.curlyBrace;html=1;shadow=0;dashed=0;strokeColor=#000000;direction=north;rotation=0;" vertex="1" parent="1">
          <mxGeometry x="-468" y="231" width="40" height="42.5" as="geometry" />
        </mxCell>
        <mxCell id="MkLNhm7JsX2LDt27ea73-39" value="2" style="text;html=1;align=center;verticalAlign=middle;resizable=0;points=[];autosize=1;strokeColor=none;fillColor=none;" vertex="1" parent="1">
          <mxGeometry x="-478" y="239.25" width="30" height="30" as="geometry" />
        </mxCell>
        <mxCell id="MkLNhm7JsX2LDt27ea73-40" value="" style="labelPosition=right;align=left;strokeWidth=1;shape=mxgraph.mockup.markup.curlyBrace;html=1;shadow=0;dashed=0;strokeColor=#000000;direction=north;rotation=0;" vertex="1" parent="1">
          <mxGeometry x="-468" y="328.75" width="40" height="42.5" as="geometry" />
        </mxCell>
        <mxCell id="MkLNhm7JsX2LDt27ea73-41" value="2" style="text;html=1;align=center;verticalAlign=middle;resizable=0;points=[];autosize=1;strokeColor=none;fillColor=none;" vertex="1" parent="1">
          <mxGeometry x="-478" y="337" width="30" height="30" as="geometry" />
        </mxCell>
        <mxCell id="MkLNhm7JsX2LDt27ea73-43" value="" style="shape=image;verticalLabelPosition=bottom;labelBackgroundColor=default;verticalAlign=top;aspect=fixed;imageAspect=0;image=data:image/png,iVBORw0KGgoAAAANSUhEUgAAAlgAAAJsCAYAAAAhjd1nAAAAAXNSR0IArs4c6QAAAARnQU1BAACxjwv8YQUAAAAJcEhZcwAADsMAAA7DAcdvqGQAANq1SURBVHhe7N0HeFRFFwbgLwm9g/QOUqVJ74QO0kEQhF9AwAIoIkVAWuggoCIiYEFAuiC9995Reu+9906y/57J3BCSTbJJdjdbvvd5xtw7dxPiZnf23ClnvExmICIiIiKb8dZfiYiIiMhGGGARERER2RgDLCIiIiIbY4BFREREZGMMsIiIiIhsjAEWERERkY0xwCIiIiKyMQZYRERERDbGAIuIiIjIxhhgEREREdkYAywiIiIiG2OARURERGRjDLCIiIiIbIwBFhEREZGNMcAiIiIisjEGWEREREQ2xgCLiIiIyMYYYBERERHZGAMsIiIiIhtjgEVERERkYwywiIiIiGyMARYRERGRjTHAIiIiIrIxL5OZPiaKlpcvX+LWrVv6jMj+kiVLhvjx4+szIiLnwQCLbObgwYMoWLCgPiOyv3nz5qFRo0b6jNzd9evXkSZNGn1G5NwYYJHNBA+wypYtq74S2cPWrVvVVwZYniMgIAAlS5bEnDlzkC1bNl1L5LwYYJHNGAFW/fr1sWDBAl1LZHvdu3fHqFGjGGB5kL///hsffPABPvvsM0yYMEHXEjkvTnInm2GsTkT24O/vj65du6rjiRMn4tKlS+qYyJkxwCIiIqc2Y8YMXLx4UZ9B9V4SOTsGWGRzXl5e+oiIKHpkdXL//v31WSDpxZIJ70TOjAEWERE5rT///BNnz57VZ4GePXuGH374QZ8ROScGWGQznINFRLYkgdTAgQP12Zt+/vln3LlzR58ROR8GWERE5JR+/fVXXL58WZ+96fHjx/jpp5/0GZHzYYBFNsc5WEQUXRJADRkyRJ9Z9uOPP+LBgwf6jMi5MMAiIiKnI0OAN27c0GeW3b9/H7/88os+I3IuDLDIZjgHi4hsQQKn4cOH67PwScoG6e0icjYMsIiIyKnI0N+9e/f0Wfhu376N3377TZ8ROQ8GWGRznINFRFElAdPo0aP12WsJEiRQX+PFi6e+Bvfdd9+pFYdEzoQBFhEROY0OHTrg4cOH+gxImzatCrh69+6tzgcPHow+ffogYcKE6lxcvXqVebHI6TDAIpvhHCwiio5r165h7ty56jhOnDhqArskGe3SpQt8fHxUfeLEiTFo0CCcO3dObfptGDFihMr6TuQsGGCRzXGIkIiiQia258iRQ2Vvf/ToEdq3bx80JPjq1Sv1NVasWOprypQp1dDglStX8Omnn+Lp06eYPn26ukbkDBhgERFRjJPep4oVK+LIkSNo3bo1YseOra8E8vf3V1+NnixDunTp1N6Ep06dUvO32JNOzoIBFhERxTgJqBo0aBAqgDKEFWAZMmXKhK5du7IHnZyGlznaZ7gfAyT78MmTJ/VZ+KRLvFChQvosYvv37w/qTo9Izpw5kSRJEn0WvosXL4ab+O/YsWP43//+h8qVK+OPP/5A1qxZ9ZXwSQ4b+V5rSONZpEgRfRaxQ4cO4fnz5/osfNmzZ0fy5Mn1WfhkUq0MTVgjadKkatjDGvK7yu9sDZmj8s4774T5gePOZO6N5D+aN28eGjVqpGvdn0z+ltfdixcvVLFWokSJkDt3bn0WPmk7pA2xVoECBdRr0RrS5lmbeT1DhgxqgrtBJrkPHToUM2fORLNmzXRtIOm5kjlZ1ogfP75631hDPh737dunzyImP1d+vjXOnDmDu3fv6rPwyfMgz4c1JIeY9OZZQ4LaggUL6jOyOQmwyPFWrVolga1VJXXq1Pq7rJMqVSqLP8dSWb16tf6uiH399dcWf4al0rp1a/1dEduzZ4/Fn2GpmBsE/V3WMX+oWPw5lsqcOXP0d0Vs4MCBFn+GpVKvXj39XRE7ffq0xZ8RVnn27Jn+Ts/SrVs39f9vDrB0jXsxBzmmnTt3moYPH67eS2XLljWlSZMm1N/f2lKxYkX9kyN269Ytiz8jrHL58mX9nRGrUaOGxZ9hqYwYMUJ/V6AePXqoekvv06lTp4b6/rCKOaDQ3xUxf39/iz8jrHLw4EH9nREzB4kWf4al0rNnT/1dEVuyZInFn2GpZMqUSX8X2QOHCG3E/FxafddAZAvSaxA3blx9Ru7k448/RsmSJWH+YMXkyZOxdetWXL9+XV/1TEavvCf22DqLb775Rq3W5GeddRhgRZMMb40bN04NW+XJkyfCvbOIbEWGHiNDlsBbO3RMMUuG2elNxhwsYxUhOZas0pT9ISXol6kl5cqVw+rVq7moIBycgxVF8rTNmDFDRfTB5+L89NNP+PLLL/VZ2GQuwqRJk/RZ+GT+hJFkzxqSiM/avbnatm1r9fygpUuXYsuWLfosNPkAl7ttmeshv0Pjxo31lfBdvnxZvXGtIXev8rOt9f333+PmzZv6LHzNmzdX80mssW7dOtW4WCNv3rxo2bKlPgvfnTt3MHLkSH0WNnn9yetCEi5a67333lOvu2+//RYfffRRqFVarsTd52BJb1Xw+Ufyus+WLZv6YJO5jTLPR/5+1k7olvmFn3zyiT4Ln7QdkXmP9erVy+p5nNLmWTv3tGbNmvD19dVnQKdOnTB27FgsWbIEtWvX1rWBZJ7U33//rc/CJ8/rV199pc/CFxAQEKm2V35u8L9beGQu2YEDB/RZ+OR5kOfDGjKfdcqUKfosfHKTJgGTNZYvX45atWrps9ck0PLz81M3BVxgEIIEWBQ5u3fvNpUpU+aNsWyjlChRQj/K8xhzqZo0aaJryFnI3JDgr9N33nnH9O+//+qrrsfd52AJcyBsMgckpuPHj5tevHihaz1X+/bt1d/c/EGva8iRhgwZ8kYbErJUqFDBtGnTJv1oEhwijIRbt26pHh9zEIVt27bp2tdkmFDyt5ifV11D5Byktyc4yTUkr2OZT2EMvZBzMX+gqblYuXLlcuneRlvhEGHMkp5vWfkoyV0trRA3B1cwB1n4+uuvuS+kxgDLSua7fRQrVkx1cYcMoEqVKqUCrr1796rMw+wmJWfTtGlTFVAFJ4kdZXigUqVKVi9xp6iRoabFixfrM4qKiPJgkf3JMLUMzx8/fhy//vorMmfOrK+89uOPP6JatWrsaDBjgGWF7du3o2zZsjh//ryuCSQZhKdOnapW+JQuXVrXei6+oZyXzL/asWMHFi1aFGqOyObNm1UunAULFugasiXJdVS3bl3Uq1cPs2bN0rUUWcYCDfZgxTxZwSxz+mQ+3YQJE1SS1+A6d+7MjgYzBlhWkKE/6b0yyBtcJnaeOHFCTRb29ubTGBzfWM5J/i7yQX/w4MFQE8MlgaUsSuBebrYlCzik53DZsmXq3PhQoshjD5bzkUDrs88+UxPrP//8c1Uni7zef/99dezpGBlYQXINzZ8/X63gSZUqFdauXasyCssqLiJXI5vkzp07V634TJw4sa4N/ACTG4bDhw/rGooOyS5evXr1N3IGyQbG8rxT5DEPlvNKkCABxo8fr1ZWW7MK2lMwwLLSW2+9pe5CZZ6VTOSj0DhE6DqkN6tVq1ZqSxS5cTDI/Il8+fLpM4oq6RGUJe2ymMAgPd0yQTgyKRDoNU5yd35Vq1Zl8uNgGGBFguSLCjnWTOTKZNKqrP6ROViSMFdyDVH0yAoq2bR4165duiYwuJL5VzJBmEPoUcMhQnI1DLDI5vgB4lpk0vvu3bvRoUMHXUNRJasFJWGtJKINTlZcNWnSRJ9RVHCIkFwNAywiUpNVKfpkRwKZrxmczEmR/HkUPRwiJFfDAItshnOwyJNJbqAePXros0Cy2rhbt276jKKDPVjkahhgkc1xiJA8kWz0Lis0DbJ3nGRjJ9vgHCz3IXvaWtoNxd0wwDKTnhf2vhBRdJQvX16tGvziiy/UquPff/+dNxs2IhtQP336VB0/efJEzXUj13Pv3j2VL0veK5ITTnaTcGcMsMw2bNiAKlWqvLHqh6wnuX327NmjMoWLK1euYP369bh48SIDV/Ioklds7NixKvdVhgwZdC1FhgwFrlq1Su19J9s4pU6dWuUclB0zhKx4lXNJAC0f0lOmTFE5x8j5SaLjiRMnqmO5GZE5i27N/AHo8WQXcHkqpLz//vummzdv6itkiezsv3DhQlObNm1MuXLlCnruLJUkSZKYatSoYRoxYoTJHHDpn0AUPd26dVOvr3nz5ukacnWXL1829erVy5QmTZo32pB48eKZ3nnnHZM5qFLncpwyZco3HhM7dmxT48aNTVu2bDEFBATon0jOZvHixW/83czBs+n58+f6qvvx+ABr48aNb/zBM2bMaHr27Jm+SsHduHHD5Ofnp94UwZ+znDlzmurXr29q1KhR0HnLli1NpUuXNiVMmDDocd7e3ibzHYxpw4YNbARdjLwnJk+ebDp37pyuiVkMsNzHw4cPTV27dlVBkvxNfXx8THXq1DH99ttvpiNHjphevXqlHle+fHl1/dKlS+r82rVrpgULFpi++OIL01tvvRXUzvj6+poOHz6sHkPOp2bNmkF/KymzZ8/WV9yPxwdY7dq1e+OPPW7cOH2FDNLA/fTTT6bEiROr50gaQAmo5s6da7p9+7Z+lMm0c+dOdb1Zs2a6xmR6+fKlac+ePaZvv/3WlCFDhqDnWRpQZ/mwprDJ37d///5BQbX8HZ0BAyz3IDe4mTNnVn/LpEmTqteX9GRZEjLACk5uAKZOnWrKly+feowEa0OHDg0Kzsh5rFq1Sv2NjFK5cmV9xf14dIAlb75UqVIF/aGlC/rJkyf6Konz588HNWyxYsUyffXVV6rOEksBVnAytDhjxgzVw2U839Irwt4s5yXDutLzaLxH0qZNq/6OMY0BlusbOXJk0GuradOmpqtXr+orloUXYBnkhu6HH34wJUiQQD22atWqpvv37+ur5Az8/f1N2bNnV38foxw7dkxfdS8ePcldJk3evHlTn0HtHRY/fnx9RuaACYULF8bmzZtRrFgx/Pvvv2qvOvMdp35E5JjvKvHhhx/iwIED6Nu3r1oV1Lp1a7X7OlcFOaeMGTOidu3a+gy4du2a2lqHKKrMnzvo06eP2jZI2tvp06erbYRkR4HokiSknTt3xr59+/Duu+9izZo1agHT3bt39SMopsm2UZ999pk+CyQ7Hbgjjw6wQmZcbtiwoT5yXhKISDFywtiL5CmRhunOnTvo0qWLylmSP39+fTV64sWLh4EDB6oP6jRp0qg98CTTNYMs59SyZUt9FEheG+RaHNVuWGPYsGEqP1iKFCnUlkKytZCt5c6dW7UvFStWVCuc5SZBVjuTc5Aba7nhNshKUGd4bdqaxwZYchf1zz//6LPArUKkB8uZSZBToUIFFCpUSOURsdcLUnqqpEGS3DMjRozA6NGj33gz2EqZMmXUh7X0iE2ePFndeZLzkddacMZyeXINkj5F2g1JbyBfbXkjI+2opLl58OCBrgnfggUL0Lt3b5XOQlIxlChRQl+xPfk3li5dinLlymH79u0qpYP8vhTzJPVG/fr19RlUmg0Z2XA3HhtgHT16FBcuXNBnQNWqVZEkSRJ95pzy5s2L4cOH49ChQyrHjnS12po0lO+//776Kr1M33zzjb5iHzly5FDd+NKTJfmDpk2bpq+Qs5C/zdtvv63PoD6sJFcRuYY8efKo/RAPHz6shnzDS34qAUhEQYj87SVok/dq48aNVa4qGTqOyNWrV4P2ZPz7779RtGhRdWxPCRIkwOLFi5E1a1Y1DMn2xXnIZ25w7jj1wGMDLGlsggv5x3ZGyZMnD9omwtfX1y5Zor/++mucPXsWH3zwgZon4Qg5c+bEvHnzVMDYoUMHlaCUnEvZsmX1UWBi2YMHD+ozz3TixAl07NgRU6dOVXsQOvPwdrJkyYJuxiJqN6RXX254wvPs2TN1oyfznO7fv69rIyY91DLlQL7WqFFD19qf/P/LPC/5/5b27datW/oKxSTpTRWZMmVCo0aNVBDsbjw2wDp27Jg+CiS9Q65g48aN6qvcNdqadPVPmjQJ6dKlw4QJE+wSwIVFPsB79uyJhw8folOnTrqWnIUMswTn6cOEsuvDL7/8glatWqkeovHjx+srzsloN2ROUnguXbqE69ev6zPLJIu6zF/9/vvv1Vwna8jrZc6cOciSJQsGDx6sax1HpiNIQCxDUQMGDNC10SNTNDjkGHXyvpFeTRlJkhvs4EOG7sJjAyzjA71Zs2YoVaoU3nnnHX3FecmbWbpR06dPb3XDZi352T169FDHslJQesscTXrMZChK5mnIMFR0Sa+CNUMXFLGQc2WkB8eThezBy5cvnz5yPvLelpXA0m7kypVL11pmbcAQ2ZsvGaIUgwYNQsKECdWxo0lgJf+23ERGZ2sdGSKVnstu3bo59CbU3chzZ4uVo87MYwOsypUrq9UsM2fOVB/mUU094EiyMaZMCpduflvvKC93mHJXLkubmzRpomsdS5ZsS/oGIRPro0oCq7lz56o5HtZOvqXwyTys4KLzAeUOZB5kcAUKFNBHzkfaDQmwZEgmonbDHj0yMuS/aNEiFeDJDW1MkVWLbdq0UZtFS4AUWRJY/fHHH2rBj/Rc2mP1I7kXjw2wXJHMeZAhNHvMvzLykMj8iJi8K5M8WfJhLr1YEQ1VhGQEVvIhIkGifOhFdMdO1pEPp+A8PcAK/v8vQ2ZvvfWWPnM++/fvV3Ol7DVvMyIysVwCt48//tguq5EjQ1YSClm1bC0JrCSNgAxptWvXTtXJzVvx4sXVMVFYGGC5kPXr16uvtp5/JXd0MgYuy5pjqvfKIOky/ve//6n5DdK7aA0jsJJl6MF/f0dN0vcE8nc5c+aMCnplkvuyZcv0Fc8kSXINzp6cWOZWiuDthgQ88h4LWcK7Fl7vVnjXVq5cqb7GZO+VQW66ZDqIpASIaPqABFYSiMl0DMnbdPr0aX0FTj/njpwDAywXIQ2YNJQylBl8ybwtyNCgBFmyskeWNcc0WVEijIAyLCEDq+ArQyVIY++VbWXLlk3lr5F5LPZIEeJKZCWdwZkDLGk3ZIK7pGcI3m6sXbtW9WiFLD/99JOaJ2Xp2n///ae/O7SwAiwJUqR9kR5QZ5nnaqxek7yClsiQ6p9//qkCK+l1kxuL4CRHIHuvyBoMsFzE8+fPg+ZfyYdbeHeMkWVMKA+5UiymSPd73Lhxw5zoHl5gJWQYxJjLRWQPL1680EeBW0A5K2P+lbQbMnRutBuyS4MsmAlZZAWvvHcsXZP5mWEJqz06deqU6u2TLbecJSg38m+FTGwZPLCSuVohAytD//799RFR+BhgxQC5q7O2SDAhjF4maSgl745MtrQVY8JueA2oI0lwJWkzZJ/IGzdu6NqIAysDe6/IkRw1r0mG6Sy1EZaK0W7Irgyy0EN6bYK3G/I7S8ATsoR3Lbz/z7ACLPk3hTOlwTF+F+N3k8BKVhZKmyGBleQBDAt7rygyvMxvDNt1hZBVZPuZfv366bPQ5E8ijaTcccodlQQMP/zwg9oTUIIKCTKkMbDVnIbSpUurzMyXL19WK32iSoLAkiVLqt/L2vlTYZGfMXv2bNWNLz9TEiD6+fmFGVQZ5ENAcpwxwHJvslHwqFGj1NxBY0jZkWS49Ny5c+pYdiM4efKkOranOXPm4KOPPtJnoRnthgRDsr+nbKgrubok/5P01sjCEUnqG167Ie1MqlSpVJsTHuNj44svvlD/hrwvjcAleCD2119/qb0sZdV2tWrVdG3UTJw4UT3nkl4nadKkujbyZB6hpKJ577331K4VxsR1a0gPn7HiPGTA6U7nsu+sfC5Q9DDAigGy/YyRF0buLKW7XiaYS9I1o17IfCgJWiTHjnTRS++VzJGQ4EXmUNhq7ofsbSgNcJ06ddRu9FElO9bLfA/Zxie6d3ly533+/HkViErDau2KQplrUqxYMX32WsjGJLioXHOGn/fzzz879eo1e/LEAEuS/7Zv314dFylSRPWmSJZyWSEo21oZZEGC3JjIUNjOnTvVB6UkBf37779Vlvbw2g1rAizpSZOeHtmrVN7vkhld8qRJElFJFtmiRQv9SKges8gEMI4k8wmD95DTaxJIjhkzRp9RVDHAigGyVPj3339Xd3bSNS09VdJYSbAlqRgM0nslq1eE/JmksZQiw2PR6WkKSQK4I0eO6DPnIh9k4XXZezLJgCzbTHiimA6wJNAxPpxl5wMJdu1t6NChaqNk2dZLVnHK3C+ZCyab1MsNl0FuwqRnSQJzaTfkJk16qKW3Rm5AwmNNgCXDj7t371Y3Y/JvGP+OBF4S8GfPnl0/MjBFg/S6STAY3Uzd3333nZrTJSMA0UmEfOXKFdUbLr+TBH/yt7Q2IbEkF5U2ydLHZsi66J4LR//MJUuWqLm+jgqwZOuk4FujSe9gTCS5thcGWA4mT7dskCpDXhLUSLe6NFjSnS9Bl+HTTz9VS4Glu9/e5E5XAjuZDBudDa8lu7U0zDVr1lSNYHRIigXZpFVWEsodstyhW7P/nXzYyfcFn3gc3ks8rGuO+h4R2Z8n253IxGEGWDEXYMWErl27qp6oFStWqBW/8vqQCelDhgzRjwgcWpegJqKEomGR51M+4GRIzxbkvVivXj0VxMhQYnTIDai0UbKdj/SSR5UxGiCJQmWPQml/Fy5cqCavR9TGSNu2fPlyfeZ+JMCqW7euwwIsyS9mdCIIee0G7wF1eeY3qUdatGiRaebMmaqYGwFda3/muzyT+QPSFC9ePJP57lPVmQMr+SQNKuaAx/To0SN1zRGqV6+u/t3Dhw/rmqjZuXOn+jnmRl7XRF21atXUzzp06JA6l+fN3PibChQoEPQ8hVXk+XRn5g8H9f9pDrB0jefp1q2beg7kNeEpPv74Y/X/fPnyZXUu7ZbxmpeSO3du0507d9S1qDIHG6rYyokTJ9TvJm1edJUvX179LHOApWuiZsKECernDBo0SNcEMtqY/PnzBz2nloq0c+7KeE2ZAyxdY1+TJ09+47k1B1j6invw2FWEEqFL1nApssO6o0h3ukTt0nsld5l79+5V3fkGuXuUOVYyT0K63KXYm5GfJuT2HzFJJs3KEIRMyhXSkyc9FZKLR+6yw9uaRPL4yMogIncimyTLHpCy04EkvZTtWgzSXsyaNUtN/o5Ou2EM+dmKDBdKpnvpIXdEW2YNGd4Usho5OKONkcz3spAorP0lbbVZNLk/pmlwMGm8ZJxZxvFlUnjTpk3fSFoo864kqJBGQCaNOmJuh0yYFTJXwxnImLzMk5AgSibsBmdNoCWT46Oy1xiRM5N5l9I2yLwrGUaR+SsGWTUoaVZkBa20G8EXy8QkuYmUVcCSKiJk3qmYYDIFbpgvypQpo76GJG2MzFeT31cWBoQMtGT+mxGkEYWHAVYMkeXUMs8q+PYLvXr1UvMVxNGjR1XaBEdkVjcSjAafKBuT1q1bp76WLVtWfbUkokBLJq+yF8u25ANJ7vqluNU8CRci84V69OihFrsY2rZtG9SbJT1c0m5ILjlnIekQxIwZM9TXmCQjBrLiU1Y5p0yZUtdaJm2MzJeVQEtSZATPRP/ll1/qI6KwMcCKAXIXJRN0ZaK7QVI1yMoWY0WOsX+XrOixt6xZs6oPTQlWrJlIbm9G71PDhg3V1/CEF2ixF8u2ZNhWXh9SZDUXOZ4MA44dO1afBSYHlpxO8j6QdkMmwAtHtBvWkmBcerJkakTw3vqYYGxqH3x4NSLy3MrKbXndyyRs2SpKAtw9e/boRxBZxgArBkgPjSy3NsjSaQkGZDhM7lDlutwxiYjusmxBgjrZc0tEd6VPdMkQh/z/S9Anq+WsFTzQkjtlCRhlzgp7schdSK+2rDY2yHwrea3LHCdpN+QDX4IY4UwBVtq0aVVPkOzMEJM3PZJLT/59WSkdXsLWsEgbI8Gi5B2TebIyT4soPAywHOz27dvq7kkaRINkHR82bJga1pKeLMlzY1yXZHiOIAGWJDuV3eMl4WlMMeaOyCIEadAiS75HFi5IotLRo0erIQEiVyc3ChIUPHr0SNcAefLkUalcZKqBDMNJsk+jh8hR7Ya1JK2GkFQI9+7dU8eOJhngZU9XCVKjk45GeuMkHYbkJSMKDwMsB5MAS0hCPimyy7z0ukg+FhkylBUsspLQKLJiyBHkbrhDhw6qgZZ8OzFBut1lkr/02sm8kugwerRKlSqla4hclwQGkg9O2gsp0jbIfCvZikYmYssCFcnqbhRHtRvWklx7kv1dEnoawZYjrV69Wt08Sp684KMH0RGVG0DyLHyFOJisApJVbtLQSJFuaymSFdpSkV4lR5HknpK4Urq/Zd8yR5LEmdIAyzwS6XmKzh0mkbuRYUBZEBOyvZBhN0tFhuWcjWRilwBHEio7cnhNni9jzpVMgYjOPoZEkcEAy8FkvpN0MUuOJ2uKI++SpBE3sslLD9KZM2fUsb1JUCWrciQ3mAx1RGV+BJEjyXtDepCkOGorJ2dtN6wlPfYyB0raQHmPyz6G9ibDkZJ9XaY9yBZlDRo00FeI7I8BFr2hevXqar8tybEju9/Lkm97kuDq22+/VZvCyt2tdONLA0zkzGSuZO7cuVWR9wxZR+aXSs4umYogewHK5tP2IkOq8u/JFAxpy4KvviTnID2L8hlgFHdL/2LXAEveRJJVO2Qx8hzFJBmqk7wmUmQ3fHpt+PDhap8uuUsvX778G7m6bEkm8st8L/n3ZF7JqlWrnG5yLhHZluxLKNMAZIN7CbIkmbJ8uNqSLG4pXbq0+ir7Ks6fP9+pcoORZ7B7gNWvX79QRSYcxjT5MJe8PlLcefPOqJChCOlJkiBLhj8kKZ/kmLIlmX8mjauxe7/cyebPn19fJSJ31qVLF9VrLWR6gGxebYsbOZnLKZ8xElxJrjbJX7V06VKVu4rI0ThESBbFjh1brVCSrNGypY/ksZFtfWQLm+iQ/cikYZWeQ0mKKEHVli1bULhwYf0IIvIEsqhFVj/KVjRy0y1fJYWC5PuKLMlNJTdrkrpCRkkkp+CECRMwe/ZsxIsXTz+KyLEYYFGYZKKsDN9J4yf7m0nyU9lDUfJ1Sdd7ZLr1JUiTuRd58+ZV3y8NYufOnVUDK3nAyPlJFmwJuqXIrgNE0VWoUCG1EbTklJKgSF5jcvMl2zKNGDFC3XzJPoYhSV4wGX2QmzXJeyerJqVX7MKFC2ofQSMpK+dzUowyf0jajflDVT6BQ5WePXvqR5CrePTokal3796mpEmTBv0dzQ2hqWPHjqapU6eazAGXaenSpaq+QYMGplOnTpmWLVtmMjecplq1apnixo0b9H1VqlQx7d69W/9kiixfX1/1PJo/THSN5+nWrZt6DubNm6drHCtr1qxBr+ccOXLoWoqOe/fumUaNGmXKnTt30HNrlDRp0pjixYunjtOlS2eKHTv2G9elXfr8889NR44c0T+NomLx4sXq+ezUqZOuoehgDxZZReYwyNYzFy9eVJNSixUrptIqSK9Uy5YtVSJBmVMlJIeWLBwwB1ZqhaDsPh8/fnw1uVUyrMt8K/l+IiKD5KeSRS/S+2S+AVP7tcrUBBn2k3QLRpZ6yWsl8zZlhaBkZzcHBSoNg2S1lx5yImfBAIsiRRKfduzYUTWAly5dUpvPyjytunXrqv3/hKwIrFSpkso7IxvRyjCgJEWUJH+yOS0RUVhkWE9uwCTYkiz1EnBJcFWuXDl1XYYBJX2MTF2QLcbq1KmjbuCInA0DLIqyDBkyqInvMk9r0aJF+O2331S95AWSVBwyn+Krr75SqxBl0jwRUVRxPhW5GgZYRERERDbGAIuIiIjIxhhgERFF0rFjx1RSSymHDh3StUQUGQsXLlS5EI2yZMkSfcU9MMAiIook2XZFElhK4RYsRFEjq0ONHVWkSH5Ed+KxAdbbb7+ttoSRIhu2EhEREdmKxwZYstFw8EJERERkK3YNsBIlSqTyJYUskkeJiFyL5DT77rvvVJHtcoiIKGx2DbBixYqlEsaFLBkzZtSPICJX0b9/f5VUVopk8yciorBxkjsRERGRjTHAIiIiIrIxBlhERERENsYAi4iIiMjGGGARERER2RgDLCKiSGrQoAFKlCihyvvvv69riSgyypcvj+nTpweVsmXL6ivugQEWEVEk7d+/Pyiv34EDB3QtEUVG9uzZ0bx586CSNWtWfcU9eGyAJZtK7tu3TxXZcJKIiIjIVjw2wMqXLx8KFy6syjvvvKNriYiIiKKPQ4REZJWqVauiZs2aqpQuXVrXEhGRJQywiMgq8+bNw/Lly1WRfQmJiChsDLCIiIiIbMzLZKaPyc5evXqFCxcu6DP3IyurGjVqhDp16mDMmDG61v0kTZoUb731lj5zvIoVK2Ljxo3qtZQpUyZd61m6d++OUaNGqV41ec05WrZs2XDu3Dl1nCNHDpw8eVIdx6TPPvsM//zzjz5zP/fu3VNtaPLkyeHj46Nr3c/Nmzf1kePJ4q+6deuiU6dObt2GOwoDLAe6cuUKMmTIoM/IVXXr1g0jR47UZ47HAIsBliWyzH3mzJnqOF78hOqrOwn+UeXl5aWP3Mezp4/V15j8SGaAZVt2DbDkR7948UKfvSZ3H7FixdJnniN4gFWgWAX1lVzHwT2b1FcGWDGPAVZoRoA1eOIK5MxXVNeSq/iiSVHcvHqBAZYbsWuAJV260p0bUs+ePTFs2DB95jmMACt3wZIY+MsSXUuuYueGJfi+z8cMsJwAA6zQGGC5NgZY7oeT3ImIImn48OH4/fffVRk6dKiuJaLIOHjwoHovGeXw4cP6intggEVEFElNmzZF27ZtVWnSpImuJaLIkJ1UevXqFVT+++8/fcU9eGyA1aVLF7Rs2VIVGW4gIiIishWPDbDmz5+Pv/76S5UFCxboWiIiIqLo4xAhEVlFFmlcvnxZlRs3buhaIiKyhAEWEVklb968yJgxoyqy0oiIiMLGAIuIiIjIxhhgEREREdkYAywiIiIiG2OARURERGRjDLCIiIiIbMxj9yKMib3EHLsXoT9ubPoBi9bvxYULN2Fsue2dsj7aDv4Sb8fWFVbwP/sHfho6E9cDAs+946dF+iy5UKjhp0i6ewy2HzuNS5fu4GXg5UCxEiNlpuxIW7QtPnzvHfjo6lD8z2LH5PH498xJXLr20Pxbv8k7VlzETZAMSdPkRLaCVVGyYjmkTaAvOpin70WYNGlSPHjwQB2XKFECO3fuVMcxIab3Ivzzzz+DnotkyZKhVatW6jgmOXIvwoAryzB/xiKcPH0K94zGxSstSnebhPp54ugKK7w6jpUDv8T6y7px8UqIFFlyIEOJdviwxA0snbwAZy4ex9X7xj8SKFbCDEiXMRvyv98Hvm/H0rWhBVxejHmzVuPC+eO4+ThU64JYceIjXpLUSJW5APKUrouSRbIhnr7qaJ64F+GaNWvwww8/6LPAjfQrVaqkz1wfe7Dclg9SV+iGdv3/wKe1U+P2if04e3w/Tm+bgGVb7urHWOMxDs/7BTuPBn7/uZsZUO3bSfiiez+Uz5EWBT8chs8GTEKrUsAl83X1mHtZUfPb6ejWZzT+F15wJXyyoVTb79B+0K94P9dDnFc/4yAeJCmN0nXaokad+siX0YQLG8ZjxtCG6NK8AWZuuwzdHBPFiIEDB6Jz586qDB48WNd6Du/0tfB+twn4ukdzJLt+QL3vzx5bhaWzV+CRfow1nv37OxZv+Dfw+09eRcqGP6FL39FoUSMvvJP7ou7XP+Ar8/NbGMcCH2NuGx5maIv2301Bx2/8wg2uhHeGumjS9Sd8PaArsj0+pP+dm0hUqD4qv98WlSqXQ7qAw9gxexB+6VQWnb8cjH3XQwZiZC9Vq1bF0qVLg4o7BVfijQDr0KFDOHPmjD5zb5988gm6du2qiuwn5r4SIGP1+sgdV5+abmDX3Jm4YmUbEnBrIVasvQjjnsonVzUUTx/yDjURspYpj9QqkvJGsuLNUDZLJLuZvFMhf6kiSOAlJz5IW/pz1G34IXzrforGXWdg+MRRKJ7SG/63tmJB3+aYtve++jYiijlxszZG6QLx9ZkJ9zf9jg0XrG1crmH73Pm4Zdwt+RREkfJZECpkSpAfRYpmDvyw8k6Ngu81QoZIdjN5J6+Awu8kgWpevLOhSNOOqF6rKao06Y62I9dhcPdaSO79Enf/HYMfvhmAQw/VtxFFi/f9+4EfVEePHlXR5MWLF9W5u/v222/VEIMUGbJ0a7GTIUGChEiZLpVqYF4cmoJVB54EXgvXK1xaPAkH42XCW7obKla8BLA0uuidIJHuWvdCvES6IYskL/PvGDeMb4yTpQVat/aFasqfH8GKsRNw9pW6REQxJg4SJkqEuGkyI6lEQM93YfX8HXgeeDFc/menYdWeBEiZRodUseIjrsXRRR/EN7cNqmnwSogEiaLUuiBe/LBu+uIhQ+0heL9YInX24vTvmDr7QKjpCkSR5V2rVi21g3WNGjVw9+5dFC1qu7H7WLFioXLlyqHK22+/rR9BjuEFL6+4yFW3BbJKW+Z/Fpv/XoJ7EY2zPdmIFUtOImu95shuRFVeYTRuweq9vKI48hzWz1a8kcK3DnLpBtj/7Grsu8gmkCimeXt7IU7+/6FSTmkk/HF95a/YeSeixuURDs6bjss5P0Il400t7ZQ+CiWobZC2TB9GUvjNS3qU8C2hbx5f4tL21bjK5oWiyfv48eMoWbKk6rmS4Cp+fKO7N/oSme9s1q5dG6q0a9dOP4IcyTvz/1CjpPQumfBo+29YG24XUADurJ2EHc+rosZ7WcJu+BzIO2FmpEqmgzfTXdy/yy4sR5JFIbdv31Zl1apVupbIzDsHqjSspIb4TQ/WYMWiY+H2AAXcnI+V65+hcKMPkTqK92O25Y0E6TIiif5dAh7cxD0GWBRN3l9//TVevAhcoSErg3x8wp2STK7MKxVKN26ElNKIvDyAdXM34FngldBeHcaa+ZuQpHo7lEjmDOGVWcAjPHumZ4N5JUPiJHytOpKsCE6RIoUqsqKQ6DVvJK3yKcqmlcblBc4s/h1hz0J4hQsLJ+Ngssao6ZvCKW7eRMCTx3iumxfvxCmQ2CkCP3JlaojQULZsWX1E7skb8Yq0Q5W8MuM9ALfW/Y7N1yx35T/d9Qc2XCyCqo1KIBKLru3qxbHtOPU4sAX0TlsS+TKHv4KIiBzHK3451KxbWA2zma4vwIpVlyyv9n2yDiuWnUaO+h+/XnwT457h9P5/8UQ1Lz5IWbAc0rN5oWjyzpcvHxInTqxOKlSooL6SG/PJicrvV0NiuW18vBGrFu4330+GEHAJW+Ythn+5NqiY0Ul6iZ7+h6W/zoJaQe2VEoX/9xkik26HiOzNB+nrtkORpNK4PMTB+VNw5o3keMJ8Y7fqD+z0r4EatbIHrgx0As+Ojcfs5WdVQOiVrCoafFDS4mIeosjwNlPd/QULFkTKlCl1Nbkv89/b9xOUU4HTK1xc9iv2BuZLDPLqxF9Y/W9aVHi/JgLX1ThaAG4fWoBtW7fixOFdOLD6J4z/4gPMPvAApjiZULT9ZHSoncVpGmciCuSdvA5qVg8MnPzPzsTyrfcCLxheHsTaBduQvMYnKJZE1zma6SqOr52Pvft24+TBDdg6rRMGdBmOY49MiJ22OpoPHYuK6Tn9gKJPfUa9fPkS5cqV4/wrTxG3JKrXCxz6M91ehhX6zi3Qffw7bwZu5G+NamooMSZ4me+FH+HK3nlYOWMMlq7cgccZaqHWp2PQd9oWfNO8JBIxuiJyQvGQp2HLwKG/gOvYPW8WrgWbLP54x+9Yf7UYqjUIHEqMGT7wenIKh1b/gcXTJmDT/vtIU+EzNOs1H99Pm456BZPz5o1swlvS8vv6+qJx48a6ityfD9LXbotiyaUr/wmOLZiE4zpxTcDVuVi5CSje+AOdODQmeCFZ/v+hcafv8eWQ6eg1aga6DfwRLVs2R/70MbRPDlEwpUuXVlmnpZQqVUrXkvDO/CFqlA/Muff8wGSsPKSX0gRcwJZ/lgLlP0GFmOwh8kqNXHW7o1WPCegyYhZ6jZyCzj0HomHtckgdU/vkeKjHjx+rDAZGkXN34h07dmy1f5W7painCCSpiffey2kOtczt3qU5WL7hBgJk9c+iyTie9kPULM1VYkRhmTFjBtatW6fKX3/9pWspUHIUa9wUKobyP4PNcxZDcu69OjYVqw9kQsXGVZEw8IHk4ebOnYvMmTMHlQULFugr7kH1hMo8LE+zadMmrFy5UpXNmzfrWk8SFzkafIy8kvbMdAf75k3HpbursGLZFeRt2BLZHNB/73/n8uuNYonIbcTO2xrV35UwyoSH23/H+nO3sHfeLNwu9DGqBiUWtadXuHf9+psb0BM5mMcONcvu9zVr1lSlTZs2utazeKdvgpoV06qu/JfHpmDW979gj09d1Kye0f4vjIAb2DZpIk4xVyiR+/HJgvKN6yK5NCQv/sPqiT2wZLMPSjZuHJiHz84C7izA3Dn/crsbilEeG2CRSIoi7zdHZjVOeBl71/+HtLXaolC0pzkZW0OH7dmhCVj/vCjeCf5vBfu2iH8CETmzhKXboVJ2SSYVgNtbF+F0xuaoWSKq65JftwgRtw2PcWL2NDzPV0bvjxooMj+ByBa8/fz88Py5NVtzkut6jpcvpIS+n/PJ1RLViwfmQfNKVAnVG+RT87Le8OoZXupv9Tf/HEvJA00vXuh8WiY8ffQg3CbM/9oSTP5uFhIWq4A34quX5p+hvtFk/l2fqjpyHrVr10bFihVVad++va4lT/fihbl9MJdQ7UKsAqjSUG/Q7pUEhRq2QujcwK/M36u7sf3NbZSlxkXag5d6sM/0CE8ehde6vMLNDb3x67JkKPhGHggTXgX9jBd4aaRsJ7Ij78mTJ3vkHCxP8vLsIVx68hyXTx0LPSfBOwPKvd8AKc2vgZRV2qKMhf77ZycO4qpu+PwvHMa5UPF4AO4fP4Cb6jEBuLdzMpasW4dD/+3Asf2B5ei+Tdi34W+s+L0D+n36CTZcL4wixYNPpH+B6yeOILDt9Mf1U4cQ5k4bFCO2bNmCjRs3qrJv3z5dSx7txXGcP/sYL83twsVQ8ynNbUq1diidxhteaRqgRpW0oYdMnh7AWWPTdv9TOHfSwuZdATdx5vjFwAAu4Ab2LxiP7Tu34IhuW47t347De1Zj58rfMXtQbfTuPwO381ZDgeCdZS/P4ezpO4E3fgHnzP9OiOR/RHbg3bBhQ8hKQnI3/ri24Tv8MbQV+n7zE877v8KlWS3Rt1cn/PHrPFwKNvcpXvF2qJy/BCq/XyFYl/orXFg5CL8PaYF+fScH5bIJuPg7vv/8f/hl1CBsPnUNB2b2wsR+DdDvx9V6mwnzDeKNFZjVrykGfVEX/TsGFr9O72NEnw74c/LfOHXnFWLnr4pCsnGz/1nsmPQNxn9bC4Mn/6fnTJjwYG0X9Pm6PX798TcceaQqichJBFxejL9Hd8Ko9s2x8NQr89t4PEa2b4nxo4di67lgjUuCinivTnHkrtsOBYJ1V/uf+RszRn2BEe3bYvUlI8A6jZW9a+G7Id0xY+VRBNzdiMU/fI0fvqyNyduNXvEA3N4yBD92bYgBum3p37EeBnZuju8H9cI/K/fhvn885CxdRW3cHPh7foVRnzfGvGP69zLdwvbv3sOQgV3x59xtvJEju/G6du2aKU2aNPrUc2TLlg3nzp1Txzly5MDJkyfVsT1duXIFGTJkQO6CJTHwlyW6llzFzg1L8H2fj9GtWzeMHDlS1zqeDNFJL9KFCxeQKVMmXWt/suPDgweBd/6yMfzOnTvVcUzo3r07Ro0ahXnz5qFRo0a61rM1b95cpdwZPHEFcuYrqmvJVXzRpChuXr0AyU0ZU5YsWYK6deuiU6dOGDNmjK61nylTpqB169b6DJg2bRpatGihz1yftycGV0RERET2ZNfJV8+ePcOAAQNClbVr1+pHEBEREbkfuwdYskoxZFmzZo1+BBGR67lz5w5u3bqlihwTEYVk1wCLiMgdFS1aFKlSpVKlZMmSupaIIuPDDz/E3bt3g0qTJk30FffgsQGWNIxp06ZVRY6JiIjIceLEiYNkyZIFFTl3Jx4bYO3atQtXr15VZdu2bbqWiIiIKPo4REhERERkYwywiMgq3333HX766SdVunbtqmuJiMgSBlhEZJXPPvsMX375pSoffPCBriUiIksYYBERERHZmJfJjnn57927h+TJk+uz13r27Ilhw4bpM8/BrXJcm6dvleNMYnqrnJjYaisixlY5WXMWQI53iuhachVrFk5RXz1pqxx3xwDLgYwAS2TJkV99Jddx/tQh9ZUBVsxjgBWaEWCRa2OA5T4YYDlQ8ACLXBcDrJjHACu0AwcO4Nq1a/rM/ciH/4YNG9Tf3Z1Vr15dHzkeAyzbYoDlQAEBAXj06JE+cz/y/5Y/f3707dsXbdu21bXuR5LhxYsXT585HgMsBlie5vnz50iYMCH8/f2xbt06VKpUSV8hW2KAZWMSYNnL3bt3JXgLVcwBln4EuZPBgwcH/Y2fPXuma8nWfH191XNsDrB0jefp1q2beg7MAZaucaxr166ZLl++rIock32NHz8+qG2R1z/Zx+LFi9VzbA6wdI19LV++3FS+fPmgsmrVKn3FPXAVIdmE9F59//33+gz4888/9RGR+0mTJg3Sp0+vihyT/Ujv1ZAhQ/QZVO+tDBWS67t+/To2b94cVG7cuKGvuAePDbCCb9ZaokQJXUtRNW7cONy5c0efQTWI0jASEUWH3KxdunRJnwXy8/PTR0TOy2MDLAkGbt26pYrs4k1RJ71XkuU7OGkQ2YtFRNERsvfKwF4scgV2DbBkUuLKlStDlTZt2uhHkDsI2XtlYC+We5k8eTJ+++03VRYsWKBriezHUu+Vgb1Y5OzsGmDFjh1bLTkNWXLmzKkfQa7OUu+Vgb1Y7uWrr77Cp59+qoonrgImxwqr98rAXixydpzkTtESVu+Vgb1YRBQV4fVeGdiLRc6MARZFWXi9Vwb2YhFRZEXUe2VgLxY5MwZYFGUR9V4Z2ItFRJFhTe+Vgb1Y5KwYYFGUWNN7ZWAvFhFZy9reKwN7schZMcCiKLG298rAXiwisoal3qtYsWIhbdq06thSYlf2YpEzYoBFkSa9VwMGDNBngby8vFCjRg11XKRIEaRLl04dG9iLRe6kZcuW6vUu5eOPP9a1FF1yE9a+fXt9FhhYyfmZM2eCVp9v27ZN3eBJFn2D9GKtXbtWn5GrKFmyJH7++eegUqxYMX3FPTDAokiTTXafPn2qjiWwatGiBY4cOYKBAwequly5cqkGcezYsW8EWtJQsheL3IFs67Fq1SpVtmzZomspuoLfhBmB1S+//PLGpuZx48ZFhw4d1DUJtAyDBg3SR+Qq8uTJg44dOwaV3Llz6yvuwWMDrOnTp6s7HilTp07VtRQR6b2SOw1RqlQpFVhNmzZNvVGCixcvHr744ougQMvAXiwiskRuvkaPHq0CqwsXLoQKrEIyAq1nz56pQOvUqVOci0VOxWMDrDJlyqBy5cqqlC5dWtdSRCZMmICaNWvi6NGj2L59e6jAKiQj0JIeLwm0pkyZwl4sIgpFNv5dt25dhIFVSEagdfr0aSRKlEjXEsU8DhFSpMjcE0s9VhExAq3169czwHJRskG6bIwuJV++fLqWyDYyZ84cqcAqJAm03G0OD7k2BlgUKalTp9ZHUSOBVpIkSfQZuRLpXdi5c6cqkyZN0rVERGQJAywiIiIiG2OARURERGRjDLCIiIiIbIwBFhEREZGN2TXAunfvHhIkSBCq9OvXTz+CiIiIyP3YvQdL8h+FLC9fvtRXiYhcT69evdRm51K++eYbXUtEkXH8+HFMnDgxqJw8eVJfcQ8cIiQiiqRPP/0U3bt3V+WTTz7RtUQUGTt27MDnn38eVHbt2qWvuAePDbBk37zOnTurMnjwYF1LREREFH0eG2DJnnhjxoxRRbZvISIiIrIVDhESkVWePHkSVGSDXSIiChsDLCKySrp06ZAwYUJVfH19dS0REVnCAIuIiIjIxhhgEREREdkYAywiIiIiG2OARURERGRjXiYzfWxzslVO8uTJ9dlrPXv2xLBhw/RZzMiWLRvOnTunjnPkyOGQDLKSwf7w4cP6zP0cOnQIH330EWrUqIHhw4frWveTKlUqZMiQQZ85XsWKFbFx40ZcuHABmTJl0rX2lzRpUjx48EAdlyhRAjt37lTHMUESfI4aNQrz5s1Do0aNdK1na9WqFWbPng1p0r28vHSt+3jx4oX6f4sTJ45b/v8Zf7eYXKG7ZMkS1K1bF506dVIpjOxNUiS1bt1anwHTpk1DixYt9JnrY4Bl5qgA68qVKzH6wUy20a1bN4wcOVKfOR4DrJgPsP755x88evRIHSdOnBgNGzZUxzGpefPmmDlzpjpOlSaV+kqu4+b1m+qrHT+SI+ToAGvZsmUYNGiQPgP8/PzUDbq7YIBlFhMBVtVaVdVXch1rlq1RXxlgMcCKifYjIkaANXPpDBQsWlDXkquoXqIGLl+47FEBlrvz2ACrR48euHXrljpOnTq1Q34fI8AqUqIw/lr0l64lV7F66Wp0bvs1AywzBlgMsMi2GGC5H4+d5D5ixAj88ccfqsR0sEdERETuxa4Blo+PDwoXLhyqpE+fXj+CiIiIyP3YNcCSyZ/79u0LVb788kv9CCJyFf/++68aCpMyd+5cXUtERJYwDxYRWSV79uxqvpEUR879IiJyRQywiIiIiGyMARYRERGRjTHAIiIiIrIxBlhERERENsYAi4gokvLmzYtChQqpIsdEFHmyP69sOWUUOXcnDLCIiCJJ9lD777//VFm0aJGuJaLImDFjhkrnZJQ5c+boK+7BYwOs/fv3Y/fu3aocOHBA1xIRERFFn8cGWA0aNFD7qUl5//33dS0RERFR9HGIkIiIiMjGGGARkVVatGiBhg0bqvLNN9/oWiIisoQBlscLwO1NkzG0S3d8WucDNKkevDRHm4+/hd/AhTjxSj/cgsc7p2NAhw74qMbr72364RhsuxOgH2HJSxyaPgJ+HTuiZdD3tUC7T/phyLgtuBXet1KMWLJkCRYsWKDKxo0bdS1R2AJubsefvfujW7P/BbUNRvmw8Vfo1W00Fh4Np3HBE+z9fSB6/K8lPgj63mb4bOg23AuvjXhxCHP7+qHHR61ef1/tT9ClyxBMWn9LP4jIvhhgeTxvvFWhNb79fiR+GFgeXseP4MgBczl0F5naDMa4P4fCr1995IqlH25BwpIt0P+XnzBmRFPkeXUOR83ff2j9H+jV+R+cD7PtjI38LXrAb9wPGNAkGS4ePIEXJTtj9MSB6N2xHFLylUnk8rxTlcbHQwZg1O89UN7rVGDbcuAY7mZtjiFTx2DYqK6onzecxgUJULRdP4yY/CP6tcoD/9NHzd9/CFt+/hZ9Zl5AmM1LnPxoPMgPI373Q73kF3H0yAsU7T0Ko77vjTaVUuoHEdkXP8YoSML8viiZ2Ucde6cug4YNsyO+OrNGLKR4930MmDEYdTLJyyoAt1aNQPeR+/A48AFhiIPM1cogZ5zUKFa9EJLyFUnkfhLlQcVyGaFaF++UKNO0FrInUFesEyuF+YbMDxPG1EF61bzcwvq+3TFuV/itC+JmRsWKORA7XTFULJqUH3jkUHy90Ws+CZEwoZc69EqYCIkCDyPFO3VhFMxivKye4vC4nhi44Ko53AqbT8KEiO8dDwkSROEfJCIX4I0EiRJAvcO9EiBxkqi8172RsnhBZAq8BwSeHMakjgOx/HK4rYv6d73jJUB8Ni/kYHYNsJ4/f46xY8eGKtu2bdOPIGfjZTRCXt7ReHH4IH3xIkgnPf+vrmBpj2/x56HngZcs8fZ6/e8SkVt6/R43v9+j88njkx6FS6aDal4uLsPAL//E0WeBlywxNy8qsGMTQ45m1wDr6dOn6NSpU6iyePFi/QhyT95IWr4bRnUtjMTmVs10fzfGfv4dNnHmOrkJf3//Nwo5kHdSlOo3Eu2LJzYHTSY82PYzuvffhHDX1BDFALsGWOTBvOIif6fv0K9BenWn+fLU3+jz9VycDW/BEJGLyJEjB2LFiqVKnjx5dC05ilf8/PhkfF/UyqRaF5z9qy/6TDsb9qR3ckqNGjXC6dOng0q9evX0FffgsQFWnDhxEDduXFXkmOzAJx1qjfwOnxRJaL7TDMDt1SPxzYg9eKgvExFFlU/GWug/vh0KyGTRgNvY6NcDY7ezdXElsv9g9uzZg4qcuxOPDbCOHz+OZ8+eqXL48GFdSzaX6F20n9AH1dPLzNSnOPJLTwz45yo4qEJE0ZWwWHuMHl4daaV5eXIEf34xEEsusXUh58AhQrI7n8x1MeCXNsiX0Hzifw0revbAH/ufBl4kIooyH2Ro7IfvOuaDZH3wv7wCgztOwuEngVeJYhIDLHKIxKW+wKghVZHafKdperAPv7QfgfU3OSvVlfTq1Qt+fn6qfPLJJ7qWKKYlRtEeI/FtrdTmcMuEhzvHoXu/9dwNgmIcAyxyEB9kbjYQIz7Pq5KXvjwzD/2+mo3TLwKvkvPr2bMn+vfvr0q7du10LZET8MmMhj8MR6sC0rq8wvnp/dF7ymmweaGYxACLHCgJSvQaiR7VU5pfeCbcWTca3wzfhfu80ySi6EpaAl9N6IFKqc0fa6Y72DLwG/y09X64SY6J7IkBFkXPq1u4eiMS94mxsuL9McPx0TvxzCfPcGxiL/gtvM5J70QUwivcunwrUr1Qsd5uhMHj/ofc0pH19DimfuGH5VcZYlHMYIBF0RCAWwvH469/I5d9xjt5KXSe0A3lU3oB/texatCf2Me+fCIKJuDmCvzy60G81OfW8Uay8l9jZP/yeEual6urMfqXfZH8GUS2wQCL3mTSX80HQYdhefwfps54ikKlI7Nra6A4uT7A0J8+xNtxzSfPnuF5hP8YEbkLU4Tv9yf4b+I/eFa0GGTxceTExtsth2BIm7chGQ6fP30ecVtGZAcMsOg10wu80D1JpkcP8TC8VunVFazu64cFSUujZBJdJ0zP8fxlAF48fxHB3AdvpKjcDd/3LYPk3CSMyM2ZzG2C7kcyPcajB+E2LriydDj8ZiVB6fJvJp40PXuOlwHmNuZZBCGTdwqU7zcaXX2Tcw9CijEMsChIwM3DOKKT9AXc2IrZE1Ziy5Y92LtzX2DZsQs71qzG4j/Gome9D9Ft5jXkr1oaweMr3D+Mo2de4trR41ZMXo+DHG2GYvBH2RCbrSC5kJUrV+LQoUOqLFu2TNdSmAJu4/DBK4FzLQNuYcuUKVi5fif2GG3Lzr3YtXkTVs+dgbFffIQPP5uPq4UroHRS9d1BHu4/ggsvruPE0XsRT16PmwPNfx6EJjliM8hyUuvWrUP9+vWDysaNG/UV98AAy+MF4PamyRjapSta1xuOTcadZcA1rB/WFZ81bo2W9VsGlgZt0PZ/X6Nn74lYvO82XsUrhAqVU6gX0Yu9czC0Ww+0rdMfy24G4PG6EfioSXf06z0FO8JLSOOdEhUHjkLnssn4YiSXkStXLuTLl0+VnDlz6loKKeDmdvzZuz+6NPoIw9Y81EN1Abi2cgy6fNgWrYy2pX4rfNykAzp/MRQT5h7ErVdxUahKOaRQjcILHJg6DH4d2qF51+W4FfAYW/q2RNvP+2PohB3hbvLsnaoiev7aGSVSMMRyRhcvXsSiRYuCyqVLl/QV9+BlMtPHNnfv3j0kT55cn70m+XSGDRumz2JG5cqVg/6YWbJkwerVq9WxPV25cgUZMmRAkRKF8deiv3QtuYrVS1ejc9uv0a1bN4wcOVLXOl7FihXVnd6FCxeQKVMmXetZunfvjlGjRmHevHlqw1gCmjdvjpkzZ2Lm0hkoWLSgriVXUb1EDVy+cBl2/EiO0JIlS1C3bl106tQJY8aM0bX2M2XKFLRu3VqfAdOmTUOLFi30mevz2E6Ds2fP4uTJk6qcO3dO1xIRERFFn10DrAQJEmDWrFmhyocffqgfQUSuYsGCBZg7d64qMneCiIjCZtcAK06cOGjatGmoUrAgu6+JXE2rVq3QpEkTVWRfQiIiChvnFRMRERHZGAMsIiIiIhtjgEVERERkYwywiIiIiGyMARYRERGRjTHAIiKKJEnEKOlmpHz99de6logi491338XAgQODirtlGGCARUQUSYsXLw7K6yfZr4ko8goVKoS+ffsGlQIFCugr7sFjA6xx48bh77//VmXs2LG6loiIiCj6PDbAqlWrFho3bqxKzZo1dS0RERFR9Nl1s2d6k7HZc5y4cfDXwqm6llzFmmVr8NtPv3vsZs9FihTBo0eP1LHMlZAtc2JKTG/2nC1btqA9THPkyKH2NI1pxmbPwtvbPe+d5ePKy8tLn7mXgIAA9dWTNnt2dwywHMgIsMi1eWqA5UwYYIUmH4oLFy7UZ+7n1atXePr0KRInTqxr3NP58+f1keMxwLItBlgOdOfOHbRv316fuacdO3aoiYoJEybUNe5HGqD//e9/+szxGGAxwPJEn3zyCRYtWoSzZ88iQYIEupZsiQGWjUmARWQLBw8elGDdZG4IdQ3Zg6+vr3qezQGWrvE83bp1U8+BOcDSNY6VNWtW9e9LMQdYupbs5cyZM0HPtzmw1rVka4sXL1bPsTnA0jUUHUzTQDbTr18/9fW3334LursnIoquoUOH6iNgxIgRePLkiT4jcl4MsMgmDh06hPnz5+uzNxtEIqKokiHBP//8U58BN2/exIQJE/QZkfOya4B1//59ZMyYMVQZNmyYfgS5C8nCG9ykSZPYi0VE0SY3a/7+/vos0PDhw9mLRU7PrgGWyWTC5cuXQ5UHDx7oR5A7kN4rSdganDSI7MUid9WhQwf06tVLlc8//1zXkq2F7L0ysBfLPchNuJHwW0pMrqC0Bw4RUrSF7L0ysBeL3JWsYpQbCCldu3bVtWRrlnqvDOzFcn2yGvqDDz4IKlu2bNFX3IPHBliyBHXAgAGqcKucqLPUe2VgLxYRRVVYvVcG9mKRs/PYAOvHH3+En5+fKj/99JOupcgKq/fKwF4sIoqK8HqvDOzFImfGIUKKsvB6rwzsxSKiyIqo98rAXixyZgywKMoi6r0ysBfLPaROnRrx4sVTpXz58rqWyPas6b0ysBeLnBUDLIoSa3qvDOzFcg/Pnz8PKi9evNC1RLZlbe+Vgb1Y5KwYYFGUhNd75ePjo49eYy8WEVlD5sWG7L2qV68eChcurI6//PLLUHudykpO9mKRs2GARZF24MCBUL1XsgHxL7/8oo6lMezZs+cbG7JKgykNIxFRWKT3aurUqfossC3Zu3cvFi5ciESJEqm6Hj16qHxJ33777RuB1rhx4/QRkXNggEWR1qdPH30UGFitX79elaJFi6q6uHHjqmz90ghKoGWQndrZi0VEYTGmEmTJkiUosCpSpIiqC+6tt97CkCFDVBvTokULVTdq1Cj2YpFTYYBFkSJzrxYvXoxSpUphxYoVKrCSIMuSlClTqkBL5ki0b99e3W1yLhYRWSI3X3fv3lWBlRxbCqxCkkBr2rRpuHXrFtq1a4fp06frK0QxjwEWRcqmTZtUULV9+3bUqFFD14ZPAi0ZPpRGM23atCrgInJla9euVT2yUtatW6drKToyZMiAuXPnWhVYhWT0aLVu3VrXkCtIkiQJcufOHVTk3J0wwKJIkT3YwuqxiogEWjI5PlWqVLqGyDVJb0ndunVV+eyzz3QtRUfs2LH1UdTZ4meQ4zRs2BDHjh0LKvJ+ciceG2BVr14dDRo0UKVatWq6loiIiCj6PDbAmjhxIubPn6+KsfqNiIiIyBbsGmB5e3ur1SAhS7JkyfQjiIiIiNyPXQMsmbAmE5tDFsljQkSuRRY37Nq1S5XIZNomIvJEnORORFaR1V3FixdX5Z133tG1RERkiZfJTB8TRYv0bJQsWRLNmjXDzJkzdS3Zmqzi3LhxIy5cuIBMmTLpWs/SvXt3lVhy3rx5aNSoka51nGzZsqneeJEjRw6cPHlSHZP9VKhQAZs3b1YpYiTdS3BeXl76KFDIc2FNnaO/T9jqZ9ni+yTtiCRu7dSpE8aMGaNrKaoYYJHNGAFW6dKl1Rs0PJbe+CHxMZbJylfBAIsBlicxAiyyPwZYtsEAi2zGCLDIMRhgMcDyJEaAVbZsWbUdlyHkR5ilj7So1nnqz/rwww/xzTff6DOKKgZYZDNGgCXzc4xeFkuseck522OEs/1Offv2RfLkyfWZZ2GA5XmMAOvSpUsq6zuRs2OARTbDOVjkKDEdYJUrVw4XL15Ux1mzZlVz4si+GGCRq+EqQiKiSNqyZQvOnz+vCoMroqj566+/ECdOnKDibjfmHhtgSff+qVOnVJFGkoiIiBwnICAAL1++DCpy7k48NsCqVKkScubMqUrVqlV1LREREVH0cYiQiIiIyMYYYBGRVb744gu0bdtWlcGDB+taIvu5ffs2Nm3ahClTpuDq1auqTubpSELMM2fOuN2QErkXBlgUZdK4HTx4UDV+PXv2xJAhQ1T9zp070bFjR/zwww9YvXo17t+/r+rJtcmE1EmTJqmyePFiXUtkO9KmyKKBTz/9FLly5ULKlCnh6+uL1q1bq/myQlaQ1q1bF2+//ba6LseTJ0/Go0eP1HUiZ8EAiyJFsnqsW7cOLVu2RIoUKVCwYEHV+I0YMQKLFi1Sjzl79ix++eUXdOnSBdWrV1e5mkqUKIGxY8fizp076jFERIbnz59j4sSJyJs3r9oK6rffflO5xSSnniS9lJxvkg5DSID1+eefq1QZz549U71ZH3/8MdKlS4evv/5aJeAlcgYMsMgqElhNnz5dBVRVqlRRvRmy6qNy5cro1auXOv/555/VY6VOgq3Ro0fjf//7H7JkyYLdu3er7Rck87h8vXbtmnosEXm29evXq3ZFgqYTJ06ofFfSIyXDg4cPH8aMGTMwcODAoF0LvvrqK4wfP17lxLp37576fgmw/P398eOPPyJPnjwYPny4ap+IYpQkGvVE5rshSbCqSo4cOXQtWWJu9Ey+vr5Bz1fp0qVN5oDK9PjxY/2IQDt37lTXmzVrpmsCBQQEmPbt22fq0KGDKUGCBOoxSZMmNZnvWNU1cg1JkiQJeg2UKFFC18aMbt26qd9j3rx5uoZczbNnz0ydO3cOek3Vrl3btHfvXn01tPLly6vHXbp0Sde86ebNm6Y+ffqY4saNG/QaPXnypL5KzsgcSAf9/aVMmzZNX3EPdu3BevHiBcxPWKjy77//6keQs5P5VYULF1bzIt59911117ht2zbVM2UOlvSjwicbF8vPGDdunMp+3bVrVzVf4rPPPkP9+vU5bEjkYR48eKCmD0iP01tvvYW///5bzesrUqSIfkTkyXysQYMGqXmhsl+h7CxRvHhx7NixQz+CyLHsGmA9efIEH330UagyZ84c/QiKjCtXruCnn35S3eXmOzW7rqAxB9+qsZL5VTLPQY5lmE/mPUSHzNuSLU6k8ZOufGlUZUhA/t+IyPZk9d2YMWMwYMAAu7QbMhQn7YW1JLiS3IOyOlDmZh44cACNGzdWN2K2ILkNN2zYgB49eqghRPm3JPM+kaNxDpYLkT24pDHq37+/apxs1SBZIo1xv379kCRJEjWpXRrmWLFi6avRJ3eqe/bsUSuAZJ6FrBTivCxyFTJnKGnSpKpI76wzk5sXeY/5+fmpQCO67YYEUxKkvXr1CqtWrUKBAgVw+vRpfTV8Mpm9Xr166mZN3vNr1qxB+vTp9VXbkbZK5mF99913ePz4MWrXrq3aTnIuderUUZ8DRqlZs6a+4h4YYLkQuduTQEeUKVPGbgGWTCCVACtZsmRqAqn0MNlDwoQJ1Wa9cvcqS7DlzSW9nkTO7uHDh6onRoqzpwcoWrRoULtRunTpcNsNWQEsN3Lhkf/f8uXLq8UrsrH78ePHre7Bkt9DphvI0J30XidOnFhfsQ9ZcSiBpfydmjRpooItch4yPCyvT6PIuTvx2ADryJEj6s0mxZXubLZv366+RneoLiz79+9H586dETduXCxdujRacyKsETt2bLU6sVq1aurflvlZRGRb1rYbEvTI8Fp44sWLp9KwHD16VKVQsJb0usv0AJkmMH/+fLsHVwbpiZe5nrJC8ZtvvtG1RPbnsQFW/Pjx1SRtKXLsKrZu3aruQGUSp61Jl3+rVq3U4oSRI0eqXjJHkF3UJchKmzYtJkyYoJKTEpHtGO1GRO9pa3qi5KaoUKFCavqAtaRNkUUtQoKzDBkyqGNHkP/v33//XU2Cl955SYRM5AgcInQhMu9B7kRlzofM/bA1SQQqvUgyN0K2RXGkVKlSqeBKdOjQQTXI5Fzat2+vchBJadq0qa4lZxeZdsNeC2dk9fixY8dQo0YNfPDBB7rWcSS4kptGCSClR8sWpK2MzOR+8jwMsJyEZC2OaP6RbDkjKS6k98rb27Z/OlkpKNnY5efKXZ695neFR7rxZTKqzMeS/caiS4YEpBEk25BJw7KsXopk6aeYd/78edy9e1efWSbzxaTdkN4rW7cb1pAgRJIOC5nbGRNti5AV7LK9jkzMl1QOUSULBWRloqyGj6n/F3INDLCcgMxlkO0hpFcgvCBL7kKlsZIJprY2e/ZsXL9+He+//77ariKm9O7dW339/vvvo3x3KJNupTGV+SbZsmXTtUTuRXLKSS4pWZUX3n6fMiQmWc7tNW8zIpKHSua8lipVCiVLltS1jufj44Mvv/xSHf/xxx/qa2TIMGv+/PlV+yvPKW8yKCIMsGKY9LJIt7ns1ydJPMMLsuS6sEeAJRv4CqMBiimyykkm1svCg8gmpJUhCEmAKvm1ZEhCJutHZp4IkauQ3Fay6lYCJ+nxlXQnYQVZltoNGYKXtCghi6wQlBV3lq7JHM2whHczJPMrRZs2bdTXmNSiRQs1h0y237F2OFQCK1mEIwGqpLsQMszpbiveyPYYYMUgyR0jd6CSGE9W2EhKhH379lkMsqQxkK5p6V1KnTq1rrUNaTzl38+ePXuM3eUGJ8lNhbUJaSWwkoZTnhujMReOnkdG5Ag3btzAe++9pxbnSMoDWfUnua6kJ0uCo+Ak8JEAIVeuXGoRiUHe7/KeCVn++usvNQnd0rXwhtXCC7DkdxQSBMY0mYslUyxu3rypRg7CIztWSPssbaLk6zLIKkrJr0UUEQZYMUTuPHv27Klyf8jSaFm6bGxJI71acocVnMyRkuzn0jjIuH9Uh88sMbIcS0+aM8wpkN9DRJR9WRrI5s2bq8Aq5PM1ZMgQ9l6R25EbLZkrKTnqZLWtrMbLnTu3CrIkuPr111/faBsksacM0YVsN2QOkQQNIYssZJAM6JauhZdQNazeIJn/dejQIXXzFjzAi0nGCuywttCRqRjSBsnjLK1olqFB9l6RNRhgxRCZDyCTyWUyd/A9/XLkyKHuOCVdQnASXEm3vrzpZT6D3GXaimTQFTJHwhlIj54EnHv37lWBaEjy/y/5d9555x2Lk+FluJW9V+SOZJK67OSwZMkS9To3ZMyYUe24IEP8wW+SpEf86dOnFtsNeVzIEla9lPCEdcNn9BJJWgdnIVn4hTwfwRmBlSwGkInwlkhyZM69ImsxwIpB0l0tOaBCknqZJxCcNJRCsrlLkj4JQGzFmFcgW144A2nMZTKp9NpJZmmDEVjly5cPs2bN0rWhdevWjb1XZFcyfC1zm6TYYsVrZMhrO1GiRPrsNQm4JEFwcMY8Rmk3FixYYNOeF2t60c+dO6e+yo2jszB+F6NtkZ4smc8WXmBlkBQl7L2yHRml+Pjjj4OKBLnuxMv8JrHdWFMIstFm8LssgwyNDRs2TJ95nsjkmjGWVcsbX+6uZI6EbNwqQwJyN2ULxYoVU71FsoowOo2H9LJJIyUTQEMO2UWW9ODJfCqZKyLBpGw2LSsdIyKvN2nUGWC5N9kCRbKCy1ZLjRo10rXuLSrthkw5kBXKU6ZMwc8//6zmeYbXbvzwww8qJ50sFgmL9Cp//fXXaheMFStWqPlflSpVUsOAMjdMViIb5N+VOZXp0qWL9p6DsjpYJuHLjaClG1NryY2b3FRKj70Mtcr/gzXkxk+mIwTfkzWsj09Xr2/ZsmXQ9kr2ZLw+DLI4Seb7uQuPDbAaNGigVuKITJkyYe7cuerYEeRFJHMlwup2lz+JrNiRYURJiicrWKTun3/+UcOH7dq1U8NjtiK9RUYvlrORfRAlyIqK4M+vOx5Lji9HZsR2Jp4YYK1duxYDBw5847UQnLQRL1++VMGVtLGyka7ULVy4UL2H2rZtq3p/w2NNgCWBnvSiS6Ahv4sU+Xck8JL9CYNvr/Xnn386xepBS6Qn69atW+pzit7UqVMndSNvbwywosGZAyzJjxS8+1oSfTqK5HoaOnSoOpYgSiaPyp2UNFwyjyI42Q+wVq1a+sw+5I5QJqJKEr7oJCKUO0PJzSPDF3LHGh3SmyaTdqUnS96E1pKeK+mFC/6yttWxiM73R+dYGOfGcvwLFy6omwNP5IkBlmz38sknn+gz4N1331WvdWlDQg5tSW9vVDKmy7xQCbBkA3ZbkOFTWYgiPV59+/bVtVEj7aAM50lbFZ3eMLmZlJQVkth46tSpagcLeS1ZE2hJ0CGBakhhBb1h1YuY/h4R8prM7ZPOBwZYNmJutO3G/IFr+uWXX0KV7du360fEnKxZs8qnlSrmAEvXOkaHDh3Uv5s3b17T+fPnTa9evTKZ7zxNX375ZdDvJOWjjz4yme8K9XfZT/HixdW/Zw5qdE3U7Ny5U/2cZs2a6ZqoM7/J1M/asmWL6e7du6YBAwaYzMFT0HMTVokfP77pxo0b+qe4J19fX/X/ag6wdI1jbNiwwbR27VpVdu/erWtjRrdu3dRzYA6wdI37++6779T/c9q0aU3mIEG1G1IGDRoU9PqX0rBhQ1UfFdLe2LLNkdeK/E7SlkWXOShSP+vSpUu6JmrMQYT6OeZgVdeYTOabFtOQIUNMyZMnD3oeLZWMGTOanj9/rr/L/SxevFj9f5oDLF1jX5MnT37j+TUHWPqKe7DrJHeZcCnLfkMWZ1mtFhPMz3nQnZLkUsmcObO6A5WeKrmTMkivmtxBRKdHyVryO4gzZ86or85AkicK+d2kd0+GSmVbED8/v3DnV8mKKbkbJduTPEtVqlRRpWPHjrqWHMVoN+S9IFMEpN2QScHynjDIakLZ01OuRYW0N7Zsc4whSel1chbG7xJ8uFTalG+//Va1MTK6YGnkRZiDOzXsSWQN+396Uyh37txRXbMyv0jIm1rmVRlkboNMZg/rTW5rRkMj2dOdgczlkG58afTkA8MggZYsUZfnS74mTpxYX3mTTOaVuRVE7sTYc9BoN6QdkSF0eb8YZEcGWycijg75XeQ9LG2LTFB3Bkb+K1ncE5K0Kb169QoKtCyt1h48eDA3oyerMMByMOnBkje2LEmV/FcyKVWOgwcE8gZ25J5dxr8lmYudgWSMlsZYfi9L8wck0JK7dmkEZV5HyCXrkgXf2FyWyB1IuyEr2GRelcy7k/makvMqeK/zN998oxKIOhN5/0omdAkCZQVjTJPEq7KyUkZXJMlzWIxAS+bpynzh4IGW9GIxkztZgwGWg0n3u6wEkgmr0o0vWZmDNzyyYlAS2d2+fVutbHREr5KkVpDfZfny5Srgi2ky0VJEtOei9PDJcymBliwpDh5oDR8+nL1Y5DYkUJHkuZL/TT78ZXJw8FQoxYsXVzcdsjBEJv5Hdh9PezLSNkRmsYq9yK4Z0hMo2/bIljcRkedaFmVJoCVtikEWA7AXiyLCACsGSGMpRXqMgs+fkO506eKXJKOSl6pJkyYRJr6zBekRkhU6sseZBFkxSe7MJ0+erI4lqag1jDxZEmjJCk3D999/r4+IXJ/RbshWWrLKyyA3FrIaTvYmlH05ZQWgpGZwFhLMSPJk+Z1klXFMGjdunPoa2dQREmjJFkKy9Y8EWhJccS4WRYQBVgyRHipJ5hZy/oQx50gaSiFLph3BmAPmiKW54Vm2bJnaBFuSIxoZl60lgZYMr0rPlUxYlTtmeZ6J3IUs4pB5V8HnM8nimDx58qhjY2saZ5qHJcNxHTp0ULn9YnIBiiwIkATNsnejsd9pZEkwK4GWZIGXG1MZuiUKCwOsGCBBlaymDD5/QoYFjXxX0ovz999/q2NHbctQu3ZttQeg5OGS7T9igjwvMuQnunbtqr5GhTxnstmzDK8ywCJ7kLl/EjRIkQUXjiAf5rKCcOfOnboGKseU3KiJ4O2GpcnZMUmGN5MmTap6kCRBrqNJcCd/KyG93NFdKSmBVtOmTVWPIkWdrIaVHGlGMW4U3Ib5TeuRYjIP1u+//x70b0spVqyYyXxHqvLPmO9QTSNHjgy6JrmlHGXmzJnq3zS/6FUOs8iKbh4sc+Orvr9kyZIOyf/lqmIqD1bwPGQlSpTQtTEjpvNgxUT7sXr16qB/U0r27NlNN2/eVO8Vyc00ceLEoGtr1qzR3+U8JAei/G6FChWKUvsSnTxYfn5+6nsrVqxoMgeiupZCcnQeLHfnsT1YsjJEtquRIsNKjiL7dkmkHpxMLJfsueYPTrWfl2SpNjiqB0vIHZl0ncumyo7Yhyo4mVci/98y2d78QeGQ/F9ErkJ2SQiexV3IfnyS9Vr2AZTe588++0xfCdww3tnI7yc51KQHSzZNNn/+6Cv2ZQ5MVc+49DrJ4iL2OpGjeOynWLNmzVSDJUUCC0eRhtJ894tcuXKpIg2jpBWQVSrXrl1TG7HK3CMpsnWNI+dSSMMjDZCszpO5ErJiyREkn4+sNJLnQSarm+9w9RUiEhKMyM2WtBdG+yA3ZpKQV9IGSO48uTmTItuApU2bVn+n85CbJpmML7+b3ETJPEl7B1myd6vcvMrwqdxMS5tK5CjsJnAwaQBlCbX0EkmRSalSZFJ7yCK7xwdPPeAIMsle9oOSnqSPPvoICxYs0FfsQ5ZMyw78kl1Z5oFJLh9yTjKvRz7kpch8GnIcWSEoc6+CtxXSPkjPb8gi+6o6anFMZMkegrIyWm7iZDWe9ObL3Et7kH+nevXqQXnxrF2VTGQrDLBigAQv1paY6M6WyfayAk8aPlnyLb1a9rjTlCXbslpw165danhUJujK/zM5J1k5JSs0pTgifQi9KWTbEF5x5iF22VxeFtNI77ysWpbkqLZM3yA9e7IYQG7cJLiSdC2yiIjI0RhgkUUyt0OGCKWhlmFUObfVijwJ1mSX/YIFC6qVfjVr1lTpGeQunYjc37vvvquG7woXLqxSJ8h2XRJsSab16JAV0JKhXaYayHQLaWdCznklchQGWBQm2ZZDGr8sWbKohkqW0Mo8BplHFlUyPCo9ZLK8/P79+ypLsiQglG2DiMhzyDwyyU0lc7Ekv1fnzp3V/DFZdBSZHi35XmmfZEse2adRttoyJtPLXFuimMIAi8Il2+hIQyV5u6QHS1YCySR92adL5oNYM3Qo2Y9lXpesdipSpAhWrFih9lWT4E1Wc8pqKCLyPJKEVHLW/ffff2o6wvXr11WOMbmpk+1/JOiSBMxbtmwJSq4qN2myHdCAAQPUMGCaNGnUDZv0iOXPn18FW7JyUII1ohhl/oAkssrevXtNTZs2NXl7e6tcKVLMjZupXr16JnPAZeratauqK1q0qGn48OGmNm3amMwB1RuPz5kzp2n8+PFRyoNDgWIqD5Yz8cQ8WJ7g9OnTpt69e5vMAVbQ8xtRSZgwockcYKncX8xxFT3Mg2VbXvIf8xNqF7LxaNmyZfXZa23btlV3JuSaLl++rHqkZIWh7JkY0QbRmTNnVr1XknFaJrU78wRcVyDP4caNG2EOsJApUyZd61kkZ5qkEpGejEaNGulax5HeEUmtImSoS1buke3Ix5K8vnfs2KFWGMsCC+n5ll502dtQetFl3laxYsVUWhdJU0HRJxvty/Mre13G9LZp7sCuAda9e/fUctyQZN6NDA2R65P5D4cPH1YpJ6Tr/scff1QN3qeffqo+eKQRzJAhg3402QIDrJgPsGS7FWPRh6REkEnVZF8yv0omsUveL7Yp9uHoAEsSb8tnh0E+L9KlS6fPXB+7EihaZOWf3EVK75SRZ0bmV8m+X5KDhg0huSOZNzRhwgRVGFwRRY3MlatWrVpQkfQd7sRjAyzJ8yS70EuR7MJEREREtuKxAZafn5/qBpXCO1AiIiKyJQ4REhEREdkYAywisopsTi4TUKVIslgiRzK2DbPjuiwim2KARURWkSSQ165dU8VW2yYREbkrBlhERERENsYAi4iIiMjGGGARERER2RgDLCIicnrGJHciV8EAi4gokvbs2YOtW7eqIvtxElHkxYsXT201ZZS4cePqK+6BARYRUSQ1adIE5cqVU6VZs2a6lhyBaRrcR9OmTXHjxo2g0rhxY33FPXhsgFWyZEn4+vqqUqJECV1LREREFH0eG2DNmjULGzZsUGX69Om6loiIiCj67B5gJUmSJFRxt3FWIiIiouDsGmAlS5YM9+/fD1Vko2Uici3//PMPVqxYocqYMWN0LZFjcBUhuRpOciciq1SpUgU1atRQpVSpUrqWiIgsYYBFREREZGMMsIiIyGUwTQO5CgZYRERERDbGAIuIiJweJ7mTq2GARUQUSQkTJkSiRIlUkWMiopAYYBERRdKhQ4fw8OFDVf777z9dS0SRMXv2bKRJkyaozJs3T19xDx4bYN27dw937txRRY6JiIjIcZ49e/bGXoRy7k68TB66JCNbtmw4d+6cOs6RIwdOnjypju1Jgrk2bdroM/dz9+5dbNq0CRkyZECxYsV0rftp0KABWrdurc8cr2LFiti4cSMuXLiATJky6VrP0r17d4waNUrd8TZq1EjXeibpBZg5c6Y+c19bt27FrVu3UK1aNSRIkEDXuqfUqVPj119/1WeOs2TJEtStWxedOnVySDLhKVOmvNGWTps2DS1atNBnbkACLE+UNWtWCSxVMQdYuta+Ll++HPRvsrhu6datm/6LxgxfX1/1e5gDLF3jeeRvIM+BOcDSNZ5rwIABb7w+WVy/ZMmSRf91HWvx4sXq3zcHWLrGviZPnvzG/7c5wNJX3AN7sMwc1YN15coV1buTKH5C/N6HW424mnV7NuPX+VNg/nDHyJEjda3jxVQPVp8+fYK68DNnzqzucmMKe7BeGzhwIPr374//vdcEdcrV0LXkqpr1bgdzgBX0+eRI7MGyLQZYZo4OsN7NlR9/9PlJ15KrWLd7E7qP9fPYACtp0qR48OCBOi5RogR27typjmMCA6zXjADL75MeqFueAZarK9aqirqBYYDl+riKkIiIiMjGGGARERER2RgDLCIiIiIbs2uA9fLlSyxbtixUOXbsmH4EERERkfuxa4D1+PFj1K5dO1SRiW1ERERE7opDhEREkVSuXDlkzZpVFVnVSUSRJ0ljV61aFVQqV66sr7gHBlhERJF0+fJlnD9/XhU5JqLIS58+vQqyjJIuXTp9xT14bIC1fft2XLp0SZXNmzfrWiIiIqLo89gAK23atCrppxQ5JiIiIrIVDhESkVWaNWuGjz76SJX33ntP1xIRkSUMsIjIKhMnTsTUqVNV8fPz07VERGQJAywiIiIiG2OARURERGRjDLCIiIiIbMwrICDA5OXlpU9t6969e0iePLk+e61nz54YNmyYPvMcV65cUasW382VH3/0+UnXvunVuSUYuXAdjt5+ggBdJ+ImzYLCZf+H9qXS49ruKfh53R5cfBz8EV6InyIrcuSvg05V8yG+rsWzA5g+7R9svXIND14FVvkkSIeS1T5Hh6JpAiss8L+5BZOWbsTBixdx56Wu9EqJaq36o1X22LrCCv7nMHv8d1h8Q/+uXvGQKn1mZMvfEJ3KZgus017eO4JVG1Zh8+kLuPHYH3ESvYUMGd9BiYKlUSZXKlxePRVHCn6MRul89HdEIOAWVkyfjoDaX6JWiujfS6zbvQndx/qhW7duGDlypK51PElsuXHjRly4cAGZMmXStZ6le/fuGDVqFObNm4dGjRrpWsfJli0bzp07p45z5MiBkydPquOYMHDgQPTv3x9+n/RA3fI1dK14iVun1mP+1h04eOUmHvjHQbJk6cy/bxGUKVwChZJfxewFx1GmcR1klbeH/0n889dfWHnuBt5oWuIkR7Zc1dGucSVkvL0JE+csxs7rD+GvLwuveCnxdsbiaNS0PgrG1ZV4in0rfsas/edx5bFufLwTIoP5vT+icbnAc0sCrmL9otlYe/o0zt0PanyQqmRnfFc7N6xvffxxZs0Q+G26ottScxuZPDOypi+G3k2rqZogr+7gwI4lWLb/KM7eMf+/xU6ClKmyo0C+4qhQMD9S31iA384WR/tKmWFd6xOAm9vHYZKpGbqXSRWpnoxiraogc+bMQa8vR1qyZAnq1q2LTp06YcyYMbqWosq7cOHCWLBgAUwmk66imBQrax30+rIfvshrwplzJ3DUXE48y4fPO/TCF6Uymd/cPshQvA2GfNEZNRJfxzHjMc8LoEP7HugRPLgS8QqiRTs/jG5RDP4XT+AsCuPLjn3DDa6ET6py+KR1b4xo8x7eun1S/RtHz27H9JXbcF8/xhpPjy7AtN3HAr///E2krdID333WJURw5Y+re35G216dMHjjBSTMXg71K1VHxRwp8fT4XAwc1hJVP2uAVrN24voL/S1WeHVlOaavX4oZG89BN+9EnsH/GtZN+wpNBo/GgisJkK/oe3i/XFkUSPEM+1aOwqffNIJvx44Yc+AmnhtNv09ONGrth+EfFILpcmC7cvTCExRs1BeDPqiELOYowSdVBXM70x89SyXB1fPGY56i8Pu94dcyeHAl4qNIze74rnNHlAo4jaNXgOJN+2FYeMGV8E6HSg06Y/AX3VAv6Q3dxh3H5hVzsfGRfow1nv+H2cs24bD6/lO48VY9+H3ZK1Rw9erWZowa/DHa/bkMZ+PlQaUKdVG7SD6kfr4fM37vgoYd66LKgAnYeucFrP6U9D+PhSuW4J+Vy3E6eCRKHsV7//79aNiwISTQmj9/PgICgt+6UIzwToYSdZqgbEKjZ9EHsUPctnknzIUPP2yM/HECz73iJkSiWIHHlsRNkhQJvdOibtOWKJbY+vup+BmqoFpOo9U04fbe+Vh81coWI+A2Vq9eh6tBDXgulCuaLtQd6NNTU9F9wnycSFYXo/xGoW/DRqhfvjaa1euAoX2nYnan95Hb53kkgyTzB8naFTj+6hVObF2CfyMRmBFF5LfffsPChQtVmTBhgq51Fs9wYIEf+q4+jZSVBmJqj274rHot1K3YCG2b98GkEb9jZPUc8HlhfkeFihi8kfyd5mhRKDGM1idWrJCNTyLkrdEeLd7W7YJXfCRMoBsiS2InR7L43khf/lN8mjep9b05cbPgvZL5ENT63N+CWZsvvtFzFrYA3Nw5HytvG59nPsjzbjlkCNlGPj+C334ahlkX3sL7nX7B+Lat0My3BhpWb4EuHcbin6ED8GEWHzwz/6OR6YJ4enwRFp1/iVfnV+Gf42x8wrJ792506dIlqOzdu1dfcQ9Br3UJtKSrvWrVqnj0KDK3CWQXicug1rvJVSPnf/NfbLsUulmJlf49NHgngTp+dfkA9t0LKzgOwL2j/+Fkygp4L/cb/VtWiIMkCeIj/ltpkUJ+mReHMHftITwNvBiuV5eXYs7heEj3lu5UjxUX8UM2cAH3sG7pPzj2Ii5K1myJ0klDNr9xkLHo5xjduiJS6RprBDzYgrk7r6nG2P/mBszbF5l+N6LwSTtZr149VapUqaJrnUPAg02YuvoknsUughYNi+OtUG+p9Kj04SB8WyKlrggpKXzLlsZb8n4PuIpdByz0APtkQT3fwkgox/7n8O+x229MaQgu4NG/2HMxLaqUKfBm77oV4iRMhIRx0yB9EvmfeI4D6xbiv+eB18Jl/p0WrN1rbrdSI7DJiYV4cUPe2gXg7u5ZmHX+GeLma4xPCqQIFfzFTV0OX3f+GtWSG+GmFcxt2oa163FFnhDz87d6/VbcC7xCIRw5cgQ//PBDUDl27Ji+4h6CXk8yV2rw4MFquDBRokS61n21bt1aJUuU0rZtW13rTBKgVOnSSK0irHPYsPtU6EbOOxl8SxRBInnMyyNYv/eG5UbO/IbfvOcgUhaugHfC6eUKi5e3F+LmqI0GWeSbA3Bp2zysux9Wc2p4il2rl+Ns5jqon8Vo2LyC7oqD+J/FofNPzXeH3ohtvlMO2cAF8kaq4h+iQWYr516Zw6rLW5dgm3dqpJF/2nQPWzasDWzwiNzcq0tHceypyfy2iY04PpbfUfB+C1XqvoecYbylEuavjPLJ5Xv9cXbvRpwIdX/njRSFK6JEAnlHv8DBPVtw3XLjg7v/bsF/ycqgcraQAY4VvLzhFfsdNPDNoQIl/xtrMHP3nTCDOcOTwwuw4HIONPTNqQMsaX1CeoVTp0/iifmp8jG3PbHDeqqS+eJj3+xBPyci/jdXY94BH6RJIb16Jtz9bwlW3LSu343ci7eZmiR59uxZ9O7dG0mSJNGX3JtMEl6xYoUqmzZt0rXOJX7eKqiYMrCRO7dnPY6EjrCQtEBx5Ffv/OfYv2sTLltoeQLub8OaEylRqURkJoiG4J0JDaoUV8Gc6dFOzNoQ/rymgDvrMGfXc5SrWgPpw2i4FC8fBH4GPMGO1XOw/4mqDc18x1w6X/owArAQXh7DPxuPIWPFb9CpaDLVsD49vhwLL7CRI/fn5WN+T8mL/tkezFp+CA8Dq0OJlb44SqYJ4x0V913ULJpGvd9eXd2MVWeMyeaveScqhtLZA8OOZ6c2Yo2lICLgDjbuPoDURXyjdHMXyBtZK9ZDaQnmTA+wZfXS8Oc1BdzEyjUb8Pzd+qibKtzGBz7m50qeqseH5uOvk2GN3PggW4GiyGhV4/MCh9cvxZHUteHXtBxUx9fzA1iw6Uy47SW5J+/bt2+jb9++SJo0qa6ynXjx4mHIkCGhSvXq1fUjKFyx86FGsQzmt7c5xLq+BatOhR7Lf3ryEE7od+6L0xux+lrIlicAN8x3oAdSlke1LNb2AFnihRSlGqGmGm94iWMb5mPns8Arofnj5IZF2JWkKpoWS2rhzjGYWNlRNKcOgs5MR6dhI7Hg3EMLd6ixkad8U1RW4xbhe7h/MZbdyWe+ey2IShUrIoP8yv5nsWT9PquGNskymUbw77//qnL8+HFdS84mdqZ3USixvE+e4fDiXvjs92U49sayQC1WLtR9rxzSWnxLxUGhUuWQSd47AZexfucRc+gQwvPD+O+CbnxeHsXaXZfVkHxwAXe3Ys2ptKhU8nVPUlR4JamED0sFBnwvzy3D7ENhv5NfXVyCuYeT4b1qFZBM11kWGznz5tdB0DFMGt0FAzeexAMLT1XsLDXQsmjqiG/wHu/E3G23ULBiLRQpWhvVVIDnj9NbFsN8v0kexjtZsvBfgtEhAda3334bqlSqVEk/gsIXG/lKVkA2iYsCrmHDzkN48z36CNt27QHSZw2cL+F/Aut2nn/zTingBjbsPoZMRX3xdnTiKzNv811t00q5zU2v+cfe3oBZ265b7qp/uhuzN11Cvkr1USicua+BEqFCvZYooz4QTHh0fjkGDWyL9n8tw6EHbzbXcdPlRs5EETRxAdexYv1WBBSqg5qpfBA3d23UyixNewCu71psxdAmhaVChQooUqSIKi1bttS15HQSlEbbBiUCAwfTYxzfNAqtv+2GkRuP4u4bL/84yJr9bYSa9qjFzl4ZVdKrxgdX9q3HfyEirIcHN2IHsiC7+gGvcHT3epx54y1rfs/t3YTDqcujasZoNj5e8VGsWm3kU0P+17F69RpctfhWfoLtq1fgwtt18UHOCBsfJC7cAp8UDLzBMz05hYV/fIGmI8Zi4el7bwaLcTLjncxJIgiwAnB1x2JsDCiJRqXTwidOQTQqEzi0GXBnI/6xYmiT3EsEn1YU02JlMTdymQIbuev71mFP8Ajr0Q6sPhwHFT/4DFX0UOLJPetxMljL4H9rM9aey4RKJbJE6w4ykA+y+jZEOTXp6zF2rV2Mo6H6vc2NzPb5WOtfBh+UD+x9i4hPunoY8vXnqJBSD2C+uoU9q0ehTY/P0XPBZpyNRLfTq0vLsOBYUlSvXBaqT9YnG+pVKKgm15oe78b8rVdD3WUTuRcfZKnSG983K4N0+k3/8u5/mPXHl2jUdyB+23Pe/O61gk8O1Cj+dmCAcHsbVh4N/kZ8gC079yJOkXboXFwPJV7cjFXBh+HNN4Xr9pxAlqIVkD2a8ZXwSVcLHxRKooKhR4cX4p9zoYctA26txew9/qhQtUZg71tEvDOh8eeD0blwGj194iVuHJ2PgYNaocW4qVh3Oaw5Cxb4n8HCDQeQrGQ9+KppzD54u0JNFJFlkKaH2L5xjcUpHOS+GGA5O5/MqF4ij3rzB9yTgMpo5AJw979N2BO/DGrkL4IaxdKrYObVZXMjd9ZoePxxafcmHM9QHlWsTc4ZAe8kFfBhmcDA6dWlFZj5b4gZHq9OYf7a/UhVtqFuZKyTOEcTjB7wI3pXzIPk+lf1f3waq//pj+a9umD0llNhziV57ak56FuFc5lqolEu4+7VG+lK1kI51UP2HAc3LcVhToYgt5cIBd8biGm9u6BR9mT65ioADy5uwISfPkWTYeOw9EJEq8V9kK2Unjtlum0OqPbBCDcCHmzH2qMJ4Vu6GEqUKhc4P8n/HNbtPG4OUQL5X99kvrnLisolJH+fDXgnR5XqVQMDJ/O/tWjVdnOYF9xLHN+wCPuSVUPTwpGYS5zwHfzvqwn4/eM6yJ9Y/6YBD3Fy52R07/cxPpu+CiesiLOeHl6EJVezo16l/EGpJbxTVkKDdwOnSTw7tRzzLcxlI/fFAMvp+SBTSV8UVF3jd82N3O7AQCPgHjbu+g/JilRCodixkb9kBWSVtiHg0uv5EubjtXvOIlfxCtbdzVklDgpVqYOCaoHMHaxfvRIXg92VPdw/H4tu5UPjKoFDiZHhnTgvGrUZi7/7dEOzvKmDGqkXd/7DjF+/RMtxS3AqnHkMAfc24Z/dj1CsYo3AYVVD4jJoVMKYsLsG8w9G4q6UyGV5I9nbddC73yT80bYhir1lvCNf4vrReeg3sAN6rj8b7rxEnzQVUTWHerPj9v4N2K7eOgG48+9G7ElUBtVzxkHstyujqrqBC8DFvetxUMUQ/riwZzNOZamAKmlsEl4pcXPVRyOVly8At/bMx+LrwXrMHu/C7M3XULByvcChxMjwTor8lbpg0rCf0Lfau0hrfP/Lm9izcjg+9huIfy6FOenU/OvcwZr1m/Awb23UVcOqhqSoUNEX6STC8r+IZRt2W9d7SG6BAZYL8HnLF9VyxzMfmXDv4HpsNd94BtzbGrgysGTgysBYWSqhiprnEIDL5kZO5ku8urIR667kQpVi6d68gwy4gV3r52DK0lmhy7Jl2PPmRI1QfNLVRNMigTm6np1YhDkn9eSMgGtYtmYLUKQhaqeKaqPqg+Rv10L3Xn9i5letUSVDQv0ifY4LO8eg+8xdIe5aDf44v2UJtscuZw6mQm5NEQ9FKlYLXJJuvhNft34DbrKrnjyFdzLk9/0SE4f/htGNKiB7Av3ueHEJq6f2x48Hwukb9k6DaiX1EPuj3Vi13/zuC7htvrk7iFTFKiGf9G755ED14oFpDPxvbMHKE+b2wP8C1uy5gLzFywcuMgnij2tHluAvS23P0jlYcPSWflwYvDOhXrWyOiffQcxdc1jPSw3Ale0LsB5l0bRsiPYuEnyS5EWDj77H3MGD8HnxrIEpcMyeXduAET9NwLYwoiP/ayvxz8E4qFTJF6lDfKrGz1MHtVWKGQkKl2B1BO0ruY8QLwVySt5vmQOpwpARN9PjPVjz3x1c37sBB1OVR/Ws+lbLJyuqlwhcqSPzJVYceYQzu7biYnZfVAqZadD/CjYs+RU/zbZQ5szCpghztiSBb/XqusfsMpat3AhJmPzy7BLMO5kGdauVROLAB1rBH48fP7KwhDk+shRtie8G/obv6xUKbFDlrnjzdCywlEn+xWH8s+kont1djW7tq6J4qzdL6X7TcVx9mwmPDi+1Phs9kasJeIIHTyy8vuNmQsUGfpg+eDDa5Eke2Pj7X8LiRctwPszPfG+kLFoRxVSE9RA7du3A7TtbsPpUOlQpmUvPW/JB9pIVkEfdwNzExu378PDyBmy4ngdVQq2888elvTMttz3mMuXfa/pxYUtauBHqGD1mW+dhrSxceXUc/6w9hLTlG6Kcyn5qHf+nD/HQwlMVP11ZfPLlBMz6ugWKqiSn5n/i2gpM2nhRHb/pBfavX47DL25h6ZgGodqe4m0+xx/nA/8R05O9WLDlgvlZIE/AAMslmBu5IpVQQrbOMT3Grp2LMX/3CWQuVhE5gm7VfJC5REUUkBZP5kuY7+YW772CgiXKhrqjku7wnAXKolLRcqFLkaLIEdFKPbM42euhicoKb8K9/fOx4Mo9bF6zEtdz10MjI+izRsBNLJzyB3aFWKEUJHZalG88CEOqZgqcR/LyJPafDj2ocf+/xVh5ryC6jlqJ3VPWWCirsOrTckgigdrL41i8wcKycyIrjR49Gn369FFFMlA7k4DbyzH8770hVhy/FidlKXT8qjc+0PMyn587hIPhjH55JyuL6vlk6xy5OVmPuRs24mja8qimFt8E8kknQ4nyvg/Arf1rMWfzVlzKYb65U8lKg/NB8kzF4Gup7SlaFqUyWTF3KnZuNK5SELKHhenRDszeeB53/zW3d3cLoEnFnDros0YArm8ag18Oh9USxEG6d9tidIf6gTeT5hbj6Ikj6sobHm3DvB23UbjFNOyw2Paswc6xPVBJbX32Ekc2L8MBTsVS3n77bbRq1SqoZM+eXV9xDwywXEXiUqhRMHCy5ONDMzD1TFZULfHmzu6yEWvgvoEm3N79F+beKoiqRUJv/yAr6xq2HoBRXw0MXTp9hXpvzCEIg3c61KpWAalUm3EC/8wZg7/2eqNKtapIF8lXlen+Aew6H16LkwhFKlXRWacD4B9yU7CAq1i+bju8ijZAndRh/e7eeKt4A9RQqy3Nd747FmMzJ0NQFP38889Bef1++eUXXessAnD7+D4cC28xR8JCaFgqcIUgTAHm7whPUpQvVQLJ5L3+bA8mLzuOt803c1mDv8/N7UHVEvmhJjLc34Tf111H4eJlQm/TY26x3q74teW256sB6FE+s35ceHyQoUwjVFHBmzlgWf87hi/fCp9ijfCeen9HgukO9h0+ETQx35LEueughg4mTQEhGx9/XN5mbku8yqFpucCFRpZ4J62AD0qlVW2x//W1mPcft6MT5cqVw+TJk4NK6dKl9RX3EMlXo/vo0aMHhg8frkr37t11rTNLhDKlSul8Vy/hnd0XVUNOHvVOjcolC6k7O7x6hTh5K6BCJDZ2jqzE7zZEPT3v69p/G3EkTU00LaD+9cgJuITla7aGyNETQkCAOWw088mKfNne3NHs5bmlmK+GJksj3PvfuIXQuELgHa7p/lb8s/1aBB8sRK5JPsTn7LsX7uvbZAoMFmJlzI13jBUlYUhcsBLKqXxX/njhlQdVSoQMJryRplglFJEIyxyuvIz9LqoWTma/D5iEpdC0fDY9JWI71pzNgHrVigfujRgpAbiwfSE2WMouGsTc9qinKhayZ8+taoK8Oon5Gw4jXbmGKB/uPx4fRarURB75hU13sXH92jDyeJE78dgA6/PPP1dBlpRPP/1U1zq3BO9URoUU8ieLh3dLVLDQU+SNt4pWRHGJcbwSoUSJ0gjVQx8FL16+UCVUe+CTA42qFlVzw+CVEKWr1rWwt9kr8/fqGQfmwPC5xUbFhFs7fkbfZYdgMQ9owF1sW70Gp/y9kbpEMzQM3sMWcAdrly3HhazVUD/CoUkfZC9TFYXUw55iz5qFOMhxQnJHAbex6q+hmHrygcUgK+DBTszadgavvFOiWu06EeepilcENQunVB8Y8XJVRBVjA/dgvJOWRbV3JMrwQuJ3fFFez12KFnO78/yVuf0J2XFkfi/nrlQfJdS9lhcSFaiP94MNWRpemb8/sPWRdshyRBNwbz1GTZyN/Y8sPlO4c2A+ll3yh09yX7SqmEXXiwDc3j0Hi67nRC3fiIcmY6WvhvdyBj7qydEFmHOajY+7s8E7gBwmbkG8VyQtfOIVQrVigY1dSN5JyqB6/iTwTlgM1QrZYF/Jl+dw/PJTvLh6GqdC9aN7I23phqj2lje836qED0pa+J2en8QxY/se/ws4cSGMRsV0B9vndMEHA4fg57WbsffMOVy8cR6HDyzH+LGd0XvTDbxVsB1GtKqI16MAAbi57zf8svce4iZLFWZG6uC8E6dB6njSDWhucq8sxOhFYe/VRm+SfUuDF3JuAff3YOzQtvh4/O/4e89+HLl8GZcuH8O2TX/imyFDsPB2CpRp0h89SliYRhBKPBQpXRbpvROgaMlyoed1Cu/k8C1ZDEm9EqNUyVKBiX6j5QXOnD+Hpy8v4sSl0O2G91tV0KxkGnh7pUb1qpUQetvBpzh2/pIOMP1x7sKpMOalBeDWwd/w6bdfoPechVh39DjOXL+Cs2d2YdE8P3wyfjmuJS2Bjl98hWrJXv8jspJ77NzNuBP7LaRJFFGEauadFOlSJFTTPOB/Hn9Pn4b/OE3BrUX8viInEgcFSlfAO/krwjfMu8MkKFuyJLIX8kXpyPeXB5EkgROnfIdug3phygV/vLr8N7oO6gu/KX9gxeVga2DiFUNT33dQyLchSqjhgUCvLq3G2MnD0XngAMwzttkPuIQ5P32Br3/9EWO3ng2sM/NKVg49+o7HxC+/ROO3A3B440T0HP4Z3u/eDp/+8ifWP8mJpm3H4K8uzVBQj0AG3NuGcd9/hubjVuKyvwkP9/yIlkP6wW/5fst5ZqQXbNFwfDX4e6x6aNwOP8PhRd3RdEA/jNl5WddRWO7evQt/f39Vtm/frmvJ+XgjZbGvMMnve3z3UV3kCziGhbMG4vO+rdCwz9f4dt5mPMzSEP36jMePtfNZveI3To4qqJKtKKoV0SsQLUhaqBLKZiiJagUikWU4pIDLWPvPj/Ab0wlfLT2NV/7nMP3HTuj6248Ytz34VmDxUbLaeyiYszaa5gs2bcD/LJbN+RH9v++EnuuM/REDcGGNHz7+YQSGzVmtahSvFKjU8if81csP31TOi4CzyzFmXFc079ESzYYOxvg9j5C7ajf8PmAIWuXU/08Bd7Dp72/Ros8gLL7pD9OTLRjm1xndfvsb+ywmFZNesOnoP7oThuy4FzjVwezpmWno2Lsjus1a/0YuQXIfXiZjIJ7s7sqVK8iQIQPezZUff/T5SdeSq1i3exO6j/VDt27dMHLkSF3reBUrVsTGjRtx4cIFZMqUSdd6Fpk3OWrUKMybNw+NGjXStY6TLVs2nDt3Th3nyJEDJ0+eVMcxYeDAgejfvz/8PumBuuVr6FpyVcVaVUHmzJmDXl+OtGTJEtStWxedOnXCmDFjdC1FFXuwiIiIiGyMARYRERGRjTHAIiIiIrIxuwZYDx8+RIUKFUKViRMn6kcQERERuR+7Bliy2mjz5s2hSkxM3iMispXatWvjgw8+UKVWrVq6logi4/bt29i7d29QkXN3wiFCIqJIkq1yZs+erQpXWxFFjaxaLFasWFBZsWKFvuIePDbAmj9/PqZNm6bKwoULdS0RERFR9HlsgNWlSxd89NFHqkheIyIiIiJb4RAhERERkY0xwCIiq5QsWRL58uVTpVmzZrqWiIgsYYBFRFY5duwYjhw5osrZs6/3kiQiotAYYBERERHZmF03e7537x6SJ0+uz17r2bMnhg0bps9iRkxs1mps9izKFSqpvpLr2LJ/p/rqqZs9J02aFA8ePFDHJUqUwM6dgc9HTIjpzZ6dibHZs2C74vqkncmSJYtHbPY8ZcoUtG7dWp9Brepv0aKFPnMDEmDZy927dyV4C1XMAZZ+RMzJmjVr0O9jDrB0rX1dvnz5jeeBxTWLOcDSf9GY4evrq34Pc4ClaxwjSZIkQc+BOcDStTFD/gbye5gDLF3juQYMGBD0d2Fxj2IOsPRf17EWL16s/n1zgKVr7Gvy5Mlv/H+bAyx9xT2wB8vMUT1YL1++xKlTp/SZ+5F8Yr169VLHMk/HXaVIkQJp0qTRZ47HHiz2YAV38+ZN3Lp1S5+5r3feeUd9HT9+PMw3GerYXcWOHVt9Ljkae7BsTIVZdsIeLM/SsmXLoOf01atXupZsjT1YMd+DZb4hM5lvIlSRY7Kvx48fB732evfurWvJ1hzdg2UOsEyxYsUKKtOnT9dX3AMnuZNNPH/+XN39GGbOnKmPiNxPtWrVVI+KlPfee0/Xkr1MmDBBHwHmD2EEBAToM3Jl5ptyNbJjlObNm+sr7sFjA6w8efKgQIECquTOnVvXUlRNmjQJd+7c0WeBE29fvXqlz4iIoubJkycYPny4PoOa2rFgwQJ9RuS8PDbAWr58OQ4cOKBK8J4XijzpvRoyZIg+CyRz2tiLRUTRJb1XMs8sOD8/P/ZikdPjECFF259//onLly/rs9fYi0VE0RGy98pw8OBB9mKR07NrgCWrjuQDNmQJ2dtBrstS75VBVkzOmDFDn5Grk2Fg6ZWUMmjQIF1LZD+Weq8M7MUiZ2fXAMvLyws+Pj6hirc3O87chfReXbp0SZ+Fxl4s9/H++++rPQilVK9eXdcS2UdYvVcG9mKRs2OkQ1H24sWLCHsjT58+rVb9EBFFRni9Vwb2YpEzY4BFURZR75WBvVhEFBkR9V4Z2ItFzowBFkWJNb1XhjNnzqgMvURE1rCm98rAXixyVgywKEomT56Mixcv6rOISS+WJJIjIgqPtb1XBvZikbNigEWRJr1XllaRZcyYUR8BiRIl0keBzp49i7/++kufERFZZqn3KlmyZPoIyJw5sz56rX///uzFIqfDAIsibeLEiW/MvSpfvjzWrl2LDz/8UNcA58+fR9++fZE4cWJdA7Rt25a9WOQWJJGusb3H0aNHdS1Fl/Rede3aVZ8FBlZyM2dszC9kQ3lJDl2sWDFdAxw6dAhz587VZ+QqpOcxb968QWXx4sX6invw2ADLZDK9Ucg60ns1evRodSy9VBJYbdy4EZUrV1ZpOQwpUqRQw4ISaPXr10/XAlOnTtVHRK4rVqxYbxSyDem9MhiBVZ8+fVRORYO0M7Vr18auXbve2IVD5oSyF8u13L9/H8eOHQsqDx480Ffcg8cGWNmzZ1f5uKTkypVL11JEpkyZorroJbCSN0PIwCqk5MmTY8CAAbh7966ajDpu3Dj2YhFRKNJ79dtvv6nA6t69e6ECq5CMQEuCKgm04sSJw7lY5FQ4REiRUrFiRYs9VhGRrn6ZJ7F+/Xo8fPhQ1xIRBZIbth07dkQYWIUccQjeoyWb9xM5CwZYFCk5c+YMM7CyJuCShlOGD8n1yNDw0KFDVZFVpES2lDZt2nADq4hI+yPtE5GzYIBFRFaROXW9e/dWZfz48bqWiIgsYYBFREREZGMMsIiIiIhsjAEWERG5DKbVIVdh1wBLNvjdvn17qCK5kcj9RGZVIRERkTuza4D16NEjlClTJlQJnkyOiIiIyN1wiJCIKJLq1KmDIkWKqFK/fn1dS0SR4evri9mzZweVcuXK6SvugQEWEVEkHT58GP/++68qR44c0bVEFBlZs2bFBx98EFSyZMmir7gHjw2wli9fjgMHDqgSfD8rIiJyXpzkTq7CYwOsPHnyqG0VpOTOnVvXUnRwkjsREVEgDhESkVVq1qyp5h5Jcbe5EkREtsYAi4isIpNQFy9erIrsS0hERGFjgEVERERkYwywiIjIZXCSO7kKL/OL1W6v1nv37iF58uT67LWePXti2LBh+ozcRe/evTF06FB1zEbQfipWrIiNGzfiwoULyJQpk671LN27d8eoUaMwb948NGrUSNc6TrZs2XDu3Dl1nCNHDpw8eVIdx6SzZ8/izp07+sz9FCtWTH395ptv1JJ+dyW51WJqwZCsqK9bty46deqEMWPG6FqKKgZYDvT06VNMmjRJn7mfRYsWYdWqVer4559/Vl/dUcGCBVG+fHl95ngMsBhgWdKqVStMnTpVn5Grki3mfHx89JljMcCyLQZYDnTz5k2kTp1an5Gr+uqrr/Djjz/qM8djgMUAyxIjwEqZOiWKliyia8lVrFwceHPKAMt9MMByoOABVne/7uoruY4NqzZg97bdDLCcQEwHWPLvyl6rInHixDHyO4RkBFhTF05lgOWC3itdCxfOXvCoAGv//v1qVbJBtp2S3JTuggGWAxkBVoEiBTBr2UxdS65i/cr1+KLVlwywnEBMB1jOiAGWa/PEAGvKlClo3bq1PgOmTZuGFi1a6DPX57GrCOVDsnnz5qp8/fXXupaIiIgo+jw2wJIJ2TNnzlRFonYiIiIiW7FrgBU3blx07do1VInJFVhEFDUyJHn+/HlVrl69qmuJiMgSuwZY8ePHV/MkQpZatWrpRxCRq5DJp1mzZlWlQYMGupaIiCxhJnciIiIiG2OARURERGRjDLCIiIiIbIwBFhEREZGNMcAiIiIisjEGWEREkfTbb79h9OjRqvzxxx+6logiQ3aiqFevXlDJmDGjvuIeGGAREUXS0KFD0a1bN1WGDx+ua4koMipXroyFCxcGFV9fX33FPXhsgPX555+jR48eqnz66ae6loiIiCj6PDbAksBK7jylyMaxRERERLbCIUKPF4DbmyZjaJfu+LTOB2hSPXhpjjYffwu/gQtx4pV+uAWPd07HgA4d8FGN19/b9MMx2HYnQD/Ckpc4NH0E/Dp2RMug72uBdp/0w5BxW3ArvG8lIpcQcHM7/uzdH92a/S+obTDKh42/Qq9uo7HwaDiNC55g7+8D0eN/LfFB0Pc2w2dDt+FeeG3Ei0OY29cPPT5q9fr7an+CLl2GYNL6W/pBRPbFAMvjeeOtCq3x7fcj8cPA8vA6fgRHDpjLobvI1GYwxv05FH796iNXLP1wCxKWbIH+v/yEMSOaIs+rczhq/v5D6/9Ar87/4HyYbWds5G/RA37jfsCAJslw8eAJvCjZGaMnDkTvjuWQkq9Mp3Px4kXcv39flXXr1ulaorB5pyqNj4cMwKjfe6C816nAtuXAMdzN2hxDpo7BsFFdUT9vOI0LEqBou34YMflH9GuVB/6nj5q//xC2/Pwt+sy8gDCblzj50XiQH0b87od6yS/i6JEXKNp7FEZ93xttKqXUDyKyL36MUZCE+X1RMrOPOvZOXQYNG2ZHfHVmjVhI8e77GDBjMOpkkpdVAG6tGoHuI/fhceADwhAHmauVQc44qVGseiEk5SvSaSVJkiSoJEyYUNcSWSFRHlQslxGqdfFOiTJNayF7AnXFOrFSmG/I/DBhTB2kV83LLazv2x3jdoXfuiBuZlSsmAOx0xVDxaJJ+YFHDsXXG73mk9D8wemlDr0SJkKiwMNI8U5dGAWzGC+rpzg8ricGLrhqDrfC5mP+sI7vHQ8JEkThHyQiF+CNBIkSQL3DvRIgcZKovNe9kbJ4QWQKvAcEnhzGpI4DsfxyuK2L+ne94yVAfDYv5GAMsOgNXkYj5OUdjReHD9IXL4J00vP/6gqW9vgWfx56HnjJEm+v1/8uEbml1+9x8/s9Op88PulRuGQ6qObl4jIM/PJPHH0WeMkSc/OiAjs2MeRoDLDIDryRtHw3jOpaGInNrZrp/m6M/fw7bOLMdSKKLu+kKNVvJNoXT2wOmkx4sO1ndO+/CeGuqSGKAXYNsB4/fowGDRqEKn/99Zd+BLktr7jI3+k79GuQXt1pvjz1N/p8PRdnw1swRERkBa/4+fHJ+L6olUm1Ljj7V1/0mXY27EnvRDHArgHWy5cv38jSapQjR47oR5Bb80mHWiO/wydFEprvNANwe/VIfDNiDx7qy0Suqly5cqhataoqZcuW1bXkSD4Za6H/+HYoIJNFA25jo18PjN3O1sWVPHz4EGfPng0qjx490lfcA4cIyb4SvYv2E/qgenqZmfoUR37piQH/XIV/4FUilyS98KtXr1Zl8uTJupYcLWGx9hg9vDrSSvPy5Aj+/GIgllxi6+Iq/vnnH2TPnj2oSAeMO/HYAGv9+vVYtmyZKhs2bNC1ZA8+metiwC9tkE9W9vtfw4qePfDH/qeBF4mIoswHGRr74buO+SBZH/wvr8DgjpNw+EngVaKY5LEBVps2bVC7dm1VPvnkE11L9pK41BcYNaQqUpvvNE0P9uGX9iOw/iZnpRJRdCVG0R4j8W2t1OZwy4SHO8ehe7/13A2CYhyHCMlBfJC52UCM+DyvSl768sw89PtqNk6/CLxKRBRlPpnR8IfhaFVAWpdXOD+9P3pPOQ02LxSTGGCRAyVBiV4j0aN6SvMLz4Q760bjm+G7cJ93mi6hRo0aanK3lE8//VTXEjmJpCXw1YQeqJTa/LFmuoMtA7/BT1vvh5vkmMieGGBR9Ly6has3InGfGCsr3h8zHB+9E8988gzHJvaC38LrnPTuAnbs2IGtW7eqsn//fl1LZC+vcOvyrUj1QsV6uxEGj/sfcktH1tPjmPqFH5ZfZYhFMYMBFkVDAG4tHI+//o1c9hnv5KXQeUI3lE/pBfhfx6pBf2If+/KJKJiAmyvwy68H8VKfW8cbycp/jZH9y+MtaV6ursboX/ZF8mcQ2QYDLHqTSX81HwQdhuXxf5g64ykKlY7Mrq2B4uT6AEN/+hBvxzWfPHuG5xH+Y0TkLkwRvt+f4L+J/+BZ0WKI/LbisfF2yyEY0uZtxDGfPX/6POK2jMgOGGDRa6YXeKF7kkyPHuJheK3SqytY3dcPC5KWRskkuk6YnuP5ywC8eP4igrkP3khRuRu+71sGyblJGJGbM5nbBN2PZHqMRw/CbVxwZelw+M1KgtLlE+u6QKZnz/EywNzGPIsgZPJOgfL9RqOrb3LuQUgxhgEWBQm4eRhHdJK+gBtbMXvCSmzZsgd7d+4LLDt2Ycea1Vj8x1j0rPchus28hvxVSyN4fIX7h3H0zEtcO3rcisnrcZCjzVAM/igbYrMVJHJfAbdx+OCVwLmWAbewZcoUrFy/E3uMtmXnXuzavAmr587A2C8+woefzcfVwhVQOqn67iAP9x/BhRfXceLovYgnr8fNgeY/D0KTHLEZZFGMYIDl8QJwe9NkDO3SFa3rDccm484y4BrWD+uKzxq3Rsv6LQNLgzZo+7+v0bP3RCzedxuv4hVChcop1Ivoxd45GNqtB9rW6Y9lNwPweN0IfNSkO/r1noId4SWk8U6JigNHoXPZZHwxksu4efMmrl27poock2UBN7fjz9790aXRRxi25qEeqgvAtZVj0OXDtmhltC31W+HjJh3Q+YuhmDD3IG69iotCVcohhWoUXuDA1GHw69AOzbsux62Ax9jStyXaft4fQyfsCHeTZ+9UFdHz184okYIhFjmel8lMH9vcvXv3kDx5cn32Ws+ePTFs2DB9FjOyZcuGc+fOqeMcOXLg5MmT6tiepCFOnTo1ChQpgFnLZupachXrV67HF62+xFdffYUff/xR1zpexYoVsXHjRly4cAGZMmXStfaXNGlSPHjwQB2XKFECO3fuVMcxoXv37hg1ahTmzZuHRo0a6VrHiYn2IyKtWrXC1KlTMXXhVBQtWUTXkqt4r3QtXDh7Aa9evYKPj+z943hLlixB3bp10alTJ4wZM0bX2o/sV/zs2TN9BsSLFw+xY8fWZ67PYzsN0qVLh4wZM6qSNm1aXUtERESOIMFU4sSJg4o7BVfCYwOsbdu24eLFi6ps3rxZ1xIRERFFH6e9EBEREdmYXQOsJEmSqHlHIUufPn30I4jIVYwePRrjxo1TReZAERFR2OwaYHl7eyNlypShSsKEkU8dR0Qxq127dujQoYMqjRs31rVERGQJhwiJiIiIbIwBFhEREZGNMcAiIiIisjEGWEREREQ2xgCLiIiIyMYYYBERRdLu3btx/fp1VXbs2KFriSgyli1bhjJlygSVlStX6ivugQEWEVEkSboZ2VdUyltvvaVriSgyJC/m9u3bg8qtW7f0Ffdg182enVmhQoXUZrkie/bs2Lt3rzq2J3kxcbNn1+Xpmz07k5je7NkZGZs9d+vfDUVLcLNnV/Nh7ebqqydt9jxlyhS0bt1anwHTpk1DixYt9Jnr89gAKyZ2wzcCLNFzUA/1lVzH+pUbsHPLTgZYToABVmhGgEWujQEWAyyXF9MBFrkuTw2w/vjjD7x48UIdy+v4/fffV8cxgQFWaOPHj3frjetv376Ns2fPolixYrrGPUmQIbugxAQGWLbFAMvMUQHWkydP8Pvvv+sz9/PgwQP88MMP6NWrF+LEiaNr3c+7776LChUq6DPHi6kAK2nSpOpvLEqUKIGdO3eq45jAAMvz1KlTB6tWrcKZM2eQMWNGXUu2xADLxiTA8kRZs2aVwFIVc4Clayk6vvzyS/V8/vjjj7qG7MHX11c9z+YAS9c4RpIkSYLeM+YAS9fGjG7duqnfwxxg6RpyZ7t27Qp67XXo0EHXkq0tXrxYPcfmAEvX2NfkyZOD/q5SzAGWvuIeuIqQbOLixYsYO3asOu7RoweeP3+ujomIomvAgAH6CPjtt99w6dIlfUbkvBhgkU0MGTJEH0EFV3/++ac+IyKKOsk5tnTpUn0GvHz5EsOHD9dnRM7LrgGWv78/jh8/HqrIZG9yHzInIuTcsmHDhqmGkIgoOoL3Xhl+/fVX9mKR07NrgPXw4UPkyZMnVPn+++/1I8gdDBo0SAXTwckE7OnTp+szIqLIC9l7ZWAvFrkCDhFStEiPpKwEsUSGDUMGXkTuQFY6ValSRZWWLVvqWrI1S71XBvZiub5SpUqp9CJGkdXJ7oQBFkWLn5+frETVZ286deoU5syZo8+I3Me2bduwbt06VWSLD7K9sHqvDOzFcn25c+fG559/HlRy5sypr7gHjw2wZs2apXIJSeFQVtQcPHhQPY/hGTx4MAICAvQZEZF1wuu9MrAXi5yZxwZYJUuWVMkipbhbt6Sj9O/fXx+F7ciRI1iwYIE+IyKKWES9Vwb2YpEz4xChG5AhurCG6exFNseeP3++PgufTIJ39O9Htic3JWXKlFGlYMGCupYo8iJqD6zpvTKwF4ucFQMsFybbCnTs2BH/+9//MHPmTF1rG9IASvLQsPTr108fRey///7DsmXL9Bm5KtmmZOvWrapIskeiyJAbsi+++EItCgjv9RNW71VYGyCzF4ucFQMsFyUBULJkyXDjxg3MmDEDCRMm1FeiTlb8yX6JMnH3ww8/RNu2bS3eacoEX0sBU4oUKdTX+PHjq6/BsReLyLMlSJBApe7566+/4OXlpWtDa9WqlT4KJO2K5NUrW7asOp88ebLqTQ1u3Lhx4d4QEsUEBlguShoo2fw0TZo06rh8+fL6StRNmDABhQoVwi+//BLu6j/ZbDg4WWord5y1a9dW5/K9sl1O8EBLNgaWjUSJyDPVqFFDbbIvQrYhBum9Onr0qDpOnDixCqxkU/6ePXsiVqxYql6+V1ZuLl++/I1Aa+jQofqIyDkwwHJhsjpPhmuKFCmierOiS5bJSl4rGW4Mqzt+/fr1QRnaJahbs2aN6tGqVatW0GpBueOULvuzZ8+ic+fOqk6MGjVKHxGRp5H2YcuWLciSJQuyZ8+ua98kc6/eeust9OrVC5cvX1aBlQRaIclNZc2aNVWgNXfuXBQrVgyTJk3iXCxyKgywXNidO3fU/CZfX194e0f/TylBlfycsH6WDPH17dtX3Ylu3rwZmzZtUokWje5+I6moEZxJ79oPP/ygsrp/9tlnKhCT7yMizyN7lEobEFZ7JVtulStXTt2YSW+UpcAqJGl73n//fezatQuLFi1SN4BEzoIBlgszghVpsBxB9pCUbY5WrFihGsKQjB6skL1fmTJlUsOPJ06c4DwJIg8lw39Pnz5V7ZVxUxac9GqF1WMVEfl5cuP30Ucf6RqimMcAy4VJD5LcCdpi/pU1UqdOHW7OMKMHK6weMJl/0bx5c31G5Lr69OmjbjakfPvtt7qWwmP0LlWqVEl9JZI8iWPHjlXl559/Vjfh7oQBlouS3iIJsGTuQdKkSXVtIBnKs7aEJ6LrIYUcIiRyV7LC9uuvv1bl448/1rUUFmmvZNeMHDlyqDlYREJGYTp16qTKl19+qXYHcSde5g9Ru62dv3fvHpInT67PXpNuYFkdEpMGDhyoVqdIl7WkOPj999/1Fddw69Yt1aPUtWtXjBw5UtcChw8fVnfX1pLVfrIKMDgJlOLFi6e68levXm2xO9+SevXqYfHixZg9e7ZqSMNjzc/kYyyTVVSSnkPmtsnwqyfq3r27WjQxb948NGrUSNeSs3r8+LGavC45+6La1sp8T0khI6sJg78/LL1XolrnKt8nbPWzgp9fv35dfZWAZ8yYMerYnuTfCL4QSlaaG6vR3YHHBliyvFcmRgoZ83/w4IE6dhX//POPmtwZ8gX56tUr9eFrrZQpUyJOnDj6LFBUAyz5PZhQ1HEYYDHAchWy2rhatWoqB5YEWVFhBFhp06YNStlg6eMrqnW2/FnCnj/fXj9LjqW9b9++vUNWfUvCasmRaJBh5LBSeLgiuwZYkrRSuv1CkiX9EhzEJJkQKZmpDZJ6wHjTOpoxOdwaxvwmucOQfFW3b99WK3OKFi2qerRswQiwZJ9GaRitDbDee+89NQFentvwJqpa85JzxccIR/57f/75J1KlSqXP7EtuliTYloAuc+bMaoVoTA4FM8CKOVFpr6RXfciQIWqRy6lTp9QwoZETy1pGgCUjDxxmdA8NGjTAwoUL9Rlw9epVFUC7C7sGWM5MVpvIVjMGSW6XJ08efeY40lh16dIF+/bt0zVvkj+PFOmZkrlW8mKUHicjwZ4EV9LwSM9RokSJVF10yb8lSUJl8vzatWutDrCqV6+uPoSlAX377bd1LbkD+WCT15lB0nXIMHtMYYAVM6S9knx5x44d0zVvCt5eyU2W/H3ka9WqVVWPq0xqlgTJU6ZMifQHqRFgSRqHrFmz6lpyZbJyVP6eQjoIjCFKd+Gxk9xlcnhwO3bs0EeOJ8lCZbKfFHmBSa+E9BJID6Ak5pPrkgld8sQICXikB0F6mWSoMG/evDbZKufAgQMYPXo0/Pz8VAMpQafcdUqd9GBEJKJVhOS6JGgOLqI5duSeJHgy2iopkrpF2ivpUQrZXp08eTKol1M+POWmTQKkJEmSqPaLPJtMyzGCK+GOG8h77Cdh6dKl9VGgmAqwpMEyghfpRpdJ6pKZWOaoSXepQXqtpMdNgioJsGR4ULa1kR4suZO3tpcpPPK7xI4dG+nTp1c/X3opJCu7tQETVxG6L0loG1zOnDn1EXkSaSMkwbEYPHiwWvUl7ZXciF25ckXVC5luIfOt5MZP2iZJZyE9UAsWLMD48eNt0l6Rawu5YlA+z9yO+Q3jkZ4/f26KGzeuDI+qYo6e9RXHevnypSl58uSmdOnSmZ4+farq5HerVKlS0O8mZezYsaaAgAB13VmVK1dO/a6XLl3SNeQO5HWXMWPGoNdi/PjxTY8fP9ZXY0a3bt3U7zJv3jxdQ47w4sULk/kGypQtWzbVTolnz56ZKlSoEPT6kDJ69Gibt1eVK1dWP/vs2bO6hlyZOeh+4zUzZcoUfcV9eGwPlvQIycRww6FDh9RO744mcxru3r2Ld999V/1O5r+JGqILvuXDhx9+qFZ1OPtdn/y/CPZguZd///33jT3eZDVYggQJ9Bl5Emkjpae6cOHCqrdb2qvevXurnHyGJk2a4KuvvrJ5e8VeL/ciPZ/BhZfE2lV59GSZ4PmfJDiQCdqOJg3U1KlT1eam0oBIHqngKSxy586NcePGqWE6eawUZ8UhQvcke7wFJ/nOKDSZj+Tu5CZQ2qtu3bqpc/mQlDmahly5cmHixIku0V5RzJHhZJneYsifP3+MLDKzN48OsOROPLg//vhDHzlO3Lhx1YpGWbEnk9iDZ4WWXoJZs2apXGK//fabWi3lzKssOMndPQVfRi03AbIKjAJJUCXbfMiiGZmXJhO93ZmsVJb2SuawHj9+HO3atdNXAtsrSTIs7dWkSZPQsGFDtXKQKCSZ5ys945JkVHIxNm3aVF9xLx4fYGXIkEGfQa16efbsmT5zLGmYW7RoETSBVEjPlQwdyl2g5JeSCaK2WC1oL+zBcj+yHD/4BHfp9eUKsNckxYrkpNu7dy/u37+POXPm6Cvu7dGjR2jWrNkbCZplYYzRXslogATmsnKQyBJ5rfzwww+qN0uGlN2RRwdYEgi0adMGNWvWVBnR5cNEVuk5mgxPfvPNN2pps+HTTz9Fy5Yt1fHz589V1nm5e3TmBosBlvsZOnSoPgpUv359fUTik08+0UeBZLWcpDhxZ9JeffHFF9i/f7+ugcqNJT1b4sWLF2pVtqwktLSTB1FwMpcvvMTUrszjx3JkQvny5cvVNi8xNbQlw4DSW2UoUqSIaqjl95HGTJY7X758WeWbceaJnpzk7l6kN/Xvv//WZ1C9p8GHhAhqaF/y0Blk6bkM57sz2UtQEoUaihcvruZhGe3V9OnTcf78eTX0w4np5Mk8PsCK6flCJ06cUCsEg5NVOJIBWbrcmzdvjs8++0zVO3uDxR4s9yI50CQvm/SkyuuuQ4cOasNeek2eF8kBFZzks5MtrNyR9FqFHM6Rbc8kEP/555/VimcjCGeARZ7O4wOsmCbzqkJuNC0rClu1aoWOHTuqSaPGShxn78FigOV+ZCsL6a2QNCbGyjF6k+ynJlvBGKTnTzaxdUcSSIWcpyqb97du3VrtOytz0FylvSKyN4/di9BZyOR22QDVCE6MP4elP4uMUzvzJqeyfcrp06fV/wtXEpI9OdtehLKtlGz1Ycy/ktf/nj17VL4od/L48WM1KVne49JGhddeyZCytFe2CrIkiJW9UWW1dWQ3iiaKCQywyGak0ZOd7vmSIntzxs2eZUWhrIoySNoGWZySLFkyXUPRwQCLXA27GchmZIIrhwfJU/Xv319tamyQtC//+9//eMNBHs2TX/8MsMhmZNiAARZ5qqRJk6oVv8bwuKRUadu2LechkceSRRElS5bEqVOndI1nsWuAJfOLJDN5yBJyDyJnt2XLFpUji8LHAIs8XfXq1fHdd9+pZKwbN25U2cyJPJHMx5Uck7t371YJioNvjeMp7BpgScK5yZMnhyqS9dhVrFmzRjWaFStWVEvWKWwMsIgC52JJPizJD0XkibZu3YqyZcvi2rVr6lzSlkg6D3ffSiokDhGGY+nSpWrftadPn6o9AH19fVVSUrKMqwddz8yZM1U6EM4Tsh0ZEpQUBWRbHGp1DbLZd6VKld7YN1eGy2XkSvar9CT8NAyHvCiC98hIFF6rVi2VaC+m9ix0Zpzk7jpevnyJ3r17q0S2ktB24MCB+goRUeTJiJUkxZZtk6R9Mcj2cxJcSY+Wp2GAFY7KlSurTZZlD8DgfvrpJ5QoUUIlX6TXOEToGtavX6/yMwXfZ1C2jJItToiIIktyvpUrVw6//vqrrgmUOXNmNVwoHROeiAFWBGSvMZmcly9fPl0TyJhjIR9M9+7d07WejQGWc7t06RKaNWumbhxCzieU/S8rVKigz8iRNm/ezCFaclnffPON6nCQyezBybxlCbykbfFUDLCsUKBAAfXikR3kg5NhwgEDBqikd6tXr9a1nosBlnOSjcJl65Y8efKorZdCkqBLPuQzZcqka8hRNmzYoALbokWLYuHChUGZ4IlcRcaMGUPdIMg0mlWrVnn8XEQGWFaS+Vhjx47FkiVLQr1oZGVEyB4uT8QAy/nIPnGyXcmgQYPUNifBvf322+r1LBPdPW3yqTOQOYvG/o7//vuv2tMwbdq0+PTTT9UNG4Mty9jb51xkzpXsWSrk9SvtyY8//ojYsWOrOk/GACuSateurYYHP/jgA10DtGzZEunTp9dnnks+MLiK0LlkyJBBBb7Byc3C4MGD1RxCeT1TzFi0aFGolDWykOa3335TqWHSpUuHdu3aqfMdO3ao1cxEjiDBvbWBbJw4cTBixAg1VHjixAnVI06B7LoXocxNSp48uT57Te6qhw0bps9c14EDB9TqqyFDhiB37ty6Nnzbt29XQ43yoowoGJHkbKNHj9Zn4bt586a6A7aWpJtIkiSJPguf/L5yhx0eeRnJ/5tsFRJ8eW545ANG3pjWeOedd9QHjTVk6LZKlSr6LGIybCbd3Nbo1asXNm3apM/CJ1m827Rpo8/CJ0NFsqrPGjKUN2vWLH0Wvlu3bqngX1b1yDJ3yUUjrymZfOrKnHEvwsiSwFdeezKPU7bViYjk5LP2dV2/fn31t7eGvB6krbHGuHHjMGPGDH0Wvho1aqihaWvI/3/r1q31mWUyb/D+/ftqOFXm9lhLtis6e/asPguf/C2qVaumz8I3depUlZLAGmXKlMHIkSP1Wfgkd5S8T60lC7ESJ06sz8LXvn179bkVkrTf8nqUlYB37txR0wquXr3KdCPRJQGWvdy9e1eCt1DFHGDpR3ieOXPmWHxOLJWaNWvq74rYpUuXLP6MsIr5Tll/Z8R8fX0t/gxLxfyG1N8VsV9//dXiz7BUSpQoob8rYo8fP/5/e+cBFsW1BeAzW+jNgoJYUBCsKGLFgoLEXrBrrGBsiSVqTIwxaEzsGsVEk1gTTWJv2J5YY2zYFQsJsUWNYgEVFMLunnenAAvMLgu7GE3O/333PTM7d5g5c9qdOfeO7DEMNebcpZ75w5JY2WPINeaspV75s3HjRtljyLXKlStLvUxjyJAhyBJDvH79urTlzWf8+PGCLFiCJW15c2HJL27ZsgV79+6NDg4Oee53Zrt165bUI3/c3d1ljyHX2GBL6pU/mXI3pbHERuqVP+fPn5c9hqFWEKpXry57DLnGkkepV/5Mnz5d9hhyrV27dlKv/OHvs9wxDDU+zppKkyZNZI8h144dOyb1IgoLvc95xfCjg38ztBjg6wc/yuaXZOAnYxCvHyqVSnj6zD8ZSkxMhM2bNwNLtsDe3l7aA8Da2trkp6wEYQn4T90Q5kEJ1iuGfwzr4uIiOE++sNhY452qqfCJjdwxDLWCwC8UJ3cM/cbX9fAUpMidDyxyx5Jr/DkUBLljGGoFSQr5eyJ3DLlWkCJPXm5yx5BrmbIm/n3w95b/fiGfbPGv/U+ePAnLli2DyMjIAtU38seR0x25VhCb5XVa7hhyrSD+i782uWPot8zrL6j+v2my+Kd8OV8yUrJkSfD09BRmtvLbCPOgGizCIqSkpAh1APySFnLv+AnCkvwbarCIgsHXRvF1aPyTlcxZawTxOkNPsAiLwM8g5KFlGgiCIAiCEizCQmQuBUAJFkEQBEFQgkVYCEqwCIIgCCKbIk2w+Jqc+Pj4PG3s2LHSHsS/BUqwCIIoSmiGMvGmUaQJFh9sfXx88jRavOzfByVYBEEQBJENvSIkLEJmkTt9KocgiKKkCCe+E4RFoWhIWAR+TSv+cxv00WuCIAiCoASLsBD8V9T5bxEuXrxY2kIQBEEQ/10owSIIgiAIgrAwlGARBEEQBEFYGEqwCIIgCIIgLAwlWARBEARBEBaGEiyCIAiCIAgLQwkWQRAEQRCEhaEEiyAIgiAIwsJwSMviEgTxhvHBBx/A3LlzYciQIdClSxdpK/FvpnXr1sL/JyQkgJeXl/BvgnidoQSLIIg3jswEi/jvQQkW8aZACRZBEG8cmzdvhn379kn/RfyXmDp1Kri6ukr/RRCvL5RgEQRBEARBWBgqcicIgiAIgrAwlGARBEEQBEFYGEqwCIIgCIIgLAwlWARBEARBEBaGEiyCIAiCIAgLQwkWQRAEQRCEhaEEiyAIgiAIwsJQgkUQBEEQBGFhKMEiCIIgCIKwMJRgEQRBEARBWBhKsAiCIAiCICwMJVgEQRAEQRAWJv+PPSfvgdEhg2FTRiuYv2cp9ChTiJxMEw/Ri6PhWnrhvyvN2VWHzsPagrdS2vAm8/d9OL3tJ1i/6zCcupQAdx49gzSwBscS7lDBpxY0CukEPbuHgK8z5b+vC3/HbYavd/8BGs4eanQZCm0qvaGK+Jrq3j8lX018NCyOvgaFd00c2FXvDMPaesO/wTWZjgb+PPAVzIzaCEeu3IHkdBXYMx3y6/8lrBtTV9qHsCS6xKOwevUxSNRJG3LBcQpQWduBY3F3qFS9HtT38wB7g2acDKd+WgGH7mpBUawu9BrUAjxeEwX+1/haHj7BMo4Gr84NQkdOiWW6r8E7WmlzQUhdjz1dON6FFbopSvTDLS+l472xaPDu3inYwdsBFZz8dYqNQ3XJABy0OBafFEbehMVJXtEerfl7oyiNg7a/iYr4euvePyXf1PU90cWoPPJrCizRbwu+8a6pQGjx9tq+WFGd26erse5ncdI+hKXJODcZa6n15W2ksXjtUCEI3/nqKCbK2bEmAWc3Vgv7qrzH4C/p0vbXgDff12ZjwjBVCVWGTYHwygr4a/OH8OHmB2AggSaMooOHu0ZDaKepEJ2QAjrkwNq1CjRu2x36RbwDg8P7Qfd2TaFaaRs2JkbIeHQGVr73FrT77Bg8l45AEIWDdI+wIJoL8N30dXAjg8VnzgrcA9pD34hw6NejK3Rp5iXtRPyjoBZSbh2GpSNDocXIHfCAgvY/g5Ro5QMbsXzXDl0UbHTrMwoPPJc2m4wWNRkZmJ6enrc924z9SymETFrpOQJjnsvsw1pGhoYd5Q3meQyO8FKx0AbIqT2wzRf78Y7cqCH9LzwS1RN9bMXRIaeuhuOPpEo/Ev8U6Vd34reLF+PiJavwwE2NtPUN4Q3QvX9MvloN8y3yPufZ5v5YSsE/EVCi54gYfC6zT3p6BmZo/mOPmZNXYgdBRzi0bjgdr2RI24kiRf8JlnXHlZicSxfTXqZgcuIdjD8dgz9M6YZVHcS4CspyOHDrY+koEvQE65VgYoLFSN2P71ZSIXAOGDTvGlrMBb7chgMyE6yK7+GBNGn7v4znG/tgScFZq9Dnvf34TNouTwZeWxDCElp+fwWW6PEz5jIPgjAZ0r3C8XLbgKwEq+J7B/Bf6poKjPbOQmxhJcqlwvB9JJdXRI4Eq9MPaHzoo8VbKzqjq6C/HDq2XYp/6Y8DKMF6JZheyWrXDAb3rQFqSIFfv1oIB1Ol7YQJaOCPi1fhKf+YVlkamrVtDI7iDwZQgW/ESOhUmr89Okg+dhBOpYu/EETBIN0jLIxWJ5WJcKBSq9n/Eq8fCijfYwC0LsHbMcKLuDMQlyH+Qrw6FIEhYTD4028hJiFF2mQIFdTs2Q1qqzjQ3loHS7YkSkb2CtBeh2971ISqVapAteaR8Ovf0vYcPIWt7wYI+1SpHgxTj8vuBI/XvwP+Vdk+NdrDvIsaaWsmaXDr8EqYNrI3tA1qAHVq+UP9pqHQZfAk+Cr6CvsLhUfBSW5I9xwS7z/NX3Z2TaDXyAgYOmo8fDSsJZTVm0ihu70c+tRk11ClOrSacZqFUHk052ZBm+r8fjWh19KboJW250aTeB42zx8HA7q0gmZ1a0PtuoHQsstg+HjxHvgtnyKcwvfVwsMzG2DeBwOgY3Ag1K1dG+o2DoGwiI8havvlfGWtSTwDG+ZNgPCwYGgU4Ac1/AKgUXAn6D92Fvx04h4YywkK0zdl8zCoxetWtSYw6ZC4hzb+K+hSsyqTbzUInBADRsccqTEwIbAa27cq1B60Bv7KowDmycMYFtG9IrZBOfkKJG+Ad2qx7VVrw3vb09iGNLixfwlMHNgRgurVAj//BhDUri+Mm7cJLjwxpOGvAN0DWDPQT7i/9cbtgbS032Dr1AHQqmEdCAgMhW7Dp8Pac4+lnSVe3IIja2bD+PAuENqkLtSuWQNq1q4LjVuGwaAP5sGGcw+ZVuQlecM7gqyq1n4PRJHcgP1LJsLAjkFQr5Yf+DcIgnZ9x8G8TRfAqEg0iXBmwzyYEB4GwY0CwK+GHwQ0CoZO/cfCrJ9OwL0chqCDhz+Fgx9//0NmwWnhtmnhzzX9hW28L3pr+inIfcfTbh2GldNGQu+2QdCgTi3wr98UQpl/mPRVNFwxoNS6B2tgoB9/z+vBuD1pkPbbVpg6oBU0rBMAgaHdYPj0tXDuMdPiLN0IgDE7eUE8h9/2LIYJ/dpDiwb+UMu/IYR0fxdmb72qV0vIruPcepj5bjdR5v71oUXnwRD5/UlIzEd9tA95v/EBDOgYDIGCr2sMIWER8HHUdrhsyEALoxeWQl0MijlJz1CUysLNck27BYdXToORvdtCUIM6TKb1oWloFxg86SuINnQDc2FOfJFDl7gPJr0l+qIq1RpAv+8uM6+gR4H0uugRHhNyNp7YfuYRfGysnCDjPH7qzz9W5NCh9Td41xKlBya9IkzH4x9UQRV/rupaOPmczEv/l7txsIdSOI4wm2XaZZnXmMm4vlcJ/rEdKisMx316fyvj9m78tE0FtDE0o4hTo1vgKFyfULhnqSnbB6G79LhW7d0Xf7ha+NoWTcJsbCw8Klah95hfmHTkSf91LPqo+P3U2HCGzGtd7QM8OL0TVrZXCPU5ea+bQ9tKnXDusSSpgx7m9E25hMvDa2NxlYGZpZwVujUZi1tuyBV3aPD2tvexfgmlgb/LdFnhhFXfXooX84i48H1lH1tnXMQpAWrhWAq3AbjVSG3isy390I2//5w9hiy6mbOe0Cx55I9ldK9obdDga4FH32Fra14GNth5xQVcHV4DHYVryd3YtXm8hbOOG38BWhAK9IpQewejWlgJ5+HcbTZGdSyDbCyafX6cA4ZEXZd21uCdnZOwZTkbg3rIN05VAhuM24H3cvnZR9+1FmTF2XTGFRdWY3gNR0GeeY7BfJbHW7NQTiSa29vw/folUGnQ3ynQqerbuDTLELR476sQtJLbV2gq9Bp1ONsXZdzG3Z+2wQo2BnSav19ugThqfUIe/6W9EyW+guScsdvsKOxYRqwfzOzLOYRg1HWmWVm64YBdV57Ab3pURju562E27f/+LnygeYK/zmyL5a1lzonZmGe35Rgva2IpeGl5ONYunvM8shuHVm5NcOyWG5ine4H0wjgFe0XIx4l52EyQvwKLd/0x56v+fF8RZuDt3Z9imwqGdZRTu2HgqPVoMCQWMkYYe0WofXwIP2nkIuq7whnrjt+D9/Xso+B6XbTA2N4NsIyVpHCKEhi68HJeJckiDQ++VxFZJoycYwdc8cACGZaJNVhpB97DikpeQNbYbN71PI47/cQErCokE3zj0K7VNznfOfOk7sQIIQAo0SNiR5aCau9uwggfa0kJWF/PZth37Gc4d8F8nD5xMLau6iLdMN6Jd8al1woR6NJi8dMA2yxF42w9sH6393HOmv0Y98Co686DZRKsZ/jrJ3XRUVJEzqYsNuo5GiPnLMAFsyZhRKg3OkiBTFGqAy79Q7+3GX1fnsN5LV1FeTJlt6vQFHuPicQ5CxbgnMjR2CuwHNpmyrpib/zxRs6z1vy+CENdeH3hUOFYGVsO+gA/m7MQFy2cjZEju2JAKTHh4R1mjQ+P5pg+b05feaPXYPysxmjNn6+iFL69MVnanpskllS4Ck6Bc2qHy/QjppnyMAkL6V5R2mD+CZYaPX29mayZHEr5Y+cRk3HWl/NxxsRwDK7kICUY7Leq4/BITp9caAqbYKnsHdBWocRifl1x7Bdzcebkodihxbu4SYpwqSc/xXoOos/l1KWxTtgw/PiLeRi1aAHO+nQM9gmqmGU/oHDHPusf5UjIsxIstSf6ejO/xWRTyr8zjpg8C7+cPwMnhgdjpcwCZ/Zb1XFHci4jofkdF4WKQYpTOGLlloPwg8/m4MJFC3F25EjsGlAK1ZLOWdX4EI9KndNuHscd27fjtlXD0E/wP0osEzYbt7Bt27dH44G4x+J5au/ipggf0S74v2Hnic36jsXP5i7A+dMn4uDWVdFFmXn9Hth56bUcMSc7wVKhvYMtKpTF0K/rWPxi7kycPLQDtnh3k5gs6OlGuUpl2TlzaOPRCHu/PxXnfDkHJ78TjJ6ZEzZUFbFzxFvoxv6ulVtd7D5mKs5l+0QOa4M+jpKsFC7YYfndnIMfJrlz81qiq3C+zG/YVcCmvceIvm5OJI7uFYjlsiaFVMTeP97IaRcF0Iv8KEiClXFvP05pIfkcW3+cdDyXURhNsLR4d1ME+mQmopwdejbri2M/m4sL5k/HiYNbY1UXaZDKJ/Gdl2LekFj4GGHQFyQfw8+DxMEZf6/qTYjBHClIIfW6KAFemIkHJmFgMVHJFMU74LLbub1iNkk/hIlCU5TEvptTpK1mYGqRe5Zj5tCxwwpMlDaLsEA3s5FgYJxCIazzoyjZFzflOr30w6PRmw8ALBj23SQ9btDex7W93IWkkQ8clfuswLjcl5V+E7eOrINOgkJw6NR8Pl4tTJy7sgy7V8o7IuCUdli6amPsFD4BZ6/ajRf+Mh70LJFgpZ+ajP6CATHD92iPC07lTg6e4+nZwVhCCjDlWDDMHAgXvm86np1aTxxlcjbo028VXs6jQs/w3OIwrCCssaNA17BVemuvZeDZT/xQzcvMyg8/OJI3odHc/BF7lROfoijcBuK2rOOb09ew0WtvLsIQe/FcS/Zci0+k7Tl4tAa7Fud1nB9JrsFH0mbz5WE6FtG9orJBRr4JlnC+CizWdDIeyj2we3YSpwQ6itemKIPh0ZYZnRYuweL359Ch4VQ8ledeMljysay9FATUXjhg4508iSr/xOTCvFDJfjh06f5zlu3xZCZYwt9SFMOmkw/lDDSMZyenYKAjrzPsPpQJR32RZJz9REyQ2EDC74MjmMcSNDfxx17lRJ+ocMOB+obA0N76EoOEIvdcT60EtHh/bS905xNxdu7WlfvgirwOFW9uHYl1nES/zzk1x/l6DjUrweL/PueADaeeYhKRIZduuLachbE5LkaDfyxujcUEOfKNQ3v/Mbg7V9afdGAUVhXsiw0K2i7NodfpZ6diPTvxNxuffrgqr4His3OLMayC9CTbNQxX6RuoqXphAvoJlqpiMA6KiMCIHC0cB7zdDds398MyduJTI86+Cvb//lreGGEkwdLeX4u93EU/yFlXxj4r4vLIP/3mVhxZx0lMdjgnbD7/qsXii6wvSDmN80JLiwNRllzV/2hfnvW9zNXrokCaRajB379sISZO7OTqTYuTMXqRjLOZN1mNNSedMvK0y0RMnkX4HDf1FTNyRal+uEVfNixJ+q6NPVMoFVZu3VpMKlSVcUyOtDwDT08SA6yieHf8WYqEmqszMVB4jMqyWr+P8JghmWviMaql9GhS6Ykj9hUu/dU8OIpfDw3CCgYfm/KO1wV9giNwVnS8rGMxP8FKwV2Dy4qKpiyHAzYn5hq1SWTE4bR6Vuw8OVRXGI57hUs2o2/yZuzvzt9rJuvakzDWoAiTcUdEeeFvcOoAnHoxU8tScUNvF0FucsFbJAMvLeiOzULD8O3hc3FfVuQxp6+RBED7Fy7v4Cwet1hXXJNnNKrFB6s6iYtZsr59N+mZvdnyKBjm617R2CCPKQkWZxOIMw2MbJJ+7CotGKrGep9fMei/CkKhEywWALqukU212fWsxI5C4sMGam2+NZwsp27NWr5G3XA6XtO7oOwEiwX9wJkGBntJ+GNXUd9BXQ8/v5K9U+qG3pI+skGyvCFgxqUF2L1ZKIa9PRzn7nuQw8aNJliaqzgzUEzk+YHMR4YdKsZHtZRmq/LLYOzLesqmn2ApXJhNGRBlDt2wbYKz42UEkbQaw5x4ebP9mD6OPixjZOkncEJVlbCPync8Hs26oGTc3N9dTIatauMkwwaKyTsisLzwdFeNAVMvZsdFU/XCBPQTLJOaojg2nrAd/5AbbxhMsDR4dWagWCrDJyofHZONQTya+ChsKbwRYLHbcwRmh0Rz4ouML0i9iF+19xBfrTIZNpy4X3bxVHP1uijIXqbh0Q8YJqy2zpx9s3nIv+KWJWkFtpfWQHHq9rNB4ZtMAZZpeLKGOVHeIFVeOOqQnlk/34B9SrBjKMtgxIYfsIdw09VY/wu9rFpzDWc05EcZHDp3WiWNUrR4a0EL8VE2Z4vBUbeMCvz59kHoIYzMWBAxktiYgubJVdy3agaO6d0S/cs55Xwvn9nY6M231xI8l6u2x+wEK/0wjvaWHIrP+3jE4IVo8dGV4xh77S9MyexsRt+X0eFiHRI7n8azE4wGwbQ9Q7Cs4LCssMmcP6R90/HoOB+xDojJplbEcjxxz2jY08OcvkYSAMbjn7qLIzFm/J2/z+VMtPfwu7bi0xVl2cG4S89gzJdH4TBH9yxvgyKmJFjq+l+gXp6Qg6zRK7OJKuOPmWWbmRQ6wbJqhvNuGPYkmpQH+Mf5o3jyd5niqEzST+JH1UU7U9f+FPVL3rITLF6+hpLJ7Ce2oKqC449lSyT96DjJL3DoUCsCl5+4Z/zacmEswdLeWoAtpCcXtsFReMu4Q8VBUs2eqnJ2kNdPsPhYZFCU+rpR73O8LCeI9F9wTGVRjkqPd3C33IVqb+OC5uK9U5Ydgnsy93kZjeFuYmxSN56NCcaMLm0PDikrPt21ajIHs954FUAv8kM/weLsSmDZsmVzNQ90L1UM7dX6AygO7X2641enc+maoQRLewsXtBDLZTjbYIwyfgNx+yAPMZHSH0yZE18Y+r5g4KYLuKxrefHVHvOvjSYdxEcGTslcvS4KWHIu4VIXAiqz8MPOT3PtElwyNKXTphSUZmkiv9/Lv/6E+69w4o5zyzbQ2J79bc1tOHLgWtbsufTYQ3AsWcdiQgMICmoEAdXYLWe/Xv71CDySpkzp7u2FmPMaXjOhUZu3oISwNQMux/0GGl4VVJWhUWAZo1+/dmjcBPxZNsbPnrl9OQ6S8p2OZRhlsSoQMuAj+PKnGDh7+zEkXjsCGxdHwvCwRlDRSSlOfcYUiF83EjoM/glum/G3cqN7chku/8nfOA7s/epBbStxe14UUKJqQ6jn6wb2vEgZhe+rhRsXLgE/+Ye/uFsbR0NYx47Q0UDrPvsovBBMVAMJV66wO8VjBfX79gV/O3YAJpsLyyOgUQU3qNSgA4R/OA/W7IuDRIMzRMzpa5zi7d+G9vyyBrqncGBDdI5vhenuboENh1OYtajAM+xtCLaXfrCIPAqHObpneRs0FQ7sKnpDBUkPc8PZO0CmaLUaQ/NqXw0Kh3LgyTJnQyjtS0GlWoFQ3zvXghma53D38lHYsXoBTH73E9h0U3KuqOOjRl6YHCt6VzAwO4zZp0OWREBfJFb1+0Jffzu2B0LKheUQ0agCuFVqAB3CP4R5a/ZBXGENgZHB/OJvokOFyo0Cweinax0aQxN/a0HftLcvQ1weh6oAh3KeYESUEhzYeHqDp6wg1KCWtivcyuaYjZ2FwgZsBL/O4B86iP8C7Y0LcCnbQGF0mLxtCq37bDgqGihoEq7AFRkDzU8vCoJV6JcQ/+ef8GeOdgfuPXgCKS8eQ8LRn2FKmA/w1Qupv22EMZ2GwM93c8tXhgx2H35jNsr+qarcCAKN30Bo3MQfxJB4m8XSJGGGsjnxJQeYCr9+0hFGbL4NwkcDFMWgWoOaUMzAKRWlXheW7FNVukHpkuJ/6p4+gieGPLjCERwyvyCZmgLPM7XxFaBwfQta1+c/56GBK78cBFFfNHD10K9wV8uBlX8QNCtRHpo29mLmzRLAM0fg+EuhKzzetw9OpbOBuU19aNumtHThGnj8+Ik4bZ1zBff8PmRtx2TkzGsTgi7pMTy22LWroJhPE+g6fAos3nwMEm6dh3UftwQPlrbzAfXOxskw+9ALaV/z0T18AE90/MkrwMW1FHNBplP4vhp4cP+RKGvMgDuxOyE6OtpwO3CZ/R1hZ3ialMxChIiq9oewZmkE1HYREwHMSIYbsTtg5ezx0C/UD8q6eUOTHuNg0e7fIPfCI+b0NYpjKLzdqRwLdAjPD2+A7feFE2fo4PaWjfAr73hZAt+1TyCwkZmEZeRhPgXTPcvboKmwBIslDAb7KBVZv71ClyQLZ2fPApv0H4Zgyfi1PUth6nt9oVNwA6jp5Q7O9i5QrkYT6ND/ffh8WQz8nipdiaELYglWli+WQakwIBFVbfhwzVKIqO0CStEQIPlGLOxYORvG9wsFv7Ju4N2kB4xbtBt+K5AhME14/FjSUw5c3Y0PWJlDBbfSzqIt6pKYL859oeye29sLvxuHBXJHh/z1ycoabPI/WBaaB/elwQFCxp1Y2Clnl1ntAFwWLxzwaRIkyxioSXphCVQuUCmwF0RuPABLe3gIfklzdyNMmXtU2sEIGhbXpOvgXN2NJ8gMO7fSIIZEHSSxe8/fQXPiSw7YIC/h6i34mx1HwRd1am7CD2Mnwf+eSL/npgj1urDoiY+DzOVy+K9ys+sxgJL3ZQL4dzr8Ld6LV4OiDLRuVQf4esS/zx6Cw8lsm+4OHPqFH0mroErTIPBQWIF/88ZQmmXEuicn4ch5fmWWp3Bo71FIRQ7UddpAG4/sy9YJisDD30Tpn6agVOZv0BK6Bxdgz+afYOWSRbDxQv6JksKlBnT/YhtsnVhHdAhsdPC/7afFHwsCG43JotFlBWhFgS6aYUZfTeYwWlES6vceAe+++65JbWgbHz0jtQKfPkvh1LWTsG72aOjW1AeKW2UqK3OEyX/A0Q3zYVQ7f6jbfzUk5HiYYU5fY9hBs7e7ghf//jHlCGzceldMnLTXYeOG45DG613N7tCnbs6hnGXkYRyL614R2KBpcMwnKUwItq8B7DzlBuSZ/H19I4xu6gt+bYfAlK9/hO0HYyHu+n14xjtTlQN41GgO3UYMhVAPY0dh8PIw7KiNYuXTB5aeugYn182G0d2agk9xqyzZ8gOPP45ugPmj2oF/3f6w2nRD4B2qEGR5CuYfsuOKPpwiHxkIcEIyaXHdYPYpXrkCStbvDSNkbFG2DW0DPnIGmo9eWByFB3T/KBxqCOeigesxu4TNxtFBdkjMHrSYgjLzBpoTX3KjcIF64zbDlnE1gX/znPHHChgzOQZ4tyNHkel1YZFeFWbVR/CbFO4RuCNnmUk2aftweHnxvbm6TiReMLfKvQA1WDwZl6ZiAP8eWlEaB2xNQe2jVdiJL2JUVsARmYvqJP2IXYV6MjU2nH4NNak7xNlPnBrr5Vib5yVuG1hKLFzni4cv5XMxSauwozBjjEPr0CU51t8wxsvoQVhaqOVQYZUPjptcH6K5+gU2EN65c+jY7WdpK//6PLsGy2vUIYPHS4sZJhZe8nLQq8HSXJ+LTYX+CizWZ6PR6b78t9r0L7PwfTPw5EfVxRoovk5np+XejmckJeCvm77Bz0b2xOa+xaWpuKwpnLHV4lzTpnNhal9jNVgCGadxkp9YX2TbYiHeZBeuuTodG/JLoHDW2GhGzlk2RSkPfSytezyWtUGR/GuwlOgxeJfBmgpT6xILQmFrsJTlhmGMoZ2fHcLxNaXZnJwSXaq8hQPGfoYLV27Evccv493nkmTSj+J4X6kGy+8TPCtXg6X0wMG7DEoEE2Y3lmqwvHNNNpAhIwkTft2E33w2Ens298Xiwqw6/toV6NxqMeqvDmKsBuvltoGSzPhi70vZxd6yJOGqjvzECEDOOhSXSA41uwZLieWGxRiWuym6kX4cP6giybHRTPw9t+IJJOI3rayFffTrtDJOfoTVhZoeJZaJ2Fm4eh5T9cIECroOlkDqz9gtczZpiX7SRoahGiwWjwdmTq4ImIr5h8SOaM/7TObjQpfcF/y9OfGFJ8sXcLZYe6xU0P5sP47yFWdqcuoqOGp/njmC8hRAr4uC7PTy2Rk4c43POzlQ+VSH6obem2qTIPmZ9AixmCu4mpmgFhRVlbbQype5Dd0j+CUmFp4dPwwnU/h42Aia15dewDgFQYsA8TXGxcOH4M6xXbCfLxZTVYPW7X30RhFq8PWtJP635jc4czpJ2GqItLOxcDGNvz8KKO3lDS4mXrtVjZrgq+LzaA0k7NwMZ0x8FYx6IygnF2fhXzycSg3C4ZiepL18yWuLLKl/3smqf9FH6V4ZKgkvsnWQcvUi/G4wkdfBn1+9Bc5OblDJryPMO68xoy+At6+X9FTkIZw+fkW6NgP8/RSePJVfCRx0L+Dp82whqly8oHGXoTA5ai0cvHYLzn7dCcrwN1X3DI7sOgjPxN1EzOlrDFVt6NPDX3iyk3ZyB+z662+I37gFzmTwfiIQevasnGv0qrKcPIxgad3jsawN/pfQwd0fZ8A3cWnMZpVQttsKOHPpf7Bq3mQYNbArhDasBmUcJMloEuGB9KqGfxKd+UTAcujgxdPn2V8tULmAV+MuMHRyFKw9eA1unf0aOomGAM+O7IKDJhqC2tcXKgmXoIHfzpwGox417SzEXuRlwbSstBd4m+pQXxEqb1/wEg0UHp4+DleMGyg8ffI0z0r2/zS6lKfwXCr34WxtxX8YQ+0LvuINZCHxDBgPiWlwNvYiiCGxNHh5uwhPvMyJLzngnMC/eaCYYzgGQ+S8gVCRn5GTEQ/fjJwKh2VXgS8avS4skkZr4cbP30MM/8EyTg1+IaFQ1oCu6x7egXtCMZ8CilfwNFhwVmSo/KB1S08WnrRw59Au+Hn/MZZEcGBdNwiaZNZ0KtygRfPqQg1IWuxe+Gp9DNzhfbt3K2hbjS/kz0QJXi2DgY8V/Pve/at+gHhDnkyXCNHLt4JQu6dwgcAW9fTqaYyjKNcROgfaCo8qNde+gwlzYk2o8UmBE9+vB+FLIgpHqN+0rriZoXByAgfh1YAOku78aSAJeAL7WPATlD83Vo2gRaCTeD5xW2HdWQNRV3cXdu46BanPH8DNP1VQqjyTnRl9XZqHQD1bvmcGxK1ZAnsNPedl9/ZaVAcoX8wObIt7Qpdvb4gBJvV/MKFhJXB1dAHP/mvhoUzyyBde1hjQh+kC/3cQNC9SIY3fz5y+JqEE3969oBFzyPjyBOzaeRI2bT8PGjbmcgjqBd1lqrPNlocJWFr3BCxqg/8lMuDK+SvwkrdJpRu0Ce8JlQyIIuXYXjiaWdOj0/Jv3ixEKvxvQkOo5OoILp79Ya28IYBDjQHQh91MwRI0LyDVRENQerWEYNGhQsr+VfCDYYcKidHLYavoUMElsAXUM9WhvipcmkNIPdF2MuLWwBLDBgraa1HQoXwxsLMtDp5dvoUbphpokaKDO1u3w8m/eYVj9lndX9xsDKUXtAz2FUoQMGU/rPoh3qCv0SVGw/Ktfwq/K1wCoUXmDTQnvhiheJvPYU7vsszTIvx9dTGMnHZEz5cVrV4XFiE9eh47FwZH7oOn7D4oirWCYQOrMccoT8a1q5DAS5RTQZWaNcDgBIEiwwrqtQsRnjJo4tfC7I1/sLGSCmo2C4JSWcmeErxbNGPZLruHybth8ZoEYR/Pt9pBnVwnrPIfBO805ZUBIfXI5xAeeVgm+L6AuKVDYez6v5gycaD27gtD2+cc1RuFKW34pHCozBcO657C0SltIXjYd3D8voHU/sV12BnZFXotvAIZLECrvfvDyC6u0o8Mex/wKc8HbISXv6yEb8/n+BITQwO3N02AyZseMhOTQeEKnSO6Qjl2CMy4BF+9FwkH81y0Bm6snQAz9/Mz4JRQpvMA6FCcbTajr6J8LxjWyY1tYQ7p1ioYMXgZXJYpC3p6chYMn8HX62ghXVMJgkLKC33A1hfKOzyExy8y4OnuuTAtRu57mDq4t2MbHBMKhNk9r1UbSvB6YU5fE1F69oBezZjxYir8suJj2HRBwy/kAy17h8nOhDJbHqZgad0TsKwN/nfgZ/bxs5wYuidwLe6WbPD6++ZGGDNyZXaQ5mtdpX+ajy34lneAh49fQMbT3TB3WkyOWa+Z6O7tgG3HUpn9MkvwrAW1TTUElT8MeqcpOLGLxNQj8Hl4JByWCXYv4pbC0LHr4S92jZzaG/oObQ8F8KivBkV56DWsE7iJBgqrRgyGZfIGCrOGz4CjzG9o0zVQKSgEBPf8j6KDJ8dmQ8Sn/4NkXvyKktCmX5j4k1FU4D/oHWgq3kA48nk4RB6WiSMv4mDp0LGwXryB4N13KGSFRHPiizEUpaDzzBnQxZ0/cDrELRoFXzAdFSlivS4sC8d3wirSpwI4pRu2/zbeSM2KBn/nV2tm+4KqGn54wgKVDgWswRJI2YYDpfVJhKbywbG/5jqX1O04SFjEUdpHWR6HZq5klov0i/MxhF/Dh9+Ps8FyzQfjtO824M49u3HL9/Pw/Y5V0VkhvrvlbGvi6L3SJyEKxHM8/nkQlpCOw7QSFbZl0L9Vbxw2fjJO/fxznPrJOBzSIxiru/KLr4nnrXCuhx8fzv2+OR1PfFRDqhfiUF06EAfP/B637d2NW9csxA97BGApNYdK14pYQbi3uRcaZWjv4rq+nlnHsPUMwWEzVuCmXXtx96ZlOC0iEN2F99XsOO5huCJHEUbh+2pu/Yi9yovv0oUalKodcczc73HL7hjcs+V7nDO6vd6nK5wxcNqpHJ/5SNozHFmyIPzO2Xpi8JBp+O26aIzZH4M7NyzHGSNCsaL06QpFsVBcpLf4oDl9863BEtDig+/DpMUTxaZw7Y3rZT7HmIm58jANS+qehIVt8L9Sg/Xy4Ej0lr45ydn7Ytepa3D/uXi8fj0ez/+yBZd83BP9S6iQ4xSoVIrrGSnKRKB+iZ7ZNVhJe3B45Uyds0XP4CE47dt1GB2zH2N2bsDlM0ZgaEXp00qKYhi6KGdMML6SOyP9Is4PkT5pwnTNplxzHDztO9ywcw/uZjo97/2OWNVZWquJ/f2ao/fm+Abu61KDJaC5hT/2ktZh4v2ZS1XsOGYufr9lN8bs2YLfzxmN7X0yvwWpQOfAaXhKX8WLqAZLXaM3fjZ9Ok7P3b6YhpEfvYu9Q6rkqDcq3nIhXtWvpzL6qZx0vDg/RFplnempTTlsPngafrdhJ+7Zza553vvYsaqz8LUGwf/XHI17c3/E2IwYYdzXavDGsg7oKpwbO26dT/BEZpGXmXpdFDD58SfKC7ESdvn6HHPFRtA+wOXtHYQTNDkZyo/CJFiYjOt6Zhowc0ClB+K2PJV0j/GHMHGFbWEf93CMNrIqanJsFHb1zv5eW97GEpkyzXHiDrlPW5jKc7y4ajg2cpOUwFhjwda5Wg+cfzTnd8iySPoFI5sY+qglO1f3Fjht/wbp47syCRbPy6v4w6DqBj6eyzcOrcu3xTnHZYKsGX1T41bggBpOkoHKN/4bbc0m7s7zoVvEZxg7vy2WzXIeco1DVclGOH5H7u+KFb6vaQkWI2kD9pH0WXD84dHGbYphnjxMxYK6J2BZG/yvJFioTcQ94wPYgE2UiVzjrMtiyMRNuG60rzAJgrMKwvl6C1Raosj9Wex8bFvWuC5wqpLYaPyOPB/1zzfB4kmOxaiu3tJ3NOUbpy6DzSfuwDu5HNNrlWDxpMbhigE10ClrgCLTODWWbjYRd+c20CJKsExunBV6BE/Bg7lX5zSaYPEkY2xUV/SWBpyyjV1zmeYTcUfuG5hJIWNEvr5WE4+LQouJvoezw7qR2YNOc/S6KIAS5Wth6KCpuO6SgZGqPsnrsJfwpIc5sdGHjTscUylUgsVsa1VndJayY8eOK/W+75aJFm8tbCEu+c8yeNc+G3N8z0uWlATc9eVo7B5UA8uVdEJrtQ26uHthzWbdcFxUNF5OstAdeRaPe779FId0aYF1fDywhIMNqtloVWXthKUq1sLmXd/F6T+dxL/ymcGBaTcxZuFo7NLYB91dbNDK1gXdfRpil/e/xkN3Wee03fiOsQRL4CXe3BeF7/dojjXKlURHazVa2RfH8rVaYv9P1+BpQ8vmCpjR9+VNPLBkAvYOro2erg5opVSi2s4Fy/jUx7YRkbg6NtFIIqvBxNjVGBnRDhv4emAxOzUqFEq0ciyFXgFvYf9Jy/HoPUPCK1xfkxMslsjsiJBWN1ZWxBH7je2rh1nyKACW0j2GJW3wP5NgCaTg1S1fYETrAKzk6sj8jBptnF3Rs1YL7DHmS9z5u5iSp0SHYxlh9X47bDY3XtjGY6lZhJrEWFwdGYHtGviiRzE7VCsUqLRyxFJeAfhW/0m4/Og92VmAJiVYAimYsOtLHN09SPAPTsw/2Li4o1fNZthtXBRGX06STeBfuwRLgPm6A0twQu9grO3pig5WSlSq7dCljA/WbxuBkatjMVHu2K80weK/A6pGW+dSWL5qA2zddzwu3H4Zk+WEnG+CJZKSsAu/HN0dg2qUw5JO1qi2YTHGqyY26zYOo6IvY/4hseAxwhRfmxE3G5tJn0Di7BvgZ2ezBVtYvS4KOP5/2EmaRNK6XuDTZx08VgXAp7EnYEot40VpBEEQBEEQ/0UU0v/nj+4+bFu7F57oFOAcOgzeqUnJFUEQBEEQhBwmJ1ja31fD8v8lA6q9YeCEPlDghZgJgiAIgiD+I5iYJqXA4UXfwomXHJRs/zGMb2InbScIgiAIgiByY1KCpb2+Cmasvg465yCYOP1tenpFEARBEARhhPxTJd1jiP5sNhxMcYagyVHwbhWqvSIIgiAIgjBG/glW6m/wsExPGPvFKlg25p9YuZ0gCIIgCOLNokDLNBAEQRAEQRD5Q9VUBEEQBEEQFoYSLIIgCIIgCAtDCRZBEARBEISFoQSLIAiCIAjCwlCCRRAEQRAEYWEowSIIgiAIgrAwlGARBEEQBEFYGEqwCIIgCIIgLAwlWARBEARBEBaGEiyCIAiCIAgLQwkWQRAEQRCEhaEEiyAIgiAIwsJQgkUQBEEQBGFhKMEiCIIgCIKwMJRgEQRBEARBWBhKsAiCIAiCICwMJVgEQRAEQRAWBeD/10Rsj/FwAD4AAAAASUVORK5CYII=;clipPath=inset(1.33% 3.79% 1.33% 3.79%);" vertex="1" parent="1">
          <mxGeometry x="220" y="45" width="357.94520547945206" height="390" as="geometry" />
        </mxCell>
      </root>
    </mxGraphModel>
  </diagram>
</mxfile>
